<?xml version="1.0" encoding="utf-8" standalone="no"?>
<!DOCTYPE svg PUBLIC "-//W3C//DTD SVG 1.1//EN"
  "http://www.w3.org/Graphics/SVG/1.1/DTD/svg11.dtd">
<svg xmlns:xlink="http://www.w3.org/1999/xlink" width="576pt" height="576pt" viewBox="0 0 576 576" xmlns="http://www.w3.org/2000/svg" version="1.1">
 <metadata>
  <rdf:RDF xmlns:dc="http://purl.org/dc/elements/1.1/" xmlns:cc="http://creativecommons.org/ns#" xmlns:rdf="http://www.w3.org/1999/02/22-rdf-syntax-ns#">
   <cc:Work>
    <dc:type rdf:resource="http://purl.org/dc/dcmitype/StillImage"/>
    <dc:date>2023-05-13T12:09:16.367195</dc:date>
    <dc:format>image/svg+xml</dc:format>
    <dc:creator>
     <cc:Agent>
      <dc:title>Matplotlib v3.7.1, https://matplotlib.org/</dc:title>
     </cc:Agent>
    </dc:creator>
   </cc:Work>
  </rdf:RDF>
 </metadata>
 <defs>
  <style type="text/css">*{stroke-linejoin: round; stroke-linecap: butt}</style>
 </defs>
 <g id="figure_1">
  <g id="patch_1">
   <path d="M 0 576 
L 576 576 
L 576 0 
L 0 0 
z
" style="fill: #ffffff"/>
  </g>
  <g id="axes_1">
   <g id="patch_2">
    <path d="M 72 512.64 
L 518.4 512.64 
L 518.4 69.12 
L 72 69.12 
z
" style="fill: #ffffff"/>
   </g>
   <g id="matplotlib.axis_1">
    <g id="xtick_1">
     <g id="line2d_1">
      <defs>
       <path id="mfea6b1cb75" d="M 0 0 
L 0 3.5 
" style="stroke: #000000; stroke-width: 0.8"/>
      </defs>
      <g>
       <use xlink:href="#mfea6b1cb75" x="92.290909" y="512.64" style="stroke: #000000; stroke-width: 0.8"/>
      </g>
     </g>
     <g id="text_1">
      <!-- 0.0 -->
      <g transform="translate(84.790909 526.515) scale(0.1 -0.1)">
       <defs>
        <path id="SimHei-30" d="M 225 2537 
Q 250 3200 412 3587 
Q 575 3975 875 4225 
Q 1175 4475 1612 4475 
Q 2050 4475 2375 4112 
Q 2700 3750 2800 3200 
Q 2900 2650 2862 1937 
Q 2825 1225 2612 775 
Q 2400 325 1975 150 
Q 1550 -25 1125 187 
Q 700 400 525 750 
Q 350 1100 275 1487 
Q 200 1875 225 2537 
z
M 750 2687 
Q 675 2000 800 1462 
Q 925 925 1212 700 
Q 1500 475 1800 612 
Q 2100 750 2237 1162 
Q 2375 1575 2375 2062 
Q 2375 2550 2337 2950 
Q 2300 3350 2112 3675 
Q 1925 4000 1612 4012 
Q 1300 4025 1062 3700 
Q 825 3375 750 2687 
z
" transform="scale(0.015625)"/>
        <path id="SimHei-2e" d="M 1075 125 
L 500 125 
L 500 675 
L 1075 675 
L 1075 125 
z
" transform="scale(0.015625)"/>
       </defs>
       <use xlink:href="#SimHei-30"/>
       <use xlink:href="#SimHei-2e" x="50"/>
       <use xlink:href="#SimHei-30" x="100"/>
      </g>
     </g>
    </g>
    <g id="xtick_2">
     <g id="line2d_2">
      <g>
       <use xlink:href="#mfea6b1cb75" x="173.454545" y="512.64" style="stroke: #000000; stroke-width: 0.8"/>
      </g>
     </g>
     <g id="text_2">
      <!-- 0.2 -->
      <g transform="translate(165.954545 526.515) scale(0.1 -0.1)">
       <defs>
        <path id="SimHei-32" d="M 300 250 
Q 325 625 650 925 
Q 975 1225 1475 1862 
Q 1975 2500 2125 2850 
Q 2275 3200 2237 3450 
Q 2200 3700 2000 3862 
Q 1800 4025 1537 4000 
Q 1275 3975 1037 3800 
Q 800 3625 675 3275 
L 200 3350 
Q 400 3925 712 4187 
Q 1025 4450 1450 4475 
Q 1700 4500 1900 4462 
Q 2100 4425 2312 4287 
Q 2525 4150 2662 3875 
Q 2800 3600 2762 3212 
Q 2725 2825 2375 2287 
Q 2025 1750 1025 600 
L 2825 600 
L 2825 150 
L 300 150 
L 300 250 
z
" transform="scale(0.015625)"/>
       </defs>
       <use xlink:href="#SimHei-30"/>
       <use xlink:href="#SimHei-2e" x="50"/>
       <use xlink:href="#SimHei-32" x="100"/>
      </g>
     </g>
    </g>
    <g id="xtick_3">
     <g id="line2d_3">
      <g>
       <use xlink:href="#mfea6b1cb75" x="254.618182" y="512.64" style="stroke: #000000; stroke-width: 0.8"/>
      </g>
     </g>
     <g id="text_3">
      <!-- 0.4 -->
      <g transform="translate(247.118182 526.515) scale(0.1 -0.1)">
       <defs>
        <path id="SimHei-34" d="M 2000 1100 
L 75 1100 
L 75 1525 
L 2100 4450 
L 2475 4450 
L 2475 1525 
L 3075 1525 
L 3075 1100 
L 2475 1100 
L 2475 150 
L 2000 150 
L 2000 1100 
z
M 2000 1525 
L 2000 3500 
L 600 1525 
L 2000 1525 
z
" transform="scale(0.015625)"/>
       </defs>
       <use xlink:href="#SimHei-30"/>
       <use xlink:href="#SimHei-2e" x="50"/>
       <use xlink:href="#SimHei-34" x="100"/>
      </g>
     </g>
    </g>
    <g id="xtick_4">
     <g id="line2d_4">
      <g>
       <use xlink:href="#mfea6b1cb75" x="335.781818" y="512.64" style="stroke: #000000; stroke-width: 0.8"/>
      </g>
     </g>
     <g id="text_4">
      <!-- 0.6 -->
      <g transform="translate(328.281818 526.515) scale(0.1 -0.1)">
       <defs>
        <path id="SimHei-36" d="M 250 1612 
Q 275 1975 387 2225 
Q 500 2475 725 2850 
L 1750 4450 
L 2325 4450 
L 1275 2800 
Q 1950 2975 2350 2750 
Q 2750 2525 2887 2237 
Q 3025 1950 3037 1612 
Q 3050 1275 2937 950 
Q 2825 625 2537 362 
Q 2250 100 1737 75 
Q 1225 50 862 262 
Q 500 475 362 862 
Q 225 1250 250 1612 
z
M 1025 787 
Q 1250 550 1625 525 
Q 2000 500 2250 775 
Q 2500 1050 2500 1575 
Q 2500 2100 2187 2300 
Q 1875 2500 1487 2450 
Q 1100 2400 925 2075 
Q 750 1750 775 1387 
Q 800 1025 1025 787 
z
" transform="scale(0.015625)"/>
       </defs>
       <use xlink:href="#SimHei-30"/>
       <use xlink:href="#SimHei-2e" x="50"/>
       <use xlink:href="#SimHei-36" x="100"/>
      </g>
     </g>
    </g>
    <g id="xtick_5">
     <g id="line2d_5">
      <g>
       <use xlink:href="#mfea6b1cb75" x="416.945455" y="512.64" style="stroke: #000000; stroke-width: 0.8"/>
      </g>
     </g>
     <g id="text_5">
      <!-- 0.8 -->
      <g transform="translate(409.445455 526.515) scale(0.1 -0.1)">
       <defs>
        <path id="SimHei-38" d="M 175 1375 
Q 175 1675 325 1962 
Q 475 2250 825 2425 
Q 525 2600 425 2812 
Q 325 3025 312 3300 
Q 300 3575 387 3775 
Q 475 3975 650 4150 
Q 825 4325 1037 4387 
Q 1250 4450 1500 4450 
Q 1750 4450 1950 4400 
Q 2150 4350 2375 4187 
Q 2600 4025 2700 3725 
Q 2800 3425 2687 3025 
Q 2575 2625 2100 2400 
Q 2525 2275 2700 2012 
Q 2875 1750 2875 1375 
Q 2875 1000 2762 775 
Q 2650 550 2512 400 
Q 2375 250 2137 162 
Q 1900 75 1537 75 
Q 1175 75 912 162 
Q 650 250 475 425 
Q 300 600 237 837 
Q 175 1075 175 1375 
z
M 687 1400 
Q 675 1100 787 875 
Q 900 650 1200 587 
Q 1500 525 1825 600 
Q 2150 675 2275 950 
Q 2400 1225 2362 1500 
Q 2325 1775 2050 1962 
Q 1775 2150 1450 2125 
Q 1125 2100 912 1900 
Q 700 1700 687 1400 
z
M 775 3350 
Q 775 3100 950 2875 
Q 1125 2650 1500 2650 
Q 1875 2650 2062 2875 
Q 2250 3100 2237 3412 
Q 2225 3725 2012 3875 
Q 1800 4025 1437 4000 
Q 1075 3975 925 3787 
Q 775 3600 775 3350 
z
" transform="scale(0.015625)"/>
       </defs>
       <use xlink:href="#SimHei-30"/>
       <use xlink:href="#SimHei-2e" x="50"/>
       <use xlink:href="#SimHei-38" x="100"/>
      </g>
     </g>
    </g>
    <g id="xtick_6">
     <g id="line2d_6">
      <g>
       <use xlink:href="#mfea6b1cb75" x="498.109091" y="512.64" style="stroke: #000000; stroke-width: 0.8"/>
      </g>
     </g>
     <g id="text_6">
      <!-- 1.0 -->
      <g transform="translate(490.609091 526.515) scale(0.1 -0.1)">
       <defs>
        <path id="SimHei-31" d="M 1400 3600 
Q 1075 3275 575 2975 
L 575 3450 
Q 1200 3875 1600 4450 
L 1900 4450 
L 1900 150 
L 1400 150 
L 1400 3600 
z
" transform="scale(0.015625)"/>
       </defs>
       <use xlink:href="#SimHei-31"/>
       <use xlink:href="#SimHei-2e" x="50"/>
       <use xlink:href="#SimHei-30" x="100"/>
      </g>
     </g>
    </g>
    <g id="text_7">
     <!-- False Positive Rate -->
     <g transform="translate(247.7 538.64) scale(0.1 -0.1)">
      <defs>
       <path id="SimHei-46" d="M 2925 3925 
L 875 3925 
L 875 2525 
L 2425 2525 
L 2425 2050 
L 875 2050 
L 875 125 
L 300 125 
L 300 4400 
L 2925 4400 
L 2925 3925 
z
" transform="scale(0.015625)"/>
       <path id="SimHei-61" d="M 2875 125 
L 2275 125 
Q 2225 175 2200 262 
Q 2175 350 2175 475 
Q 2000 275 1750 175 
Q 1500 75 1225 75 
Q 825 75 550 275 
Q 275 475 275 850 
Q 275 1225 525 1450 
Q 775 1675 1300 1750 
Q 1650 1800 1912 1875 
Q 2175 1950 2175 2075 
Q 2175 2225 2062 2375 
Q 1950 2525 1575 2525 
Q 1275 2525 1137 2412 
Q 1000 2300 950 2100 
L 400 2100 
Q 450 2500 762 2737 
Q 1075 2975 1575 2975 
Q 2125 2975 2400 2725 
Q 2675 2475 2675 2025 
L 2675 650 
Q 2675 500 2725 375 
Q 2775 250 2875 125 
z
M 2175 1050 
L 2175 1550 
Q 2025 1500 1887 1462 
Q 1750 1425 1425 1375 
Q 1050 1325 937 1200 
Q 825 1075 825 900 
Q 825 750 937 637 
Q 1050 525 1275 525 
Q 1500 525 1762 650 
Q 2025 775 2175 1050 
z
" transform="scale(0.015625)"/>
       <path id="SimHei-6c" d="M 1825 125 
L 1325 125 
L 1325 4400 
L 1825 4400 
L 1825 125 
z
" transform="scale(0.015625)"/>
       <path id="SimHei-73" d="M 2750 900 
Q 2750 500 2437 287 
Q 2125 75 1650 75 
Q 1050 75 725 312 
Q 400 550 400 1000 
L 900 1000 
Q 900 700 1112 600 
Q 1325 500 1625 500 
Q 1925 500 2075 612 
Q 2225 725 2225 900 
Q 2225 1025 2100 1150 
Q 1975 1275 1475 1350 
Q 900 1425 687 1637 
Q 475 1850 475 2200 
Q 475 2500 762 2737 
Q 1050 2975 1600 2975 
Q 2100 2975 2387 2750 
Q 2675 2525 2675 2150 
L 2175 2150 
Q 2175 2375 2012 2462 
Q 1850 2550 1600 2550 
Q 1275 2550 1137 2437 
Q 1000 2325 1000 2175 
Q 1000 2000 1125 1900 
Q 1250 1800 1650 1750 
Q 2300 1650 2525 1437 
Q 2750 1225 2750 900 
z
" transform="scale(0.015625)"/>
       <path id="SimHei-65" d="M 2850 1075 
Q 2800 625 2450 350 
Q 2100 75 1625 75 
Q 1025 75 637 462 
Q 250 850 250 1525 
Q 250 2200 637 2587 
Q 1025 2975 1625 2975 
Q 2150 2975 2487 2637 
Q 2825 2300 2825 1525 
L 800 1525 
Q 800 975 1037 750 
Q 1275 525 1625 525 
Q 1900 525 2075 662 
Q 2250 800 2300 1075 
L 2850 1075 
z
M 2250 1925 
Q 2200 2275 2025 2412 
Q 1850 2550 1575 2550 
Q 1325 2550 1125 2412 
Q 925 2275 825 1925 
L 2250 1925 
z
" transform="scale(0.015625)"/>
       <path id="SimHei-20" transform="scale(0.015625)"/>
       <path id="SimHei-50" d="M 2950 3100 
Q 2950 2500 2600 2150 
Q 2250 1800 1625 1800 
L 900 1800 
L 900 125 
L 325 125 
L 325 4400 
L 1625 4400 
Q 2250 4400 2600 4050 
Q 2950 3700 2950 3100 
z
M 2375 3100 
Q 2375 3575 2150 3750 
Q 1925 3925 1475 3925 
L 900 3925 
L 900 2275 
L 1475 2275 
Q 1925 2275 2150 2450 
Q 2375 2625 2375 3100 
z
" transform="scale(0.015625)"/>
       <path id="SimHei-6f" d="M 2925 1525 
Q 2925 875 2525 475 
Q 2125 75 1575 75 
Q 1025 75 625 475 
Q 225 875 225 1525 
Q 225 2175 625 2575 
Q 1025 2975 1575 2975 
Q 2125 2975 2525 2575 
Q 2925 2175 2925 1525 
z
M 2375 1525 
Q 2375 2025 2125 2275 
Q 1875 2525 1575 2525 
Q 1275 2525 1025 2275 
Q 775 2025 775 1525 
Q 775 1025 1025 775 
Q 1275 525 1575 525 
Q 1875 525 2125 775 
Q 2375 1025 2375 1525 
z
" transform="scale(0.015625)"/>
       <path id="SimHei-69" d="M 1800 3725 
L 1300 3725 
L 1300 4375 
L 1800 4375 
L 1800 3725 
z
M 1800 125 
L 1300 125 
L 1300 2925 
L 1800 2925 
L 1800 125 
z
" transform="scale(0.015625)"/>
       <path id="SimHei-74" d="M 2750 200 
Q 2625 150 2462 112 
Q 2300 75 2025 75 
Q 1575 75 1300 325 
Q 1025 575 1025 1025 
L 1025 2525 
L 175 2525 
L 175 2925 
L 1025 2925 
L 1025 3900 
L 1525 3900 
L 1525 2925 
L 2550 2925 
L 2550 2525 
L 1525 2525 
L 1525 1000 
Q 1525 800 1625 662 
Q 1725 525 2000 525 
Q 2275 525 2450 575 
Q 2625 625 2750 700 
L 2750 200 
z
" transform="scale(0.015625)"/>
       <path id="SimHei-76" d="M 2875 2925 
L 1825 75 
L 1275 75 
L 225 2925 
L 750 2925 
L 1525 750 
L 1575 750 
L 2350 2925 
L 2875 2925 
z
" transform="scale(0.015625)"/>
       <path id="SimHei-52" d="M 3000 125 
L 2400 125 
L 1500 1975 
L 850 1975 
L 850 125 
L 275 125 
L 275 4400 
L 1525 4400 
Q 2125 4400 2500 4112 
Q 2875 3825 2875 3175 
Q 2875 2675 2625 2400 
Q 2375 2125 2050 2050 
L 3000 125 
z
M 2300 3175 
Q 2300 3525 2087 3725 
Q 1875 3925 1400 3925 
L 850 3925 
L 850 2450 
L 1550 2450 
Q 1850 2450 2075 2612 
Q 2300 2775 2300 3175 
z
" transform="scale(0.015625)"/>
      </defs>
      <use xlink:href="#SimHei-46"/>
      <use xlink:href="#SimHei-61" x="50"/>
      <use xlink:href="#SimHei-6c" x="100"/>
      <use xlink:href="#SimHei-73" x="150"/>
      <use xlink:href="#SimHei-65" x="200"/>
      <use xlink:href="#SimHei-20" x="250"/>
      <use xlink:href="#SimHei-50" x="300"/>
      <use xlink:href="#SimHei-6f" x="350"/>
      <use xlink:href="#SimHei-73" x="400"/>
      <use xlink:href="#SimHei-69" x="450"/>
      <use xlink:href="#SimHei-74" x="500"/>
      <use xlink:href="#SimHei-69" x="550"/>
      <use xlink:href="#SimHei-76" x="600"/>
      <use xlink:href="#SimHei-65" x="650"/>
      <use xlink:href="#SimHei-20" x="700"/>
      <use xlink:href="#SimHei-52" x="750"/>
      <use xlink:href="#SimHei-61" x="800"/>
      <use xlink:href="#SimHei-74" x="850"/>
      <use xlink:href="#SimHei-65" x="900"/>
     </g>
    </g>
   </g>
   <g id="matplotlib.axis_2">
    <g id="ytick_1">
     <g id="line2d_7">
      <defs>
       <path id="ma80fb747ec" d="M 0 0 
L -3.5 0 
" style="stroke: #000000; stroke-width: 0.8"/>
      </defs>
      <g>
       <use xlink:href="#ma80fb747ec" x="72" y="492.48" style="stroke: #000000; stroke-width: 0.8"/>
      </g>
     </g>
     <g id="text_8">
      <!-- 0.0 -->
      <g transform="translate(50 495.9175) scale(0.1 -0.1)">
       <use xlink:href="#SimHei-30"/>
       <use xlink:href="#SimHei-2e" x="50"/>
       <use xlink:href="#SimHei-30" x="100"/>
      </g>
     </g>
    </g>
    <g id="ytick_2">
     <g id="line2d_8">
      <g>
       <use xlink:href="#ma80fb747ec" x="72" y="411.84" style="stroke: #000000; stroke-width: 0.8"/>
      </g>
     </g>
     <g id="text_9">
      <!-- 0.2 -->
      <g transform="translate(50 415.2775) scale(0.1 -0.1)">
       <use xlink:href="#SimHei-30"/>
       <use xlink:href="#SimHei-2e" x="50"/>
       <use xlink:href="#SimHei-32" x="100"/>
      </g>
     </g>
    </g>
    <g id="ytick_3">
     <g id="line2d_9">
      <g>
       <use xlink:href="#ma80fb747ec" x="72" y="331.2" style="stroke: #000000; stroke-width: 0.8"/>
      </g>
     </g>
     <g id="text_10">
      <!-- 0.4 -->
      <g transform="translate(50 334.6375) scale(0.1 -0.1)">
       <use xlink:href="#SimHei-30"/>
       <use xlink:href="#SimHei-2e" x="50"/>
       <use xlink:href="#SimHei-34" x="100"/>
      </g>
     </g>
    </g>
    <g id="ytick_4">
     <g id="line2d_10">
      <g>
       <use xlink:href="#ma80fb747ec" x="72" y="250.56" style="stroke: #000000; stroke-width: 0.8"/>
      </g>
     </g>
     <g id="text_11">
      <!-- 0.6 -->
      <g transform="translate(50 253.9975) scale(0.1 -0.1)">
       <use xlink:href="#SimHei-30"/>
       <use xlink:href="#SimHei-2e" x="50"/>
       <use xlink:href="#SimHei-36" x="100"/>
      </g>
     </g>
    </g>
    <g id="ytick_5">
     <g id="line2d_11">
      <g>
       <use xlink:href="#ma80fb747ec" x="72" y="169.92" style="stroke: #000000; stroke-width: 0.8"/>
      </g>
     </g>
     <g id="text_12">
      <!-- 0.8 -->
      <g transform="translate(50 173.3575) scale(0.1 -0.1)">
       <use xlink:href="#SimHei-30"/>
       <use xlink:href="#SimHei-2e" x="50"/>
       <use xlink:href="#SimHei-38" x="100"/>
      </g>
     </g>
    </g>
    <g id="ytick_6">
     <g id="line2d_12">
      <g>
       <use xlink:href="#ma80fb747ec" x="72" y="89.28" style="stroke: #000000; stroke-width: 0.8"/>
      </g>
     </g>
     <g id="text_13">
      <!-- 1.0 -->
      <g transform="translate(50 92.7175) scale(0.1 -0.1)">
       <use xlink:href="#SimHei-31"/>
       <use xlink:href="#SimHei-2e" x="50"/>
       <use xlink:href="#SimHei-30" x="100"/>
      </g>
     </g>
    </g>
    <g id="text_14">
     <!-- True Positive Rate -->
     <g transform="translate(44.75 335.88) rotate(-90) scale(0.1 -0.1)">
      <defs>
       <path id="SimHei-54" d="M 2850 3925 
L 1850 3925 
L 1850 125 
L 1275 125 
L 1275 3925 
L 275 3925 
L 275 4400 
L 2850 4400 
L 2850 3925 
z
" transform="scale(0.015625)"/>
       <path id="SimHei-72" d="M 2500 2425 
Q 2025 2500 1700 2287 
Q 1375 2075 1150 1550 
L 1150 125 
L 650 125 
L 650 2925 
L 1150 2925 
L 1150 2200 
Q 1375 2600 1712 2787 
Q 2050 2975 2500 2975 
L 2500 2425 
z
" transform="scale(0.015625)"/>
       <path id="SimHei-75" d="M 2800 125 
L 2300 125 
L 2300 650 
Q 2100 375 1862 225 
Q 1625 75 1250 75 
Q 800 75 575 325 
Q 350 575 350 950 
L 350 2925 
L 850 2925 
L 850 1125 
Q 850 825 1000 650 
Q 1150 475 1400 475 
Q 1725 475 2012 812 
Q 2300 1150 2300 1650 
L 2300 2925 
L 2800 2925 
L 2800 125 
z
" transform="scale(0.015625)"/>
      </defs>
      <use xlink:href="#SimHei-54"/>
      <use xlink:href="#SimHei-72" x="50"/>
      <use xlink:href="#SimHei-75" x="100"/>
      <use xlink:href="#SimHei-65" x="150"/>
      <use xlink:href="#SimHei-20" x="200"/>
      <use xlink:href="#SimHei-50" x="250"/>
      <use xlink:href="#SimHei-6f" x="300"/>
      <use xlink:href="#SimHei-73" x="350"/>
      <use xlink:href="#SimHei-69" x="400"/>
      <use xlink:href="#SimHei-74" x="450"/>
      <use xlink:href="#SimHei-69" x="500"/>
      <use xlink:href="#SimHei-76" x="550"/>
      <use xlink:href="#SimHei-65" x="600"/>
      <use xlink:href="#SimHei-20" x="650"/>
      <use xlink:href="#SimHei-52" x="700"/>
      <use xlink:href="#SimHei-61" x="750"/>
      <use xlink:href="#SimHei-74" x="800"/>
      <use xlink:href="#SimHei-65" x="850"/>
     </g>
    </g>
   </g>
   <g id="line2d_13">
    <path d="M 92.290909 492.48 
L 92.401151 413.852713 
L 92.402418 413.852713 
L 92.402418 413.762051 
L 92.512659 359.636378 
L 92.515194 358.616421 
L 92.625435 317.954169 
L 92.626702 317.954169 
L 92.736944 300.331594 
L 92.738211 300.331594 
L 92.848453 288.726759 
L 92.850987 288.726759 
L 92.961228 277.93789 
L 92.966297 277.85856 
L 93.076539 269.608248 
L 93.079073 269.562916 
L 93.189314 261.947244 
L 93.191849 261.867914 
L 93.30209 255.555519 
L 93.304625 255.476189 
L 93.414866 250.070421 
L 93.4174 250.047755 
L 93.527642 245.401288 
L 93.532711 245.321959 
L 93.642952 241.287465 
L 93.646754 241.208135 
L 93.756995 237.320969 
L 93.758262 237.320969 
L 93.868504 233.637794 
L 93.872305 233.535799 
L 93.982547 230.056615 
L 93.986348 230.022616 
L 94.092788 227.144073 
L 94.099124 227.121408 
L 94.209366 223.528895 
L 94.214434 223.438233 
L 94.324676 221.092333 
L 94.331011 221.013004 
L 94.438719 218.259122 
L 94.445054 218.247789 
L 94.555296 216.06055 
L 94.565433 215.958554 
L 94.674408 213.737316 
L 94.680743 213.657986 
L 94.790985 211.924061 
L 94.794786 211.822065 
L 94.903761 209.986144 
L 94.912631 209.940813 
L 95.022872 208.05956 
L 95.027941 207.957565 
L 95.136915 206.019648 
L 95.144518 205.951651 
L 95.25476 204.319721 
L 95.271233 204.240391 
L 95.381474 202.291142 
L 95.38781 202.200479 
L 95.498051 200.534551 
L 95.513257 200.432555 
L 95.622232 199.083946 
L 95.631102 198.981951 
L 95.736275 197.893997 
L 95.752747 197.792002 
L 95.861722 196.341397 
L 95.870592 196.239402 
L 95.979566 195.128783 
L 95.988436 195.03812 
L 96.098678 193.530852 
L 96.107548 193.451522 
L 96.217789 192.340903 
L 96.222858 192.25024 
L 96.329298 190.958296 
L 96.347038 190.878966 
L 96.456013 189.972338 
L 96.464883 189.870342 
L 96.575124 188.646395 
L 96.585261 188.544399 
L 96.695503 187.501778 
L 96.719579 187.399782 
L 96.82982 186.561151 
L 96.848827 186.470489 
L 96.959069 185.405201 
L 96.976809 185.303205 
L 97.085783 184.362579 
L 97.10479 184.260584 
L 97.212498 183.33129 
L 97.225169 183.229295 
L 97.335411 182.549324 
L 97.345548 182.447328 
L 97.455789 181.393373 
L 97.472262 181.291378 
L 97.582504 180.46408 
L 97.611648 180.373417 
L 97.718088 179.784109 
L 97.737095 179.682114 
L 97.84607 178.888814 
L 97.871413 178.786819 
L 97.980387 178.174845 
L 98.000662 178.07285 
L 98.105834 177.404212 
L 98.136246 177.313549 
L 98.243953 176.28226 
L 98.255358 176.180264 
L 98.365599 175.522959 
L 98.389675 175.420964 
L 98.497382 174.718327 
L 98.525259 174.616331 
L 98.634234 174.061022 
L 98.651974 173.970359 
L 98.762215 173.301721 
L 98.776154 173.199726 
L 98.881327 172.463091 
L 98.92441 172.372428 
L 99.034651 171.885116 
L 99.056193 171.78312 
L 99.161366 171.375137 
L 99.193044 171.284475 
L 99.303286 170.491175 
L 99.35017 170.38918 
L 99.457877 169.947199 
L 99.489556 169.845203 
L 99.599798 169.380557 
L 99.625141 169.301227 
L 99.732848 168.67792 
L 99.765794 168.575924 
L 99.874768 167.725961 
L 99.916584 167.623965 
L 100.024291 167.079989 
L 100.059771 166.989326 
L 100.16241 166.536012 
L 100.202958 166.445349 
L 100.309398 165.992036 
L 100.360084 165.89004 
L 100.469059 165.425393 
L 100.486799 165.357396 
L 100.593239 164.892749 
L 100.626185 164.790754 
L 100.736426 164.292109 
L 100.766838 164.190113 
L 100.870743 163.589472 
L 100.899888 163.487477 
L 101.007595 162.830171 
L 101.031671 162.750842 
L 101.138111 162.263529 
L 101.179927 162.161534 
L 101.290168 161.798882 
L 101.343388 161.696887 
L 101.45363 161.334236 
L 101.477706 161.243573 
L 101.585413 160.926253 
L 101.634831 160.824258 
L 101.745073 160.438941 
L 101.785622 160.348278 
L 101.890795 159.928963 
L 101.933878 159.8383 
L 102.037783 159.475649 
L 102.075798 159.373653 
L 102.178436 159.101665 
L 102.205046 159.022335 
L 102.311487 158.637018 
L 102.367241 158.546356 
L 102.474948 158.013712 
L 102.507894 157.934382 
L 102.618135 157.583064 
L 102.657417 157.481068 
L 102.767659 157.118417 
L 102.818344 157.039087 
L 102.924784 156.755766 
L 102.969134 156.665103 
L 103.069239 156.313785 
L 103.105986 156.223122 
L 103.209892 155.962467 
L 103.263112 155.871804 
L 103.373354 155.554484 
L 103.388559 155.452489 
L 103.497534 155.1805 
L 103.543151 155.078505 
L 103.643255 154.738519 
L 103.680002 154.659189 
L 103.775038 154.375868 
L 103.847266 154.273873 
L 103.957507 154.013217 
L 104.022131 153.911222 
L 104.128572 153.571236 
L 104.184326 153.480573 
L 104.2933 153.083924 
L 104.351589 152.981928 
L 104.460563 152.70994 
L 104.521386 152.607944 
L 104.631628 152.335956 
L 104.683581 152.23396 
L 104.792555 151.916641 
L 104.850844 151.814645 
L 104.958551 151.451994 
L 105.018107 151.349998 
L 105.120746 151.089343 
L 105.161294 150.987347 
L 105.271536 150.670028 
L 105.324756 150.568032 
L 105.434997 150.296044 
L 105.484416 150.194048 
L 105.594658 149.797398 
L 105.644076 149.695403 
L 105.754318 149.44608 
L 105.821476 149.344085 
L 105.924115 149.026765 
L 106.019151 148.924769 
L 106.129392 148.618782 
L 106.19275 148.516787 
L 106.29919 148.199467 
L 106.357478 148.097471 
L 106.461384 147.791485 
L 106.531077 147.689489 
L 106.641319 147.428834 
L 106.676799 147.338171 
L 106.784506 147.043517 
L 106.825055 146.941521 
L 106.935296 146.771528 
L 106.963173 146.669533 
L 107.073415 146.465542 
L 107.094956 146.374879 
L 107.205198 146.18222 
L 107.269822 146.080225 
L 107.37753 145.774238 
L 107.400338 145.672242 
L 107.504244 145.366256 
L 107.556197 145.26426 
L 107.663904 144.94694 
L 107.734864 144.844945 
L 107.841304 144.550291 
L 107.879319 144.448295 
L 107.966752 144.198972 
L 108.096 144.10831 
L 108.201173 143.87032 
L 108.263264 143.768324 
L 108.373505 143.496336 
L 108.446999 143.405673 
L 108.555974 143.167683 
L 108.586385 143.065688 
L 108.69536 142.771034 
L 108.777724 142.669038 
L 108.886699 142.385717 
L 108.939919 142.283721 
L 109.04129 142.147727 
L 109.105915 142.057064 
L 109.216156 141.796409 
L 109.278246 141.694413 
L 109.387221 141.456424 
L 109.460715 141.354428 
L 109.567155 141.252432 
L 109.614039 141.16177 
L 109.723014 140.969111 
L 109.786371 140.867116 
L 109.863667 140.697123 
L 109.996717 140.595127 
L 110.10189 140.391136 
L 110.162713 140.300473 
L 110.266619 140.141813 
L 110.362922 140.039818 
L 110.469362 139.903824 
L 110.554261 139.801828 
L 110.653098 139.541173 
L 110.774744 139.439177 
L 110.877382 139.303183 
L 110.948342 139.21252 
L 111.05605 138.985863 
L 111.134613 138.883868 
L 111.239786 138.713875 
L 111.329753 138.611879 
L 111.439994 138.362557 
L 111.524893 138.260561 
L 111.598387 138.090568 
L 111.683286 137.988573 
L 111.789726 137.773249 
L 111.836611 137.671253 
L 111.921509 137.535259 
L 112.022881 137.444596 
L 112.128054 137.297269 
L 112.161 137.195273 
L 112.264905 137.025281 
L 112.326995 136.923285 
L 112.406826 136.798624 
L 112.527204 136.696628 
L 112.632377 136.537968 
L 112.695734 136.435973 
L 112.805976 136.220649 
L 112.903546 136.118653 
L 113.012521 135.993992 
L 113.130365 135.903329 
L 113.216531 135.767335 
L 113.292559 135.665339 
L 113.392664 135.540678 
L 113.497837 135.438682 
L 113.591606 135.314021 
L 113.648627 135.212025 
L 113.7538 135.121363 
L 113.872912 135.019367 
L 113.978085 134.838041 
L 114.061716 134.736046 
L 114.133943 134.55472 
L 114.288535 134.452725 
L 114.394975 134.316731 
L 114.484942 134.214735 
L 114.579978 134.078741 
L 114.678815 133.988078 
L 114.786523 133.772754 
L 114.880291 133.670758 
L 114.987999 133.55743 
L 115.093172 133.466767 
L 115.180605 133.421436 
L 115.332662 133.31944 
L 115.441636 133.217444 
L 115.535405 133.115449 
L 115.617769 133.00212 
L 115.722942 132.900125 
L 115.833184 132.809462 
L 115.930754 132.707466 
L 116.030858 132.537474 
L 116.125894 132.435478 
L 116.205724 132.344815 
L 116.338774 132.24282 
L 116.436345 132.129491 
L 116.574463 132.027496 
L 116.644156 131.948166 
L 116.811419 131.84617 
L 116.919127 131.755507 
L 117.091458 131.653512 
L 117.189028 131.494852 
L 117.294201 131.392856 
L 117.398107 131.313526 
L 117.537493 131.211531 
L 117.597049 131.143534 
L 117.72503 131.041538 
L 117.830203 130.894211 
L 117.912568 130.792215 
L 118.021542 130.69022 
L 118.177401 130.588224 
L 118.277505 130.395566 
L 118.396617 130.29357 
L 118.485317 130.225573 
L 118.604429 130.123577 
L 118.7058 130.010249 
L 118.890803 129.908253 
L 118.985839 129.840256 
L 119.127759 129.738261 
L 119.227864 129.590934 
L 119.373585 129.488938 
L 119.478758 129.386942 
L 119.601671 129.284947 
L 119.689104 129.171618 
L 119.7664 129.069623 
L 119.876641 128.956294 
L 119.962807 128.854299 
L 120.069247 128.672973 
L 120.180756 128.570978 
L 120.283395 128.366986 
L 120.403774 128.264991 
L 120.511481 128.083665 
L 120.579907 127.98167 
L 120.683812 127.868341 
L 120.857411 127.766345 
L 120.957516 127.698348 
L 121.077894 127.596353 
L 121.186869 127.50569 
L 121.304713 127.403694 
L 121.41242 127.245035 
L 121.473243 127.143039 
L 121.572081 127.052376 
L 121.691192 126.961713 
L 121.800167 126.893716 
L 121.879997 126.791721 
L 121.983902 126.633061 
L 122.147364 126.531065 
L 122.256339 126.406404 
L 122.36658 126.304408 
L 122.474287 126.213746 
L 122.532576 126.11175 
L 122.631413 125.998421 
L 122.805012 125.907759 
L 122.907651 125.783097 
L 123.040701 125.681102 
L 123.150942 125.567773 
L 123.275123 125.465778 
L 123.33848 125.397781 
L 123.501941 125.295785 
L 123.58684 125.193789 
L 123.735096 125.091794 
L 123.814926 124.967132 
L 123.950511 124.865137 
L 124.059485 124.706477 
L 124.210275 124.604481 
L 124.307845 124.468487 
L 124.394011 124.366492 
L 124.466238 124.264496 
L 124.595487 124.173833 
L 124.70066 124.015173 
L 124.864122 123.913178 
L 124.954089 123.697854 
L 125.09981 123.595858 
L 125.178373 123.527861 
L 125.369712 123.425865 
L 125.426734 123.380534 
L 125.436871 123.380534 
L 125.57499 123.278538 
L 125.621874 123.233207 
L 125.820816 123.131211 
L 125.88544 123.017883 
L 126.105923 122.915887 
L 126.207295 122.836557 
L 126.463258 122.734562 
L 126.570965 122.655232 
L 126.683741 122.553236 
L 126.781311 122.473906 
L 126.991657 122.371911 
L 127.099364 122.247249 
L 127.237483 122.145254 
L 127.33632 122.08859 
L 127.551735 121.986594 
L 127.651839 121.941263 
L 127.839377 121.839267 
L 127.943282 121.703273 
L 128.038318 121.601277 
L 128.132087 121.476616 
L 128.337364 121.37462 
L 128.419729 121.29529 
L 128.688363 121.193295 
L 128.764392 121.102632 
L 128.953196 121.000636 
L 129.057102 120.921306 
L 129.302928 120.819311 
L 129.389094 120.660651 
L 129.656461 120.558655 
L 129.754032 120.490658 
L 129.978316 120.388663 
L 130.069551 120.343331 
L 130.278629 120.241336 
L 130.382535 120.162006 
L 130.47377 120.06001 
L 130.547264 119.98068 
L 130.672711 119.878685 
L 130.752541 119.833353 
L 130.918537 119.731358 
L 130.96162 119.697359 
L 131.004703 119.697359 
L 131.179569 119.595363 
L 131.265735 119.516034 
L 131.484951 119.414038 
L 131.585055 119.368707 
L 131.787798 119.266711 
L 131.895506 119.187381 
L 132.058967 119.085385 
L 132.166674 118.972057 
L 132.268046 118.870061 
L 132.370685 118.768066 
L 132.572161 118.66607 
L 132.664662 118.632072 
L 133.004257 118.530076 
L 133.090423 118.462079 
L 133.421147 118.360083 
L 133.500977 118.326085 
L 133.692316 118.224089 
L 133.797489 118.156092 
L 134.062322 118.054096 
L 134.159892 117.929435 
L 134.313217 117.827439 
L 134.423459 117.725444 
L 134.699696 117.623448 
L 134.798533 117.578117 
L 134.973399 117.476121 
L 135.015215 117.43079 
L 135.29272 117.328794 
L 135.405495 117.204133 
L 135.653856 117.102137 
L 135.751426 117.045473 
L 136.031465 116.943477 
L 136.101158 116.886813 
L 136.112562 116.886813 
L 136.474965 116.784818 
L 136.582672 116.682822 
L 136.874116 116.580826 
L 136.979289 116.456165 
L 137.179497 116.354169 
L 137.28467 116.297505 
L 137.621731 116.19551 
L 137.709164 116.138845 
L 137.887831 116.03685 
L 137.998073 115.968853 
L 138.384552 115.866857 
L 138.493526 115.832859 
L 138.885074 115.730863 
L 138.98011 115.685532 
L 138.994048 115.685532 
L 141.421897 115.583536 
L 141.435835 115.56087 
L 141.522001 115.56087 
L 142.502771 115.458875 
L 142.61428 115.447542 
L 143.736969 115.345546 
L 143.820601 115.300215 
L 144.245094 115.198219 
L 144.354069 115.141555 
L 146.599449 115.050892 
L 146.599449 115.028226 
L 146.697019 115.028226 
L 147.118978 114.926231 
L 147.182335 114.892232 
L 147.188671 114.892232 
L 148.123823 114.790237 
L 148.311361 114.767571 
L 149.601313 114.665575 
L 149.649465 114.631577 
L 149.667205 114.631577 
L 151.015447 114.529581 
L 151.12949 114.518248 
L 152.489135 114.416253 
L 152.570233 114.359589 
L 152.918697 114.257593 
L 153.002329 114.24626 
L 154.729447 114.144264 
L 154.853627 114.132932 
L 155.716552 114.030936 
L 155.783711 113.985605 
L 155.825526 113.985605 
L 156.190464 113.883609 
L 156.192998 113.860943 
L 157.196577 113.758948 
L 157.232057 113.736282 
L 157.304284 113.736282 
L 158.71715 113.634286 
L 158.827391 113.588955 
L 159.340585 113.486959 
L 159.340585 113.475627 
L 159.443224 113.475627 
L 161.338872 113.373631 
L 161.442777 113.339632 
L 163.414454 113.24897 
L 163.515826 113.180973 
L 163.974532 113.078977 
L 164.03282 113.056311 
L 164.083506 113.056311 
L 164.439574 112.954316 
L 164.53461 112.908984 
L 164.539678 112.908984 
L 164.829854 112.818321 
L 164.917287 112.784323 
L 164.927424 112.784323 
L 165.023727 112.682327 
L 165.095955 112.648329 
L 165.410206 112.546333 
L 165.519181 112.512335 
L 166.009566 112.410339 
L 166.11854 112.37634 
L 166.768585 112.274345 
L 166.768585 112.263012 
L 166.877559 112.263012 
L 168.89612 112.161016 
L 168.897388 112.138351 
L 168.993691 112.138351 
L 170.194943 112.036355 
L 170.336864 112.025022 
L 172.110866 111.923027 
L 172.14001 111.900361 
L 172.21984 111.900361 
L 174.041994 111.798365 
L 174.118022 111.7757 
L 174.46522 111.673704 
L 174.57166 111.639705 
L 175.366159 111.53771 
L 175.392769 111.515044 
L 175.470065 111.515044 
L 178.630323 111.413049 
L 178.710153 111.390383 
L 178.736763 111.390383 
L 179.118174 111.288387 
L 179.21321 111.254389 
L 179.227148 111.254389 
L 179.888598 111.152393 
L 180.002641 111.118395 
L 181.886884 111.016399 
L 181.886884 111.005066 
L 181.970516 111.005066 
L 182.420352 110.90307 
L 182.502716 110.880405 
L 182.529326 110.880405 
L 184.256444 110.778409 
L 184.256444 110.767076 
L 184.365419 110.767076 
L 184.72402 110.665081 
L 184.844399 110.642415 
L 187.20889 110.540419 
L 187.326735 110.517754 
L 188.892925 110.415758 
L 188.947412 110.359094 
L 188.999365 110.359094 
L 191.372727 110.257098 
L 191.462694 110.200434 
L 191.75287 110.098438 
L 191.825097 110.041774 
L 191.85931 110.041774 
L 194.034997 109.939779 
L 194.1313 109.894447 
L 194.444285 109.792452 
L 194.529183 109.724454 
L 195.123474 109.622459 
L 195.23625 109.58846 
L 196.954498 109.486465 
L 197.014053 109.441133 
L 197.041931 109.441133 
L 197.361251 109.339138 
L 197.425875 109.305139 
L 197.448684 109.305139 
L 198.122805 109.203144 
L 198.127873 109.169145 
L 198.230512 109.169145 
L 200.676101 109.067149 
L 200.791411 109.021818 
L 201.575773 108.919822 
L 201.693617 108.897157 
L 202.526131 108.795161 
L 202.860657 108.772495 
L 203.190115 108.6705 
L 203.316829 108.647834 
L 205.090831 108.545838 
L 205.180799 108.489174 
L 205.771288 108.387179 
L 205.870125 108.364513 
L 206.695036 108.262517 
L 206.809079 108.251184 
L 208.617294 108.149189 
L 208.617294 108.137856 
L 208.726269 108.137856 
L 209.197646 108.03586 
L 209.291415 107.990529 
L 209.90598 107.888533 
L 209.930056 107.865868 
L 210.014954 107.865868 
L 210.647259 107.763872 
L 210.752432 107.741206 
L 210.756234 107.741206 
L 213.39823 107.639211 
L 213.490731 107.605212 
L 213.505937 107.605212 
L 214.121769 107.503217 
L 214.121769 107.491884 
L 214.232011 107.491884 
L 216.862602 107.389888 
L 216.982981 107.378555 
L 217.997964 107.27656 
L 218.105671 107.242561 
L 219.002809 107.140566 
L 219.120654 107.129233 
L 222.998115 107.027237 
L 223.11596 107.004571 
L 224.741706 106.902576 
L 224.85955 106.845912 
L 227.531958 106.743916 
L 227.642199 106.732583 
L 229.920525 106.630587 
L 230.032034 106.619255 
L 230.581974 106.517259 
L 230.701086 106.471928 
L 232.701907 106.369932 
L 232.81595 106.335933 
L 233.515413 106.233938 
L 233.592709 106.199939 
L 233.620586 106.199939 
L 237.67925 106.097944 
L 237.728668 106.075278 
L 237.788224 106.075278 
L 238.983141 105.973282 
L 239.09465 105.96195 
L 241.77466 105.859954 
L 241.77466 105.848621 
L 241.883635 105.848621 
L 242.865671 105.746625 
L 242.979714 105.735293 
L 244.531966 105.633297 
L 244.658681 105.621964 
L 248.110382 105.519969 
L 248.120519 105.497303 
L 248.216822 105.497303 
L 249.400335 105.395307 
L 249.467493 105.361309 
L 249.509309 105.361309 
L 252.037262 105.259313 
L 252.117092 105.213982 
L 252.132298 105.213982 
L 253.119403 105.111986 
L 253.232179 105.100653 
L 256.805526 104.998658 
L 256.842274 104.964659 
L 256.915768 104.964659 
L 257.876263 104.862663 
L 258.006779 104.839998 
L 258.544048 104.738002 
L 258.711311 104.726669 
L 259.422179 104.624674 
L 259.531154 104.590675 
L 259.792186 104.48868 
L 259.858077 104.466014 
L 259.90116 104.466014 
L 260.325653 104.364018 
L 260.438429 104.341353 
L 262.559629 104.239357 
L 262.603979 104.216691 
L 262.66987 104.216691 
L 263.701326 104.114696 
L 263.864788 104.09203 
L 265.726223 103.990034 
L 265.838998 103.967369 
L 268.235168 103.865373 
L 268.346677 103.85404 
L 268.701477 103.752045 
L 268.701477 103.740712 
L 268.804116 103.740712 
L 269.247617 103.638716 
L 269.360393 103.61605 
L 271.371351 103.514055 
L 271.371351 103.502722 
L 271.480325 103.502722 
L 272.143042 103.400726 
L 272.25455 103.389393 
L 272.904595 103.298731 
L 273.170696 103.276065 
L 274.657056 103.219401 
L 277.557549 103.117405 
L 277.618372 103.049408 
L 277.667791 103.049408 
L 279.840943 102.947412 
L 279.866286 102.890748 
L 279.939781 102.890748 
L 280.297115 102.788753 
L 280.330061 102.766087 
L 280.383281 102.766087 
L 282.750307 102.664091 
L 282.887158 102.652758 
L 285.600114 102.550763 
L 285.667273 102.516764 
L 285.710356 102.516764 
L 286.253961 102.414769 
L 286.369271 102.369437 
L 286.843183 102.278775 
L 286.843183 102.267442 
L 286.961027 102.210777 
L 290.949998 102.108782 
L 291.207228 102.074783 
L 292.322315 101.972788 
L 292.43129 101.916123 
L 292.836776 101.814128 
L 292.841844 101.791462 
L 292.882393 101.791462 
L 293.604665 101.689467 
L 293.627474 101.666801 
L 293.714907 101.666801 
L 297.455517 101.564805 
L 297.816653 101.406145 
L 297.918025 101.360814 
L 297.925627 101.360814 
L 300.203953 101.258818 
L 300.295187 101.190821 
L 300.485259 101.088826 
L 300.558753 101.020829 
L 300.87554 100.918833 
L 300.87554 100.9075 
L 300.97311 100.9075 
L 303.340135 100.805505 
L 303.44024 100.692176 
L 303.636647 100.59018 
L 303.745621 100.522183 
L 304.085216 100.420188 
L 304.203061 100.363524 
L 304.63389 100.261528 
L 304.671904 100.238862 
L 304.741597 100.238862 
L 305.300408 100.136867 
L 305.467671 100.102868 
L 306.10251 100.023538 
L 306.796905 99.808214 
L 308.786322 99.706218 
L 308.864885 99.638221 
L 309.120848 99.536226 
L 309.231089 99.445563 
L 309.42623 99.343567 
L 309.535204 99.286903 
L 309.90521 99.184908 
L 309.90521 99.173575 
L 310.113022 99.071579 
L 310.211859 98.992249 
L 310.472891 98.890254 
L 310.557789 98.799591 
L 310.669298 98.697595 
L 310.75293 98.663597 
L 311.154614 98.561601 
L 311.25852 98.51627 
L 311.533491 98.414274 
L 311.533491 98.402941 
L 311.618389 98.402941 
L 312.051753 98.300946 
L 312.10624 98.27828 
L 312.125247 98.27828 
L 312.557343 98.176284 
L 312.658715 98.11962 
L 313.991751 98.017624 
L 314.123534 98.006292 
L 315.856987 97.904296 
L 315.959626 97.836299 
L 316.411996 97.734303 
L 316.451278 97.688972 
L 316.509566 97.688972 
L 317.454856 97.586976 
L 317.554961 97.564311 
L 317.565098 97.564311 
L 320.351548 97.462315 
L 320.351548 97.450982 
L 320.449118 97.450982 
L 323.685405 97.348986 
L 323.744961 97.326321 
L 323.765235 97.326321 
L 326.686003 97.224325 
L 326.686003 97.212992 
L 326.796244 97.212992 
L 329.786705 97.110997 
L 329.886809 97.088331 
L 330.759872 96.986335 
L 330.878983 96.952337 
L 331.812869 96.850341 
L 332.028283 96.839008 
L 335.741016 96.737013 
L 335.786633 96.714347 
L 335.844922 96.714347 
L 337.57204 96.612351 
L 337.916703 96.601019 
L 339.97708 96.499023 
L 340.11013 96.48769 
L 344.154855 96.385695 
L 344.154855 96.374362 
L 344.265096 96.374362 
L 344.774488 96.272366 
L 344.855585 96.238368 
L 344.869524 96.238368 
L 345.253469 96.136372 
L 345.253469 96.125039 
L 345.36371 96.125039 
L 345.477753 96.091041 
L 348.992812 95.989045 
L 348.992812 95.977712 
L 349.103053 95.977712 
L 351.458675 95.875716 
L 351.458675 95.864384 
L 351.565115 95.864384 
L 352.762566 95.762388 
L 352.874075 95.751055 
L 356.813627 95.64906 
L 356.866847 95.615061 
L 356.922601 95.615061 
L 358.938628 95.513065 
L 359.048869 95.4904 
L 359.646961 95.388404 
L 359.707784 95.354406 
L 359.743264 95.354406 
L 362.826226 95.25241 
L 362.826226 95.241077 
L 362.936468 95.241077 
L 369.581373 95.139081 
L 369.673875 95.09375 
L 370.397414 94.991754 
L 370.4481 94.946423 
L 370.506388 94.946423 
L 370.996773 94.844427 
L 370.996773 94.833095 
L 371.107015 94.833095 
L 375.658597 94.731099 
L 375.766305 94.708433 
L 378.483062 94.606438 
L 378.556556 94.538441 
L 378.590769 94.538441 
L 379.015263 94.436445 
L 379.125504 94.391114 
L 379.574073 94.289118 
L 379.689383 94.277785 
L 382.018395 94.17579 
L 382.126102 94.164457 
L 385.120364 94.062461 
L 385.235674 94.01713 
L 388.664567 93.915134 
L 388.797617 93.892468 
L 390.861795 93.790473 
L 390.961899 93.733809 
L 390.97077 93.733809 
L 392.101062 93.631813 
L 392.101062 93.62048 
L 392.20877 93.62048 
L 398.31007 93.518484 
L 398.31007 93.507152 
L 398.41651 93.507152 
L 400.208252 93.405156 
L 400.208252 93.393823 
L 400.317226 93.393823 
L 405.212205 93.291828 
L 405.314843 93.269162 
L 405.322446 93.269162 
L 407.812385 93.167166 
L 407.896017 93.133168 
L 407.916291 93.133168 
L 408.592946 93.031172 
L 408.661372 92.997174 
L 408.703187 92.997174 
L 409.263265 92.895178 
L 409.37224 92.883845 
L 411.252682 92.781849 
L 411.323642 92.759184 
L 411.362923 92.759184 
L 412.163759 92.657188 
L 412.272733 92.645855 
L 420.126494 92.54386 
L 420.126494 92.532527 
L 420.216461 92.532527 
L 424.572903 92.430531 
L 424.641329 92.407866 
L 424.678076 92.407866 
L 425.739943 92.30587 
L 425.888199 92.283204 
L 428.065153 92.181209 
L 428.065153 92.169876 
L 428.161456 92.169876 
L 430.442316 92.06788 
L 430.508207 92.045214 
L 430.552557 92.045214 
L 433.96371 91.943219 
L 434.081554 91.931886 
L 435.987339 91.82989 
L 436.021552 91.807225 
L 436.089978 91.807225 
L 439.726682 91.705229 
L 439.726682 91.693896 
L 439.835657 91.693896 
L 440.627622 91.591901 
L 440.746734 91.580568 
L 445.606232 91.478572 
L 445.725344 91.467239 
L 447.543696 91.365244 
L 447.615923 91.331245 
L 447.645067 91.331245 
L 450.023497 91.22925 
L 450.109663 91.206584 
L 450.132472 91.206584 
L 452.759262 91.104588 
L 452.865702 91.081923 
L 455.75099 90.979927 
L 455.75099 90.968594 
L 455.858697 90.968594 
L 462.846998 90.866598 
L 463.158716 90.821267 
L 463.938009 90.719271 
L 464.041915 90.707939 
L 466.98169 90.605943 
L 467.091932 90.583277 
L 469.361387 90.481282 
L 469.465293 90.469949 
L 475.702177 90.367953 
L 475.803549 90.333955 
L 475.812419 90.333955 
L 480.792296 90.231959 
L 480.897469 90.197961 
L 480.902538 90.197961 
L 482.677807 90.095965 
L 482.838734 90.050634 
L 483.842313 89.948638 
L 483.892999 89.914639 
L 487.36244 89.812644 
L 487.622204 89.767312 
L 489.555867 89.665317 
L 489.582477 89.642651 
L 490.494821 89.540655 
L 490.542972 89.51799 
L 490.605062 89.51799 
L 492.992362 89.415994 
L 493.022774 89.393328 
L 493.102604 89.393328 
L 496.141216 89.291333 
L 496.251457 89.28 
L 498.109091 89.28 
L 498.109091 89.28 
" clip-path="url(#pa969328bc2)" style="fill: none; stroke: #0000ff; stroke-width: 2; stroke-linecap: square"/>
   </g>
   <g id="line2d_14">
    <path d="M 92.290909 492.48 
L 92.401151 436.087758 
L 92.412555 432.812565 
L 92.522797 412.00546 
L 92.535468 410.906173 
L 92.644442 399.369336 
L 92.64571 399.369336 
L 92.65458 398.372046 
L 92.764821 391.37968 
L 92.767355 391.311683 
L 92.877597 385.826585 
L 92.878864 385.826585 
L 92.989106 378.573563 
L 92.99164 378.494234 
L 93.101881 372.669151 
L 93.104416 372.601154 
L 93.21339 368.747986 
L 93.219726 368.691322 
L 93.329967 365.472793 
L 93.333769 365.427462 
L 93.438942 362.118271 
L 93.451613 362.061607 
L 93.560588 359.999029 
L 93.564389 359.96503 
L 93.674631 350.683429 
L 93.682234 349.73147 
L 93.792475 339.237254 
L 93.798811 338.1833 
L 93.909052 325.626506 
L 93.938197 321.864001 
L 94.048438 305.941353 
L 94.429849 262.037907 
L 94.436184 261.958577 
L 94.546426 260.054658 
L 94.551495 259.997994 
L 94.661736 254.796218 
L 94.663003 254.796218 
L 94.663003 254.739554 
L 94.773245 248.903138 
L 94.778313 248.801142 
L 94.887288 245.344624 
L 94.894891 245.28796 
L 95.005132 243.599366 
L 95.020338 243.49737 
L 95.13058 241.525455 
L 95.147052 241.423459 
L 95.243355 238.499585 
L 95.24589 238.499585 
L 95.486647 219.24508 
L 95.495517 219.154417 
L 95.604492 217.556485 
L 95.619697 217.465823 
L 95.726137 215.879224 
L 95.748946 215.788561 
L 95.859188 212.468038 
L 95.873126 212.411373 
L 95.873126 212.388708 
L 95.983368 211.176093 
L 95.997306 211.08543 
L 96.107548 209.521498 
L 96.115151 209.476166 
L 96.225392 208.21822 
L 96.230461 208.161556 
L 96.340702 206.846946 
L 96.352107 206.756283 
L 96.462348 205.43034 
L 96.46615 205.35101 
L 96.576391 204.104397 
L 96.583994 204.013734 
L 96.689167 202.631127 
L 96.709441 202.585796 
L 96.819683 201.395847 
L 96.834889 201.305184 
L 96.94513 200.251229 
L 96.96287 200.149234 
L 97.073112 198.993283 
L 97.083249 198.891288 
L 97.193491 197.780669 
L 97.202361 197.678673 
L 97.310068 196.692716 
L 97.332876 196.59072 
L 97.441851 195.638761 
L 97.453255 195.559431 
L 97.563497 194.403481 
L 97.577435 194.312818 
L 97.681341 193.315528 
L 97.70415 193.213532 
L 97.811857 192.4089 
L 97.833398 192.306904 
L 97.94364 191.230284 
L 97.957579 191.128288 
L 98.066553 190.357655 
L 98.080492 190.255659 
L 98.189466 189.428361 
L 98.205939 189.326366 
L 98.314913 188.567065 
L 98.327585 188.476402 
L 98.437826 187.694436 
L 98.453032 187.615106 
L 98.558205 186.844472 
L 98.582281 186.75381 
L 98.692522 186.028508 
L 98.710262 185.926512 
L 98.820504 185.065216 
L 98.854717 184.974553 
L 98.961157 183.977262 
L 98.99537 183.8866 
L 99.105611 183.387954 
L 99.125886 183.285959 
L 99.23486 182.334 
L 99.253867 182.25467 
L 99.361575 181.404706 
L 99.386917 181.302711 
L 99.494625 180.600074 
L 99.517433 180.520744 
L 99.627675 179.874772 
L 99.645415 179.795442 
L 99.755656 179.013476 
L 99.779732 178.945479 
L 99.888707 178.197511 
L 99.911515 178.095515 
L 100.021757 177.415544 
L 100.034428 177.313549 
L 100.142135 176.758239 
L 100.172547 176.656244 
L 100.267583 176.021604 
L 100.296727 175.919609 
L 100.405701 175.194307 
L 100.439914 175.092311 
L 100.550156 174.480337 
L 100.56156 174.378342 
L 100.669267 173.721037 
L 100.704748 173.619041 
L 100.813722 173.029733 
L 100.840332 172.93907 
L 100.949306 172.485756 
L 100.980985 172.383761 
L 101.087425 171.907781 
L 101.112768 171.805786 
L 101.221742 171.182479 
L 101.24962 171.080483 
L 101.358594 170.54784 
L 101.369998 170.46851 
L 101.476438 169.867869 
L 101.494178 169.765873 
L 101.603153 169.187898 
L 101.624694 169.085903 
L 101.727333 168.575924 
L 101.753943 168.485262 
L 101.862917 167.827957 
L 101.87939 167.725961 
L 101.988365 167.136653 
L 102.011173 167.034657 
L 102.121415 166.536012 
L 102.155628 166.434017 
L 102.265869 166.003368 
L 102.292479 165.901373 
L 102.402721 165.425393 
L 102.431865 165.323398 
L 102.542107 164.790754 
L 102.595327 164.688758 
L 102.701767 164.33744 
L 102.747384 164.235444 
L 102.852557 163.680135 
L 102.882969 163.578139 
L 102.985607 163.272152 
L 103.02869 163.170157 
L 103.137665 162.78484 
L 103.182015 162.682844 
L 103.287188 162.399523 
L 103.341675 162.308861 
L 103.443046 162.025539 
L 103.484862 161.923544 
L 103.593837 161.54956 
L 103.607775 161.447564 
L 103.712948 161.062247 
L 103.747161 160.960252 
L 103.853601 160.563602 
L 103.906821 160.461607 
L 104.011994 159.951629 
L 104.034803 159.849633 
L 104.138709 159.566312 
L 104.171654 159.475649 
L 104.280629 159.011002 
L 104.31991 158.909007 
L 104.428885 158.387696 
L 104.489708 158.2857 
L 104.598682 157.877718 
L 104.622758 157.787055 
L 104.724129 157.36774 
L 104.774815 157.265744 
L 104.88379 156.948424 
L 104.921804 156.846429 
L 105.020641 156.631105 
L 105.072594 156.540442 
L 105.1765 156.200456 
L 105.219583 156.109794 
L 105.32729 155.769808 
L 105.358969 155.667813 
L 105.46921 155.373159 
L 105.489485 155.271163 
L 105.59339 155.10117 
L 105.644076 154.999175 
L 105.754318 154.715854 
L 105.812606 154.613858 
L 105.920314 154.205876 
L 105.958328 154.115213 
L 106.067302 153.820559 
L 106.116721 153.741229 
L 106.223161 153.412576 
L 106.270045 153.310581 
L 106.37902 153.038592 
L 106.417034 152.936597 
L 106.527276 152.687274 
L 106.580496 152.585279 
L 106.681867 152.267959 
L 106.76043 152.165963 
L 106.863069 151.859976 
L 106.912488 151.757981 
L 107.015126 151.440661 
L 107.069614 151.338665 
L 107.176054 151.134674 
L 107.210267 151.032679 
L 107.31544 150.817355 
L 107.367392 150.715359 
L 107.477634 150.420705 
L 107.505511 150.318709 
L 107.613218 150.137384 
L 107.656301 150.046721 
L 107.757673 149.729401 
L 107.840037 149.638739 
L 107.941409 149.321419 
L 107.992095 149.219423 
L 108.102336 148.981433 
L 108.123878 148.890771 
L 108.227784 148.743444 
L 108.282271 148.652781 
L 108.388711 148.44879 
L 108.445732 148.346794 
L 108.55344 147.995476 
L 108.601591 147.89348 
L 108.711833 147.576161 
L 108.791663 147.485498 
L 108.898103 147.179511 
L 108.933583 147.077515 
L 109.034954 146.850858 
L 109.110983 146.771528 
L 109.199683 146.49954 
L 109.27191 146.397545 
L 109.382152 146.034893 
L 109.454379 145.932898 
L 109.543079 145.683575 
L 109.635581 145.58158 
L 109.72935 145.456918 
L 109.831988 145.377588 
L 109.935894 145.116933 
L 110.018258 145.014937 
L 110.124699 144.70895 
L 110.167781 144.606955 
L 110.276756 144.414296 
L 110.309702 144.334967 
L 110.418676 144.040313 
L 110.480766 143.938317 
L 110.585939 143.688994 
L 110.699982 143.586999 
L 110.805155 143.383007 
L 110.879917 143.281012 
L 110.982555 143.088353 
L 111.04718 142.986358 
L 111.156154 142.839031 
L 111.253724 142.737035 
L 111.351294 142.55571 
L 111.41972 142.465047 
L 111.529962 142.23839 
L 111.59712 142.136394 
L 111.704828 141.898405 
L 111.740308 141.796409 
L 111.839145 141.581085 
L 111.930379 141.479089 
L 112.035552 141.320429 
L 112.119184 141.218434 
L 112.215487 141.025775 
L 112.304187 140.935113 
L 112.408093 140.731121 
L 112.508197 140.629126 
L 112.600699 140.459133 
L 112.677994 140.357138 
L 112.775565 140.175812 
L 112.812312 140.085149 
L 112.922553 139.892491 
L 112.977041 139.790495 
L 113.073343 139.597837 
L 113.148105 139.507174 
L 113.257079 139.201187 
L 113.321704 139.099192 
L 113.411671 138.951865 
L 113.529515 138.849869 
L 113.63849 138.713875 
L 113.687908 138.611879 
L 113.782944 138.464552 
L 113.855172 138.362557 
L 113.965413 138.158565 
L 114.012297 138.079235 
L 114.102265 137.931908 
L 114.203636 137.829913 
L 114.312611 137.648587 
L 114.398776 137.546592 
L 114.500148 137.399265 
L 114.579978 137.297269 
L 114.686418 137.093278 
L 114.739638 136.991282 
L 114.839743 136.809957 
L 114.967724 136.707961 
L 115.072897 136.537968 
L 115.251565 136.435973 
L 115.361806 136.26598 
L 115.474582 136.163984 
L 115.574686 136.016657 
L 115.635509 135.914662 
L 115.745751 135.778668 
L 115.800238 135.676672 
L 115.905411 135.586009 
L 115.986508 135.484014 
L 116.086613 135.325354 
L 116.174046 135.223358 
L 116.28302 135.0307 
L 116.393262 134.928704 
L 116.493366 134.815376 
L 116.601073 134.71338 
L 116.711315 134.543387 
L 116.783542 134.441392 
L 116.884914 134.316731 
L 117.000224 134.214735 
L 117.109198 134.022077 
L 117.177624 133.920081 
L 117.285331 133.704757 
L 117.347421 133.625427 
L 117.455129 133.455434 
L 117.562836 133.353439 
L 117.641399 133.206112 
L 117.763045 133.104116 
L 117.872019 132.900125 
L 117.993665 132.798129 
L 118.098838 132.673468 
L 118.185004 132.571472 
L 118.295245 132.412812 
L 118.373808 132.310817 
L 118.473913 132.129491 
L 118.541071 132.038828 
L 118.610764 131.868836 
L 118.747616 131.778173 
L 118.833782 131.676177 
L 119.023853 131.574182 
L 119.130293 131.415522 
L 119.308961 131.313526 
L 119.403997 131.166199 
L 119.611808 131.064204 
L 122.081473 130.780883 
L 122.187913 130.622223 
L 122.310826 130.520227 
L 122.413464 130.327569 
L 122.484425 130.225573 
L 122.593399 130.112245 
L 122.696038 130.032915 
L 122.793608 129.930919 
L 122.935528 129.828923 
L 123.045769 129.715595 
L 123.133202 129.624932 
L 123.233307 129.534269 
L 123.309335 129.432274 
L 123.411974 129.341611 
L 123.493071 129.239615 
L 123.598244 129.092288 
L 123.71989 128.990293 
L 123.821262 128.888297 
L 123.91503 128.786302 
L 124.017669 128.706972 
L 124.075958 128.616309 
L 124.184932 128.468982 
L 124.377538 128.366986 
L 124.439628 128.298989 
L 124.708263 128.208326 
L 124.805833 127.993002 
L 124.936349 127.891007 
L 125.044056 127.777678 
L 125.174572 127.675683 
L 125.277211 127.596353 
L 125.458412 127.494357 
L 125.55725 127.381029 
L 125.757458 127.279033 
L 125.843624 127.245035 
L 125.863898 127.245035 
L 126.94604 127.143039 
L 128.151094 127.086375 
L 128.536306 126.984379 
L 128.635143 126.905049 
L 129.126795 126.803054 
L 129.126795 126.791721 
L 129.229434 126.791721 
L 130.9971 126.689725 
L 131.026245 126.667059 
L 131.084533 126.667059 
L 132.469522 126.565064 
L 132.469522 126.553731 
L 132.568359 126.553731 
L 133.194329 126.451735 
L 133.194329 126.440402 
L 133.25135 126.440402 
L 134.381643 126.338407 
L 134.413321 126.315741 
L 134.490617 126.315741 
L 135.747624 126.213746 
L 135.747624 126.202413 
L 135.857866 126.202413 
L 136.810758 126.100417 
L 136.877917 126.066419 
L 136.917199 126.066419 
L 137.273266 125.964423 
L 137.294808 125.919092 
L 137.382241 125.919092 
L 138.958568 125.817096 
L 139.081481 125.79443 
L 139.767006 125.692435 
L 139.878515 125.647103 
L 140.131944 125.545108 
L 140.22698 125.511109 
L 140.520957 125.409113 
L 140.627397 125.307118 
L 140.961923 125.205122 
L 141.078501 125.137125 
L 141.561283 125.03513 
L 142.093483 124.910468 
L 143.114802 124.808473 
L 143.223776 124.785807 
L 144.44657 124.683811 
L 144.57962 124.661146 
L 145.085211 124.570483 
L 145.085211 124.55915 
L 145.201788 124.513819 
L 145.761866 124.411823 
L 145.837895 124.343826 
L 145.986151 124.24183 
L 146.077385 124.105836 
L 146.192695 124.003841 
L 146.30167 123.890512 
L 146.418247 123.788516 
L 146.477803 123.709187 
L 146.698286 123.607191 
L 146.79839 123.459864 
L 146.885823 123.357868 
L 146.99353 123.267206 
L 147.252028 123.16521 
L 147.330591 123.097213 
L 147.336927 123.097213 
L 148.083275 122.995217 
L 148.083275 122.983884 
L 148.192249 122.983884 
L 149.05264 122.881889 
L 149.173019 122.870556 
L 149.852208 122.76856 
L 149.959915 122.677898 
L 150.071424 122.587235 
L 150.171528 122.473906 
L 151.204251 122.383244 
L 152.148274 122.326579 
L 153.376136 122.224584 
L 153.449631 122.099922 
L 153.599154 121.997927 
L 153.642237 121.92993 
L 153.824706 121.827934 
L 153.824706 121.816601 
L 153.851316 121.816601 
L 156.826571 121.635276 
L 156.920339 121.53328 
L 157.055924 121.431285 
L 157.137021 121.351955 
L 157.261201 121.272625 
L 157.362573 121.125298 
L 157.642611 121.023302 
L 157.738914 120.932639 
L 158.141866 120.830644 
L 158.224231 120.785312 
L 159.544595 120.683317 
L 159.588945 120.649318 
L 159.654837 120.649318 
L 160.954927 120.547323 
L 161.057565 120.422661 
L 161.179211 120.320666 
L 161.286919 120.21867 
L 161.422503 120.116674 
L 161.52134 120.037344 
L 161.688603 119.935349 
L 161.786173 119.833353 
L 161.886278 119.731358 
L 161.990184 119.606696 
L 163.333357 119.504701 
L 163.442331 119.493368 
L 165.139037 119.391372 
L 165.223936 119.334708 
L 165.462159 119.232712 
L 165.572401 119.119384 
L 165.649697 119.017388 
L 165.749801 118.98339 
L 165.873981 118.881394 
L 165.975353 118.768066 
L 166.088129 118.66607 
L 166.157821 118.632072 
L 166.412517 118.530076 
L 166.479676 118.462079 
L 166.650741 118.360083 
L 166.747044 118.280753 
L 166.96626 118.178758 
L 167.071433 118.076762 
L 167.233627 117.974766 
L 167.336266 117.906769 
L 167.520002 117.804774 
L 167.620106 117.759442 
L 167.751889 117.657447 
L 167.817781 117.623448 
L 168.123162 117.521453 
L 168.224534 117.453456 
L 168.589471 117.35146 
L 168.678172 117.328794 
L 169.556303 117.226799 
L 169.636133 117.204133 
L 170.087236 117.102137 
L 170.182272 117.068139 
L 170.315322 117.03414 
L 174.344841 116.830149 
L 174.441144 116.716821 
L 174.659093 116.614825 
L 174.768067 116.569494 
L 174.946735 116.467498 
L 175.001222 116.410834 
L 175.215369 116.308838 
L 175.229308 116.27484 
L 175.325611 116.27484 
L 177.389789 116.172844 
L 177.389789 116.161511 
L 177.496229 116.161511 
L 180.404325 116.059515 
L 180.52217 116.03685 
L 181.042966 115.934854 
L 181.135468 115.844191 
L 181.260915 115.753529 
L 181.367355 115.651533 
L 181.559961 115.549537 
L 181.670203 115.470207 
L 181.969249 115.368212 
L 182.078223 115.277549 
L 182.237883 115.175553 
L 182.343056 115.118889 
L 182.558471 115.016894 
L 182.633232 114.971562 
L 182.771351 114.869567 
L 182.881593 114.744905 
L 183.076733 114.64291 
L 183.167967 114.540914 
L 183.41506 114.438918 
L 183.524035 114.370921 
L 183.693832 114.268926 
L 183.791402 114.144264 
L 184.038495 114.042269 
L 184.123394 113.951606 
L 184.284321 113.84961 
L 184.394563 113.724949 
L 184.587169 113.622954 
L 184.696143 113.520958 
L 184.860872 113.418962 
L 184.971114 113.339632 
L 185.142178 113.237637 
L 185.238481 113.16964 
L 185.4653 113.067644 
L 185.503314 113.022313 
L 185.924006 112.920317 
L 186.021576 112.829654 
L 186.173634 112.727659 
L 186.271204 112.670994 
L 186.604463 112.568999 
L 186.702033 112.523667 
L 186.842686 112.421672 
L 186.950393 112.365008 
L 186.95166 112.365008 
L 187.150602 112.263012 
L 187.222829 112.217681 
L 187.473724 112.115685 
L 187.558622 112.070354 
L 187.862737 111.968358 
L 187.966643 111.900361 
L 188.272025 111.798365 
L 188.356923 111.753034 
L 188.591345 111.651038 
L 188.674976 111.560376 
L 188.892925 111.45838 
L 188.987961 111.37905 
L 189.295877 111.277054 
L 189.370639 111.22039 
L 189.707699 111.118395 
L 189.810338 111.06173 
L 190.22216 110.959735 
L 190.329867 110.914403 
L 190.575693 110.812408 
L 190.654256 110.744411 
L 190.949501 110.642415 
L 191.040735 110.597084 
L 191.187724 110.495088 
L 191.257417 110.427091 
L 191.507044 110.325095 
L 191.585607 110.291097 
L 191.955613 110.189101 
L 192.026573 110.121104 
L 192.280002 110.019108 
L 192.376305 109.98511 
L 192.81347 109.883114 
L 192.889499 109.82645 
L 193.362143 109.724454 
L 193.464782 109.66779 
L 193.796774 109.565795 
L 193.899413 109.50913 
L 194.11356 109.407135 
L 194.160444 109.384469 
L 194.180719 109.384469 
L 194.500039 109.282473 
L 194.601411 109.203144 
L 194.906792 109.101148 
L 194.99676 109.044484 
L 195.278066 108.942488 
L 195.354094 108.919822 
L 195.58218 108.817827 
L 195.602455 108.795161 
L 196.040887 108.693165 
L 196.147327 108.636501 
L 196.592094 108.534506 
L 196.668123 108.477841 
L 197.097685 108.375846 
L 197.199056 108.330514 
L 197.642557 108.228519 
L 197.678037 108.19452 
L 198.127873 108.092525 
L 198.192498 108.058526 
L 198.20897 108.058526 
L 198.557435 107.95653 
L 198.663875 107.911199 
L 198.881824 107.809203 
L 198.928708 107.763872 
L 199.40262 107.661876 
L 199.490053 107.616545 
L 199.89554 107.514549 
L 200.000713 107.457885 
L 200.449282 107.35589 
L 200.449282 107.344557 
L 200.520242 107.344557 
L 200.961208 107.242561 
L 201.023298 107.19723 
L 201.291933 107.095234 
L 201.291933 107.083901 
L 201.32868 107.083901 
L 201.876086 106.981906 
L 201.919169 106.913909 
L 202.203009 106.811913 
L 202.306915 106.777914 
L 202.505857 106.675919 
L 202.609763 106.64192 
L 202.91261 106.539925 
L 202.988639 106.494593 
L 203.420735 106.392598 
L 203.473955 106.369932 
L 203.874373 106.267936 
L 203.979546 106.222605 
L 204.586508 106.120609 
L 204.682811 106.086611 
L 205.049016 105.984615 
L 205.132647 105.939284 
L 205.141517 105.939284 
L 205.711732 105.837288 
L 205.762418 105.814623 
L 206.204651 105.712627 
L 206.241398 105.667296 
L 206.579726 105.5653 
L 206.686166 105.508636 
L 207.498406 105.40664 
L 207.599777 105.361309 
L 208.149718 105.259313 
L 208.202938 105.236647 
L 208.61476 105.134652 
L 208.662911 105.100653 
L 208.669247 105.100653 
L 209.219188 104.998658 
L 209.315491 104.964659 
L 209.803341 104.862663 
L 209.908514 104.794666 
L 210.469859 104.692671 
L 210.542086 104.636007 
L 211.024868 104.534011 
L 211.116103 104.48868 
L 211.47217 104.386684 
L 211.546932 104.352685 
L 211.568473 104.352685 
L 212.599929 104.25069 
L 212.689896 104.194026 
L 213.253775 104.09203 
L 213.310797 104.069364 
L 213.955773 103.967369 
L 214.045741 103.922037 
L 214.612154 103.820042 
L 214.612154 103.808709 
L 214.678046 103.808709 
L 215.310351 103.706713 
L 215.383845 103.661382 
L 215.770324 103.559386 
L 215.855223 103.525388 
L 216.713079 103.423392 
L 216.799245 103.389393 
L 216.822054 103.389393 
L 217.39607 103.287398 
L 217.486037 103.230734 
L 218.046115 103.128738 
L 218.131014 103.083407 
L 218.699962 102.981411 
L 218.725305 102.958745 
L 219.071235 102.868083 
L 219.173874 102.77742 
L 219.695937 102.675424 
L 219.782103 102.641426 
L 220.256015 102.53943 
L 220.362455 102.482766 
L 221.080926 102.38077 
L 221.080926 102.369437 
L 222.022414 102.267442 
L 222.114916 102.233443 
L 222.118717 102.233443 
L 222.737084 102.131448 
L 222.762426 102.108782 
L 223.413739 102.006786 
L 223.413739 101.995453 
L 223.498637 101.995453 
L 223.790081 101.893458 
L 223.866109 101.848126 
L 224.365364 101.746131 
L 224.454064 101.712132 
L 225.428498 101.610137 
L 225.460177 101.576138 
L 225.53874 101.576138 
L 226.335773 101.474142 
L 226.420672 101.440144 
L 227.065649 101.338148 
L 227.156883 101.30415 
L 228.356869 101.202154 
L 228.368273 101.179488 
L 229.395927 101.077493 
L 229.395927 101.06616 
L 229.420003 101.06616 
L 230.62379 100.964164 
L 230.682079 100.930166 
L 230.701086 100.930166 
L 231.978367 100.82817 
L 231.982169 100.805505 
L 232.059464 100.805505 
L 232.943931 100.703509 
L 233.054173 100.66951 
L 233.457125 100.567515 
L 233.563565 100.510851 
L 233.566099 100.510851 
L 234.646973 100.408855 
L 234.668515 100.386189 
L 234.72807 100.386189 
L 235.511166 100.284194 
L 235.596064 100.250195 
L 235.62014 100.250195 
L 236.125731 100.148199 
L 236.125731 100.136867 
L 236.200492 100.136867 
L 236.905024 100.034871 
L 237.006396 99.98954 
L 238.366042 99.887544 
L 238.421796 99.864878 
L 239.132664 99.762883 
L 239.197289 99.740217 
L 239.234036 99.740217 
L 240.700122 99.638221 
L 240.80276 99.59289 
L 242.55142 99.490894 
L 242.55142 99.479562 
L 242.659127 99.479562 
L 243.759008 99.377566 
L 243.846441 99.3549 
L 245.192148 99.252905 
L 245.214957 99.230239 
L 246.146308 99.128243 
L 246.146308 99.11691 
L 246.237543 99.11691 
L 247.434994 99.014915 
L 247.500885 98.969583 
L 247.517358 98.969583 
L 248.656521 98.867588 
L 248.656521 98.856255 
L 248.681864 98.856255 
L 249.547324 98.754259 
L 249.547324 98.742927 
L 249.582804 98.742927 
L 251.30612 98.640931 
L 251.407491 98.606932 
L 252.072742 98.504937 
L 252.099352 98.482271 
L 253.742839 98.380275 
L 253.809997 98.346277 
L 255.20639 98.244281 
L 255.240603 98.221616 
L 256.448192 98.11962 
L 256.554632 98.096954 
L 256.558433 98.096954 
L 258.037191 97.994959 
L 258.037191 97.983626 
L 258.127158 97.983626 
L 259.619854 97.88163 
L 259.70602 97.847632 
L 261.21899 97.745636 
L 261.21899 97.734303 
L 261.28995 97.734303 
L 263.42889 97.632308 
L 263.42889 97.620975 
L 263.466904 97.620975 
L 265.044499 97.518979 
L 265.053369 97.496313 
L 265.123062 97.496313 
L 266.035406 97.405651 
L 266.092427 97.348986 
L 266.140579 97.348986 
L 268.377089 97.246991 
L 268.392294 97.224325 
L 270.162495 97.12233 
L 270.168831 97.099664 
L 270.224585 97.099664 
L 271.732487 96.997668 
L 271.754028 96.975003 
L 271.762898 96.975003 
L 272.562466 96.873007 
L 272.657502 96.839008 
L 273.66995 96.737013 
L 273.733308 96.703014 
L 273.758651 96.703014 
L 275.195592 96.601019 
L 275.265285 96.56702 
L 276.688288 96.465024 
L 276.688288 96.453692 
L 276.757981 96.453692 
L 279.266927 96.351696 
L 279.266927 96.340363 
L 279.278331 96.340363 
L 282.918837 96.238368 
L 282.9974 96.193036 
L 283.021476 96.193036 
L 285.226307 96.091041 
L 285.264321 96.068375 
L 285.296 96.068375 
L 287.184045 95.966379 
L 287.220792 95.943714 
L 287.251204 95.943714 
L 288.534821 95.841718 
L 288.631124 95.819052 
L 290.867633 95.717057 
L 290.867633 95.705724 
L 290.892976 95.705724 
L 293.000237 95.603728 
L 293.076266 95.558397 
L 293.086403 95.558397 
L 294.612045 95.456401 
L 294.612045 95.445068 
L 294.700745 95.445068 
L 296.283408 95.343073 
L 296.283408 95.33174 
L 296.380979 95.33174 
L 297.82679 95.229744 
L 297.82679 95.218411 
L 297.863537 95.218411 
L 299.210512 95.116416 
L 299.282739 95.09375 
L 299.286541 95.09375 
L 302.25546 94.991754 
L 302.25546 94.980422 
L 302.301077 94.980422 
L 304.365255 94.878426 
L 304.448887 94.85576 
L 304.459024 94.85576 
L 307.372189 94.753765 
L 307.372189 94.742432 
L 307.397531 94.742432 
L 309.132252 94.640436 
L 309.132252 94.629103 
L 309.229822 94.629103 
L 310.706045 94.527108 
L 310.706045 94.515775 
L 310.807417 94.515775 
L 313.207388 94.413779 
L 313.278348 94.379781 
L 313.292287 94.379781 
L 315.029542 94.277785 
L 315.132181 94.255119 
L 317.722224 94.153124 
L 317.722224 94.141791 
L 319.423998 94.039795 
L 319.423998 94.028463 
L 319.531706 94.028463 
L 321.669378 93.926467 
L 321.669378 93.915134 
L 321.712461 93.915134 
L 324.340518 93.813138 
L 324.340518 93.801806 
L 324.364594 93.801806 
L 326.853266 93.69981 
L 326.896349 93.677144 
L 326.928027 93.677144 
L 330.789016 93.575149 
L 330.789016 93.563816 
L 334.985798 93.46182 
L 334.985798 93.450487 
L 335.063094 93.450487 
L 338.542672 93.348492 
L 338.574351 93.325826 
L 338.602228 93.325826 
L 343.283059 93.22383 
L 343.283059 93.212498 
L 343.321074 93.212498 
L 348.276875 93.110502 
L 348.276875 93.099169 
L 348.346568 93.099169 
L 351.774194 92.997174 
L 351.875565 92.963175 
L 359.869979 92.861179 
L 359.87378 92.838514 
L 359.96248 92.838514 
L 361.74662 92.736518 
L 361.74662 92.725185 
L 361.827717 92.725185 
L 365.445414 92.62319 
L 365.445414 92.600524 
L 365.532847 92.600524 
L 369.523084 92.498528 
L 369.60038 92.475863 
L 371.531508 92.373867 
L 371.532775 92.362534 
L 374.36611 92.260539 
L 374.470016 92.237873 
L 377.687295 92.135877 
L 377.754454 92.113212 
L 377.788667 92.113212 
L 381.146599 92.011216 
L 381.146599 91.999883 
L 381.215025 91.999883 
L 385.391533 91.897887 
L 385.391533 91.886555 
L 385.467562 91.886555 
L 389.086526 91.784559 
L 389.086526 91.773226 
L 389.170157 91.773226 
L 391.516909 91.671231 
L 391.553656 91.648565 
L 391.571396 91.648565 
L 393.382145 91.546569 
L 393.382145 91.535236 
L 393.425228 91.535236 
L 397.046727 91.433241 
L 397.046727 91.421908 
L 397.154434 91.421908 
L 399.873726 91.319912 
L 399.873726 91.308579 
L 399.967494 91.308579 
L 403.30642 91.206584 
L 403.35077 91.183918 
L 403.416661 91.183918 
L 408.224207 91.081923 
L 408.224207 91.07059 
L 408.333181 91.07059 
L 412.476743 90.968594 
L 412.476743 90.957261 
L 419.097572 90.855266 
L 419.097572 90.843933 
L 419.20528 90.843933 
L 426.093476 90.741937 
L 426.161902 90.719271 
L 430.890885 90.617276 
L 430.890885 90.59461 
L 430.951708 90.59461 
L 434.929274 90.492615 
L 434.929274 90.481282 
L 435.000234 90.481282 
L 436.56389 90.379286 
L 436.56389 90.367953 
L 436.632316 90.367953 
L 442.358541 90.265958 
L 442.358541 90.254625 
L 442.451043 90.254625 
L 445.639178 90.152629 
L 445.639178 90.141296 
L 445.749419 90.141296 
L 450.167952 90.039301 
L 450.167952 90.027968 
L 450.276926 90.027968 
L 457.644103 89.925972 
L 457.644103 89.914639 
L 457.688453 89.914639 
L 462.490931 89.812644 
L 462.499801 89.789978 
L 462.574562 89.789978 
L 467.089397 89.687982 
L 467.145152 89.665317 
L 471.358407 89.563321 
L 471.358407 89.551988 
L 471.421764 89.551988 
L 481.238331 89.449993 
L 481.238331 89.43866 
L 486.251154 89.336664 
L 486.251154 89.325331 
L 498.109091 89.28 
L 498.109091 89.28 
" clip-path="url(#pa969328bc2)" style="fill: none; stroke: #ff0000; stroke-width: 2; stroke-linecap: square"/>
   </g>
   <g id="line2d_15">
    <path d="M 92.290909 492.48 
L 498.109091 89.28 
" clip-path="url(#pa969328bc2)" style="fill: none; stroke-dasharray: 7.4,3.2; stroke-dashoffset: 0; stroke: #000000; stroke-width: 2"/>
   </g>
   <g id="patch_3">
    <path d="M 72 512.64 
L 72 69.12 
" style="fill: none; stroke: #000000; stroke-width: 0.8; stroke-linejoin: miter; stroke-linecap: square"/>
   </g>
   <g id="patch_4">
    <path d="M 518.4 512.64 
L 518.4 69.12 
" style="fill: none; stroke: #000000; stroke-width: 0.8; stroke-linejoin: miter; stroke-linecap: square"/>
   </g>
   <g id="patch_5">
    <path d="M 72 512.64 
L 518.4 512.64 
" style="fill: none; stroke: #000000; stroke-width: 0.8; stroke-linejoin: miter; stroke-linecap: square"/>
   </g>
   <g id="patch_6">
    <path d="M 72 69.12 
L 518.4 69.12 
" style="fill: none; stroke: #000000; stroke-width: 0.8; stroke-linejoin: miter; stroke-linecap: square"/>
   </g>
   <g id="text_15">
    <!-- IMG-ABC Augmentation ROC -->
    <g transform="translate(223.2 63.12) scale(0.12 -0.12)">
     <defs>
      <path id="SimHei-49" d="M 1850 125 
L 1275 125 
L 1275 4400 
L 1850 4400 
L 1850 125 
z
" transform="scale(0.015625)"/>
      <path id="SimHei-4d" d="M 2925 125 
L 2425 125 
L 2425 3175 
L 2375 3175 
L 1775 125 
L 1375 125 
L 775 3175 
L 725 3175 
L 725 125 
L 225 125 
L 225 4400 
L 1000 4400 
L 1550 1575 
L 1600 1575 
L 2150 4400 
L 2925 4400 
L 2925 125 
z
" transform="scale(0.015625)"/>
      <path id="SimHei-47" d="M 2850 75 
L 2425 75 
L 2350 425 
Q 2250 275 2037 175 
Q 1825 75 1575 75 
Q 1050 75 637 562 
Q 225 1050 225 2125 
Q 225 3300 600 3875 
Q 975 4450 1625 4450 
Q 2200 4450 2525 4025 
Q 2850 3600 2850 2925 
L 2300 2925 
Q 2300 3450 2125 3712 
Q 1950 3975 1625 3975 
Q 1225 3975 1025 3562 
Q 825 3150 825 2175 
Q 825 1250 1075 900 
Q 1325 550 1650 550 
Q 1975 550 2162 787 
Q 2350 1025 2350 1525 
L 2350 1800 
L 1575 1800 
L 1575 2275 
L 2850 2275 
L 2850 75 
z
" transform="scale(0.015625)"/>
      <path id="SimHei-2d" d="M 2975 2125 
L 125 2125 
L 125 2525 
L 2975 2525 
L 2975 2125 
z
" transform="scale(0.015625)"/>
      <path id="SimHei-41" d="M 3075 125 
L 2475 125 
L 2125 1450 
L 1025 1450 
L 675 125 
L 75 125 
L 1325 4450 
L 1825 4450 
L 3075 125 
z
M 2000 1925 
L 1600 3450 
L 1550 3450 
L 1150 1925 
L 2000 1925 
z
" transform="scale(0.015625)"/>
      <path id="SimHei-42" d="M 2950 1400 
Q 2950 675 2550 400 
Q 2150 125 1525 125 
L 275 125 
L 275 4400 
L 1575 4400 
Q 2200 4400 2512 4075 
Q 2825 3750 2825 3300 
Q 2825 2850 2612 2637 
Q 2400 2425 2175 2350 
Q 2475 2275 2712 2037 
Q 2950 1800 2950 1400 
z
M 2250 3300 
Q 2250 3625 2062 3775 
Q 1875 3925 1600 3925 
L 850 3925 
L 850 2600 
L 1575 2600 
Q 1850 2600 2050 2762 
Q 2250 2925 2250 3300 
z
M 2350 1400 
Q 2350 1800 2087 1962 
Q 1825 2125 1500 2125 
L 850 2125 
L 850 600 
L 1425 600 
Q 1875 600 2112 775 
Q 2350 950 2350 1400 
z
" transform="scale(0.015625)"/>
      <path id="SimHei-43" d="M 2975 1825 
Q 2950 875 2575 475 
Q 2200 75 1675 75 
Q 1075 75 650 562 
Q 225 1050 225 2125 
Q 225 3300 637 3875 
Q 1050 4450 1700 4450 
Q 2250 4450 2612 4037 
Q 2975 3625 2950 2875 
L 2400 2875 
Q 2400 3425 2225 3700 
Q 2050 3975 1700 3975 
Q 1300 3975 1062 3562 
Q 825 3150 825 2175 
Q 825 1275 1062 912 
Q 1300 550 1675 550 
Q 1950 550 2175 812 
Q 2400 1075 2400 1825 
L 2975 1825 
z
" transform="scale(0.015625)"/>
      <path id="SimHei-67" d="M 2975 2500 
Q 2800 2550 2637 2562 
Q 2475 2575 2300 2525 
Q 2375 2450 2425 2337 
Q 2475 2225 2475 2000 
Q 2475 1575 2187 1300 
Q 1900 1025 1475 1025 
Q 1375 1025 1212 1062 
Q 1050 1100 950 1150 
Q 875 1100 850 1050 
Q 825 1000 825 925 
Q 825 800 1000 737 
Q 1175 675 1625 675 
Q 2350 675 2612 475 
Q 2875 275 2875 -25 
Q 2875 -425 2487 -612 
Q 2100 -800 1575 -800 
Q 900 -800 575 -625 
Q 250 -450 250 -150 
Q 250 0 375 150 
Q 500 300 700 400 
Q 550 475 462 587 
Q 375 700 375 875 
Q 375 1025 487 1137 
Q 600 1250 750 1325 
Q 625 1450 550 1625 
Q 475 1800 475 2000 
Q 475 2425 762 2700 
Q 1050 2975 1475 2975 
Q 1700 2975 1862 2912 
Q 2025 2850 2150 2725 
Q 2350 2875 2550 2937 
Q 2750 3000 2975 2975 
L 2975 2500 
z
M 1975 2000 
Q 1975 2250 1850 2400 
Q 1725 2550 1475 2550 
Q 1225 2550 1100 2400 
Q 975 2250 975 2000 
Q 975 1750 1100 1600 
Q 1225 1450 1475 1450 
Q 1725 1450 1850 1600 
Q 1975 1750 1975 2000 
z
M 2400 -75 
Q 2400 25 2287 125 
Q 2175 225 1725 225 
Q 1625 225 1450 237 
Q 1275 250 1050 275 
Q 850 200 775 100 
Q 700 0 700 -100 
Q 700 -250 900 -350 
Q 1100 -450 1600 -450 
Q 2025 -450 2212 -337 
Q 2400 -225 2400 -75 
z
" transform="scale(0.015625)"/>
      <path id="SimHei-6d" d="M 3050 125 
L 2550 125 
L 2550 2150 
Q 2550 2300 2500 2400 
Q 2450 2500 2300 2500 
Q 2125 2500 1975 2312 
Q 1825 2125 1825 1825 
L 1825 125 
L 1325 125 
L 1325 2150 
Q 1325 2300 1275 2400 
Q 1225 2500 1075 2500 
Q 900 2500 750 2312 
Q 600 2125 600 1825 
L 600 125 
L 100 125 
L 100 2925 
L 600 2925 
L 600 2550 
Q 725 2750 900 2862 
Q 1075 2975 1275 2975 
Q 1475 2975 1612 2862 
Q 1750 2750 1800 2550 
Q 1925 2750 2087 2862 
Q 2250 2975 2450 2975 
Q 2750 2975 2900 2812 
Q 3050 2650 3050 2350 
L 3050 125 
z
" transform="scale(0.015625)"/>
      <path id="SimHei-6e" d="M 2800 125 
L 2300 125 
L 2300 1925 
Q 2300 2225 2150 2400 
Q 2000 2575 1750 2575 
Q 1425 2575 1137 2237 
Q 850 1900 850 1400 
L 850 125 
L 350 125 
L 350 2925 
L 850 2925 
L 850 2400 
Q 1050 2675 1287 2825 
Q 1525 2975 1900 2975 
Q 2350 2975 2575 2725 
Q 2800 2475 2800 2100 
L 2800 125 
z
" transform="scale(0.015625)"/>
      <path id="SimHei-4f" d="M 2950 2275 
Q 2950 1100 2587 587 
Q 2225 75 1575 75 
Q 925 75 550 587 
Q 175 1100 175 2275 
Q 175 3450 550 3950 
Q 925 4450 1575 4450 
Q 2225 4450 2587 3950 
Q 2950 3450 2950 2275 
z
M 2350 2275 
Q 2350 3325 2125 3650 
Q 1900 3975 1575 3975 
Q 1250 3975 1012 3650 
Q 775 3325 775 2275 
Q 775 1225 1012 887 
Q 1250 550 1575 550 
Q 1900 550 2125 887 
Q 2350 1225 2350 2275 
z
" transform="scale(0.015625)"/>
     </defs>
     <use xlink:href="#SimHei-49"/>
     <use xlink:href="#SimHei-4d" x="50"/>
     <use xlink:href="#SimHei-47" x="100"/>
     <use xlink:href="#SimHei-2d" x="150"/>
     <use xlink:href="#SimHei-41" x="200"/>
     <use xlink:href="#SimHei-42" x="250"/>
     <use xlink:href="#SimHei-43" x="300"/>
     <use xlink:href="#SimHei-20" x="350"/>
     <use xlink:href="#SimHei-41" x="400"/>
     <use xlink:href="#SimHei-75" x="450"/>
     <use xlink:href="#SimHei-67" x="500"/>
     <use xlink:href="#SimHei-6d" x="550"/>
     <use xlink:href="#SimHei-65" x="600"/>
     <use xlink:href="#SimHei-6e" x="650"/>
     <use xlink:href="#SimHei-74" x="700"/>
     <use xlink:href="#SimHei-61" x="750"/>
     <use xlink:href="#SimHei-74" x="800"/>
     <use xlink:href="#SimHei-69" x="850"/>
     <use xlink:href="#SimHei-6f" x="900"/>
     <use xlink:href="#SimHei-6e" x="950"/>
     <use xlink:href="#SimHei-20" x="1000"/>
     <use xlink:href="#SimHei-52" x="1050"/>
     <use xlink:href="#SimHei-4f" x="1100"/>
     <use xlink:href="#SimHei-43" x="1150"/>
    </g>
   </g>
   <g id="legend_1">
    <g id="patch_7">
     <path d="M 299.4 507.64 
L 511.4 507.64 
Q 513.4 507.64 513.4 505.64 
L 513.4 479.530625 
Q 513.4 477.530625 511.4 477.530625 
L 299.4 477.530625 
Q 297.4 477.530625 297.4 479.530625 
L 297.4 505.64 
Q 297.4 507.64 299.4 507.64 
z
" style="fill: #ffffff; opacity: 0.8; stroke: #cccccc; stroke-linejoin: miter"/>
    </g>
    <g id="line2d_16">
     <path d="M 301.4 485.335312 
L 311.4 485.335312 
L 321.4 485.335312 
" style="fill: none; stroke: #0000ff; stroke-width: 2; stroke-linecap: square"/>
    </g>
    <g id="text_16">
     <!-- LSTM ROC curve (area = 0.960) -->
     <g transform="translate(329.4 488.835312) scale(0.1 -0.1)">
      <defs>
       <path id="SimHei-4c" d="M 2900 125 
L 300 125 
L 300 4400 
L 875 4400 
L 875 600 
L 2900 600 
L 2900 125 
z
" transform="scale(0.015625)"/>
       <path id="SimHei-53" d="M 2900 1325 
Q 2900 750 2537 412 
Q 2175 75 1550 75 
Q 925 75 575 425 
Q 225 775 225 1300 
L 225 1475 
L 800 1475 
L 800 1325 
Q 800 950 1025 750 
Q 1250 550 1550 550 
Q 1950 550 2137 762 
Q 2325 975 2325 1275 
Q 2325 1525 2100 1737 
Q 1875 1950 1450 2125 
Q 850 2350 587 2625 
Q 325 2900 325 3275 
Q 325 3800 687 4125 
Q 1050 4450 1550 4450 
Q 2200 4450 2487 4062 
Q 2775 3675 2775 3225 
L 2200 3225 
Q 2225 3500 2050 3725 
Q 1875 3950 1550 3950 
Q 1250 3950 1075 3787 
Q 900 3625 900 3350 
Q 900 3125 1037 2962 
Q 1175 2800 1750 2575 
Q 2300 2350 2600 2037 
Q 2900 1725 2900 1325 
z
" transform="scale(0.015625)"/>
       <path id="SimHei-63" d="M 2850 1250 
Q 2850 725 2487 400 
Q 2125 75 1575 75 
Q 1025 75 625 462 
Q 225 850 225 1525 
Q 225 2200 625 2587 
Q 1025 2975 1575 2975 
Q 2125 2975 2450 2687 
Q 2775 2400 2775 2000 
L 2225 2000 
Q 2200 2300 2012 2412 
Q 1825 2525 1575 2525 
Q 1275 2525 1025 2287 
Q 775 2050 775 1525 
Q 775 1000 1025 762 
Q 1275 525 1575 525 
Q 1900 525 2100 700 
Q 2300 875 2300 1250 
L 2850 1250 
z
" transform="scale(0.015625)"/>
       <path id="SimHei-28" d="M 2975 -200 
L 2700 -475 
Q 2075 125 1762 775 
Q 1450 1425 1450 2250 
Q 1450 3075 1762 3725 
Q 2075 4375 2700 5000 
L 2975 4725 
Q 2400 4175 2112 3587 
Q 1825 3000 1825 2250 
Q 1825 1500 2112 912 
Q 2400 325 2975 -200 
z
" transform="scale(0.015625)"/>
       <path id="SimHei-3d" d="M 2975 2900 
L 125 2900 
L 125 3300 
L 2975 3300 
L 2975 2900 
z
M 2975 1375 
L 125 1375 
L 125 1775 
L 2975 1775 
L 2975 1375 
z
" transform="scale(0.015625)"/>
       <path id="SimHei-39" d="M 800 75 
Q 1350 1000 1700 1750 
Q 1075 1650 662 1912 
Q 250 2175 162 2625 
Q 75 3075 175 3437 
Q 275 3800 487 4037 
Q 700 4275 1000 4375 
Q 1300 4475 1537 4475 
Q 1775 4475 2025 4375 
Q 2275 4275 2475 4075 
Q 2675 3875 2750 3662 
Q 2825 3450 2825 3112 
Q 2825 2775 2575 2250 
Q 2325 1725 1350 75 
L 800 75 
z
M 662 2875 
Q 700 2550 937 2337 
Q 1175 2125 1450 2150 
Q 1725 2175 1887 2300 
Q 2050 2425 2200 2725 
Q 2300 3100 2250 3362 
Q 2200 3625 1987 3800 
Q 1775 3975 1525 3975 
Q 1375 4000 1137 3900 
Q 900 3800 762 3500 
Q 625 3200 662 2875 
z
" transform="scale(0.015625)"/>
       <path id="SimHei-29" d="M 1675 2250 
Q 1675 1425 1362 775 
Q 1050 125 425 -475 
L 150 -200 
Q 725 325 1012 912 
Q 1300 1500 1300 2250 
Q 1300 3000 1012 3587 
Q 725 4175 150 4725 
L 425 5000 
Q 1050 4375 1362 3725 
Q 1675 3075 1675 2250 
z
" transform="scale(0.015625)"/>
      </defs>
      <use xlink:href="#SimHei-4c"/>
      <use xlink:href="#SimHei-53" x="50"/>
      <use xlink:href="#SimHei-54" x="100"/>
      <use xlink:href="#SimHei-4d" x="150"/>
      <use xlink:href="#SimHei-20" x="200"/>
      <use xlink:href="#SimHei-52" x="250"/>
      <use xlink:href="#SimHei-4f" x="300"/>
      <use xlink:href="#SimHei-43" x="350"/>
      <use xlink:href="#SimHei-20" x="400"/>
      <use xlink:href="#SimHei-63" x="450"/>
      <use xlink:href="#SimHei-75" x="500"/>
      <use xlink:href="#SimHei-72" x="550"/>
      <use xlink:href="#SimHei-76" x="600"/>
      <use xlink:href="#SimHei-65" x="650"/>
      <use xlink:href="#SimHei-20" x="700"/>
      <use xlink:href="#SimHei-28" x="750"/>
      <use xlink:href="#SimHei-61" x="800"/>
      <use xlink:href="#SimHei-72" x="850"/>
      <use xlink:href="#SimHei-65" x="900"/>
      <use xlink:href="#SimHei-61" x="950"/>
      <use xlink:href="#SimHei-20" x="1000"/>
      <use xlink:href="#SimHei-3d" x="1050"/>
      <use xlink:href="#SimHei-20" x="1100"/>
      <use xlink:href="#SimHei-30" x="1150"/>
      <use xlink:href="#SimHei-2e" x="1200"/>
      <use xlink:href="#SimHei-39" x="1250"/>
      <use xlink:href="#SimHei-36" x="1300"/>
      <use xlink:href="#SimHei-30" x="1350"/>
      <use xlink:href="#SimHei-29" x="1400"/>
     </g>
    </g>
    <g id="line2d_17">
     <path d="M 301.4 498.89 
L 311.4 498.89 
L 321.4 498.89 
" style="fill: none; stroke: #ff0000; stroke-width: 2; stroke-linecap: square"/>
    </g>
    <g id="text_17">
     <!-- Transformer ROC curve (area = 0.961) -->
     <g transform="translate(329.4 502.39) scale(0.1 -0.1)">
      <defs>
       <path id="SimHei-66" d="M 2850 3825 
Q 2725 3900 2550 3950 
Q 2375 4000 2100 4000 
Q 1825 4000 1725 3862 
Q 1625 3725 1625 3525 
L 1625 2925 
L 2650 2925 
L 2650 2525 
L 1625 2525 
L 1625 125 
L 1125 125 
L 1125 2525 
L 275 2525 
L 275 2925 
L 1125 2925 
L 1125 3500 
Q 1125 3950 1400 4200 
Q 1675 4450 2125 4450 
Q 2400 4450 2562 4412 
Q 2725 4375 2850 4325 
L 2850 3825 
z
" transform="scale(0.015625)"/>
      </defs>
      <use xlink:href="#SimHei-54"/>
      <use xlink:href="#SimHei-72" x="50"/>
      <use xlink:href="#SimHei-61" x="100"/>
      <use xlink:href="#SimHei-6e" x="150"/>
      <use xlink:href="#SimHei-73" x="200"/>
      <use xlink:href="#SimHei-66" x="250"/>
      <use xlink:href="#SimHei-6f" x="300"/>
      <use xlink:href="#SimHei-72" x="350"/>
      <use xlink:href="#SimHei-6d" x="400"/>
      <use xlink:href="#SimHei-65" x="450"/>
      <use xlink:href="#SimHei-72" x="500"/>
      <use xlink:href="#SimHei-20" x="550"/>
      <use xlink:href="#SimHei-52" x="600"/>
      <use xlink:href="#SimHei-4f" x="650"/>
      <use xlink:href="#SimHei-43" x="700"/>
      <use xlink:href="#SimHei-20" x="750"/>
      <use xlink:href="#SimHei-63" x="800"/>
      <use xlink:href="#SimHei-75" x="850"/>
      <use xlink:href="#SimHei-72" x="900"/>
      <use xlink:href="#SimHei-76" x="950"/>
      <use xlink:href="#SimHei-65" x="1000"/>
      <use xlink:href="#SimHei-20" x="1050"/>
      <use xlink:href="#SimHei-28" x="1100"/>
      <use xlink:href="#SimHei-61" x="1150"/>
      <use xlink:href="#SimHei-72" x="1200"/>
      <use xlink:href="#SimHei-65" x="1250"/>
      <use xlink:href="#SimHei-61" x="1300"/>
      <use xlink:href="#SimHei-20" x="1350"/>
      <use xlink:href="#SimHei-3d" x="1400"/>
      <use xlink:href="#SimHei-20" x="1450"/>
      <use xlink:href="#SimHei-30" x="1500"/>
      <use xlink:href="#SimHei-2e" x="1550"/>
      <use xlink:href="#SimHei-39" x="1600"/>
      <use xlink:href="#SimHei-36" x="1650"/>
      <use xlink:href="#SimHei-31" x="1700"/>
      <use xlink:href="#SimHei-29" x="1750"/>
     </g>
    </g>
   </g>
  </g>
 </g>
 <defs>
  <clipPath id="pa969328bc2">
   <rect x="72" y="69.12" width="446.4" height="443.52"/>
  </clipPath>
 </defs>
</svg>
