<?xml version="1.0" encoding="utf-8" standalone="no"?>
<!DOCTYPE svg PUBLIC "-//W3C//DTD SVG 1.1//EN"
  "http://www.w3.org/Graphics/SVG/1.1/DTD/svg11.dtd">
<svg xmlns:xlink="http://www.w3.org/1999/xlink" width="576pt" height="576pt" viewBox="0 0 576 576" xmlns="http://www.w3.org/2000/svg" version="1.1">
 <metadata>
  <rdf:RDF xmlns:dc="http://purl.org/dc/elements/1.1/" xmlns:cc="http://creativecommons.org/ns#" xmlns:rdf="http://www.w3.org/1999/02/22-rdf-syntax-ns#">
   <cc:Work>
    <dc:type rdf:resource="http://purl.org/dc/dcmitype/StillImage"/>
    <dc:date>2023-05-13T12:09:12.813978</dc:date>
    <dc:format>image/svg+xml</dc:format>
    <dc:creator>
     <cc:Agent>
      <dc:title>Matplotlib v3.7.1, https://matplotlib.org/</dc:title>
     </cc:Agent>
    </dc:creator>
   </cc:Work>
  </rdf:RDF>
 </metadata>
 <defs>
  <style type="text/css">*{stroke-linejoin: round; stroke-linecap: butt}</style>
 </defs>
 <g id="figure_1">
  <g id="patch_1">
   <path d="M 0 576 
L 576 576 
L 576 0 
L 0 0 
z
" style="fill: #ffffff"/>
  </g>
  <g id="axes_1">
   <g id="patch_2">
    <path d="M 72 512.64 
L 518.4 512.64 
L 518.4 69.12 
L 72 69.12 
z
" style="fill: #ffffff"/>
   </g>
   <g id="matplotlib.axis_1">
    <g id="xtick_1">
     <g id="line2d_1">
      <defs>
       <path id="md0c16e5c15" d="M 0 0 
L 0 3.5 
" style="stroke: #000000; stroke-width: 0.8"/>
      </defs>
      <g>
       <use xlink:href="#md0c16e5c15" x="92.290909" y="512.64" style="stroke: #000000; stroke-width: 0.8"/>
      </g>
     </g>
     <g id="text_1">
      <!-- 0.0 -->
      <g transform="translate(84.790909 526.515) scale(0.1 -0.1)">
       <defs>
        <path id="SimHei-30" d="M 225 2537 
Q 250 3200 412 3587 
Q 575 3975 875 4225 
Q 1175 4475 1612 4475 
Q 2050 4475 2375 4112 
Q 2700 3750 2800 3200 
Q 2900 2650 2862 1937 
Q 2825 1225 2612 775 
Q 2400 325 1975 150 
Q 1550 -25 1125 187 
Q 700 400 525 750 
Q 350 1100 275 1487 
Q 200 1875 225 2537 
z
M 750 2687 
Q 675 2000 800 1462 
Q 925 925 1212 700 
Q 1500 475 1800 612 
Q 2100 750 2237 1162 
Q 2375 1575 2375 2062 
Q 2375 2550 2337 2950 
Q 2300 3350 2112 3675 
Q 1925 4000 1612 4012 
Q 1300 4025 1062 3700 
Q 825 3375 750 2687 
z
" transform="scale(0.015625)"/>
        <path id="SimHei-2e" d="M 1075 125 
L 500 125 
L 500 675 
L 1075 675 
L 1075 125 
z
" transform="scale(0.015625)"/>
       </defs>
       <use xlink:href="#SimHei-30"/>
       <use xlink:href="#SimHei-2e" x="50"/>
       <use xlink:href="#SimHei-30" x="100"/>
      </g>
     </g>
    </g>
    <g id="xtick_2">
     <g id="line2d_2">
      <g>
       <use xlink:href="#md0c16e5c15" x="173.454545" y="512.64" style="stroke: #000000; stroke-width: 0.8"/>
      </g>
     </g>
     <g id="text_2">
      <!-- 0.2 -->
      <g transform="translate(165.954545 526.515) scale(0.1 -0.1)">
       <defs>
        <path id="SimHei-32" d="M 300 250 
Q 325 625 650 925 
Q 975 1225 1475 1862 
Q 1975 2500 2125 2850 
Q 2275 3200 2237 3450 
Q 2200 3700 2000 3862 
Q 1800 4025 1537 4000 
Q 1275 3975 1037 3800 
Q 800 3625 675 3275 
L 200 3350 
Q 400 3925 712 4187 
Q 1025 4450 1450 4475 
Q 1700 4500 1900 4462 
Q 2100 4425 2312 4287 
Q 2525 4150 2662 3875 
Q 2800 3600 2762 3212 
Q 2725 2825 2375 2287 
Q 2025 1750 1025 600 
L 2825 600 
L 2825 150 
L 300 150 
L 300 250 
z
" transform="scale(0.015625)"/>
       </defs>
       <use xlink:href="#SimHei-30"/>
       <use xlink:href="#SimHei-2e" x="50"/>
       <use xlink:href="#SimHei-32" x="100"/>
      </g>
     </g>
    </g>
    <g id="xtick_3">
     <g id="line2d_3">
      <g>
       <use xlink:href="#md0c16e5c15" x="254.618182" y="512.64" style="stroke: #000000; stroke-width: 0.8"/>
      </g>
     </g>
     <g id="text_3">
      <!-- 0.4 -->
      <g transform="translate(247.118182 526.515) scale(0.1 -0.1)">
       <defs>
        <path id="SimHei-34" d="M 2000 1100 
L 75 1100 
L 75 1525 
L 2100 4450 
L 2475 4450 
L 2475 1525 
L 3075 1525 
L 3075 1100 
L 2475 1100 
L 2475 150 
L 2000 150 
L 2000 1100 
z
M 2000 1525 
L 2000 3500 
L 600 1525 
L 2000 1525 
z
" transform="scale(0.015625)"/>
       </defs>
       <use xlink:href="#SimHei-30"/>
       <use xlink:href="#SimHei-2e" x="50"/>
       <use xlink:href="#SimHei-34" x="100"/>
      </g>
     </g>
    </g>
    <g id="xtick_4">
     <g id="line2d_4">
      <g>
       <use xlink:href="#md0c16e5c15" x="335.781818" y="512.64" style="stroke: #000000; stroke-width: 0.8"/>
      </g>
     </g>
     <g id="text_4">
      <!-- 0.6 -->
      <g transform="translate(328.281818 526.515) scale(0.1 -0.1)">
       <defs>
        <path id="SimHei-36" d="M 250 1612 
Q 275 1975 387 2225 
Q 500 2475 725 2850 
L 1750 4450 
L 2325 4450 
L 1275 2800 
Q 1950 2975 2350 2750 
Q 2750 2525 2887 2237 
Q 3025 1950 3037 1612 
Q 3050 1275 2937 950 
Q 2825 625 2537 362 
Q 2250 100 1737 75 
Q 1225 50 862 262 
Q 500 475 362 862 
Q 225 1250 250 1612 
z
M 1025 787 
Q 1250 550 1625 525 
Q 2000 500 2250 775 
Q 2500 1050 2500 1575 
Q 2500 2100 2187 2300 
Q 1875 2500 1487 2450 
Q 1100 2400 925 2075 
Q 750 1750 775 1387 
Q 800 1025 1025 787 
z
" transform="scale(0.015625)"/>
       </defs>
       <use xlink:href="#SimHei-30"/>
       <use xlink:href="#SimHei-2e" x="50"/>
       <use xlink:href="#SimHei-36" x="100"/>
      </g>
     </g>
    </g>
    <g id="xtick_5">
     <g id="line2d_5">
      <g>
       <use xlink:href="#md0c16e5c15" x="416.945455" y="512.64" style="stroke: #000000; stroke-width: 0.8"/>
      </g>
     </g>
     <g id="text_5">
      <!-- 0.8 -->
      <g transform="translate(409.445455 526.515) scale(0.1 -0.1)">
       <defs>
        <path id="SimHei-38" d="M 175 1375 
Q 175 1675 325 1962 
Q 475 2250 825 2425 
Q 525 2600 425 2812 
Q 325 3025 312 3300 
Q 300 3575 387 3775 
Q 475 3975 650 4150 
Q 825 4325 1037 4387 
Q 1250 4450 1500 4450 
Q 1750 4450 1950 4400 
Q 2150 4350 2375 4187 
Q 2600 4025 2700 3725 
Q 2800 3425 2687 3025 
Q 2575 2625 2100 2400 
Q 2525 2275 2700 2012 
Q 2875 1750 2875 1375 
Q 2875 1000 2762 775 
Q 2650 550 2512 400 
Q 2375 250 2137 162 
Q 1900 75 1537 75 
Q 1175 75 912 162 
Q 650 250 475 425 
Q 300 600 237 837 
Q 175 1075 175 1375 
z
M 687 1400 
Q 675 1100 787 875 
Q 900 650 1200 587 
Q 1500 525 1825 600 
Q 2150 675 2275 950 
Q 2400 1225 2362 1500 
Q 2325 1775 2050 1962 
Q 1775 2150 1450 2125 
Q 1125 2100 912 1900 
Q 700 1700 687 1400 
z
M 775 3350 
Q 775 3100 950 2875 
Q 1125 2650 1500 2650 
Q 1875 2650 2062 2875 
Q 2250 3100 2237 3412 
Q 2225 3725 2012 3875 
Q 1800 4025 1437 4000 
Q 1075 3975 925 3787 
Q 775 3600 775 3350 
z
" transform="scale(0.015625)"/>
       </defs>
       <use xlink:href="#SimHei-30"/>
       <use xlink:href="#SimHei-2e" x="50"/>
       <use xlink:href="#SimHei-38" x="100"/>
      </g>
     </g>
    </g>
    <g id="xtick_6">
     <g id="line2d_6">
      <g>
       <use xlink:href="#md0c16e5c15" x="498.109091" y="512.64" style="stroke: #000000; stroke-width: 0.8"/>
      </g>
     </g>
     <g id="text_6">
      <!-- 1.0 -->
      <g transform="translate(490.609091 526.515) scale(0.1 -0.1)">
       <defs>
        <path id="SimHei-31" d="M 1400 3600 
Q 1075 3275 575 2975 
L 575 3450 
Q 1200 3875 1600 4450 
L 1900 4450 
L 1900 150 
L 1400 150 
L 1400 3600 
z
" transform="scale(0.015625)"/>
       </defs>
       <use xlink:href="#SimHei-31"/>
       <use xlink:href="#SimHei-2e" x="50"/>
       <use xlink:href="#SimHei-30" x="100"/>
      </g>
     </g>
    </g>
    <g id="text_7">
     <!-- False Positive Rate -->
     <g transform="translate(247.7 538.64) scale(0.1 -0.1)">
      <defs>
       <path id="SimHei-46" d="M 2925 3925 
L 875 3925 
L 875 2525 
L 2425 2525 
L 2425 2050 
L 875 2050 
L 875 125 
L 300 125 
L 300 4400 
L 2925 4400 
L 2925 3925 
z
" transform="scale(0.015625)"/>
       <path id="SimHei-61" d="M 2875 125 
L 2275 125 
Q 2225 175 2200 262 
Q 2175 350 2175 475 
Q 2000 275 1750 175 
Q 1500 75 1225 75 
Q 825 75 550 275 
Q 275 475 275 850 
Q 275 1225 525 1450 
Q 775 1675 1300 1750 
Q 1650 1800 1912 1875 
Q 2175 1950 2175 2075 
Q 2175 2225 2062 2375 
Q 1950 2525 1575 2525 
Q 1275 2525 1137 2412 
Q 1000 2300 950 2100 
L 400 2100 
Q 450 2500 762 2737 
Q 1075 2975 1575 2975 
Q 2125 2975 2400 2725 
Q 2675 2475 2675 2025 
L 2675 650 
Q 2675 500 2725 375 
Q 2775 250 2875 125 
z
M 2175 1050 
L 2175 1550 
Q 2025 1500 1887 1462 
Q 1750 1425 1425 1375 
Q 1050 1325 937 1200 
Q 825 1075 825 900 
Q 825 750 937 637 
Q 1050 525 1275 525 
Q 1500 525 1762 650 
Q 2025 775 2175 1050 
z
" transform="scale(0.015625)"/>
       <path id="SimHei-6c" d="M 1825 125 
L 1325 125 
L 1325 4400 
L 1825 4400 
L 1825 125 
z
" transform="scale(0.015625)"/>
       <path id="SimHei-73" d="M 2750 900 
Q 2750 500 2437 287 
Q 2125 75 1650 75 
Q 1050 75 725 312 
Q 400 550 400 1000 
L 900 1000 
Q 900 700 1112 600 
Q 1325 500 1625 500 
Q 1925 500 2075 612 
Q 2225 725 2225 900 
Q 2225 1025 2100 1150 
Q 1975 1275 1475 1350 
Q 900 1425 687 1637 
Q 475 1850 475 2200 
Q 475 2500 762 2737 
Q 1050 2975 1600 2975 
Q 2100 2975 2387 2750 
Q 2675 2525 2675 2150 
L 2175 2150 
Q 2175 2375 2012 2462 
Q 1850 2550 1600 2550 
Q 1275 2550 1137 2437 
Q 1000 2325 1000 2175 
Q 1000 2000 1125 1900 
Q 1250 1800 1650 1750 
Q 2300 1650 2525 1437 
Q 2750 1225 2750 900 
z
" transform="scale(0.015625)"/>
       <path id="SimHei-65" d="M 2850 1075 
Q 2800 625 2450 350 
Q 2100 75 1625 75 
Q 1025 75 637 462 
Q 250 850 250 1525 
Q 250 2200 637 2587 
Q 1025 2975 1625 2975 
Q 2150 2975 2487 2637 
Q 2825 2300 2825 1525 
L 800 1525 
Q 800 975 1037 750 
Q 1275 525 1625 525 
Q 1900 525 2075 662 
Q 2250 800 2300 1075 
L 2850 1075 
z
M 2250 1925 
Q 2200 2275 2025 2412 
Q 1850 2550 1575 2550 
Q 1325 2550 1125 2412 
Q 925 2275 825 1925 
L 2250 1925 
z
" transform="scale(0.015625)"/>
       <path id="SimHei-20" transform="scale(0.015625)"/>
       <path id="SimHei-50" d="M 2950 3100 
Q 2950 2500 2600 2150 
Q 2250 1800 1625 1800 
L 900 1800 
L 900 125 
L 325 125 
L 325 4400 
L 1625 4400 
Q 2250 4400 2600 4050 
Q 2950 3700 2950 3100 
z
M 2375 3100 
Q 2375 3575 2150 3750 
Q 1925 3925 1475 3925 
L 900 3925 
L 900 2275 
L 1475 2275 
Q 1925 2275 2150 2450 
Q 2375 2625 2375 3100 
z
" transform="scale(0.015625)"/>
       <path id="SimHei-6f" d="M 2925 1525 
Q 2925 875 2525 475 
Q 2125 75 1575 75 
Q 1025 75 625 475 
Q 225 875 225 1525 
Q 225 2175 625 2575 
Q 1025 2975 1575 2975 
Q 2125 2975 2525 2575 
Q 2925 2175 2925 1525 
z
M 2375 1525 
Q 2375 2025 2125 2275 
Q 1875 2525 1575 2525 
Q 1275 2525 1025 2275 
Q 775 2025 775 1525 
Q 775 1025 1025 775 
Q 1275 525 1575 525 
Q 1875 525 2125 775 
Q 2375 1025 2375 1525 
z
" transform="scale(0.015625)"/>
       <path id="SimHei-69" d="M 1800 3725 
L 1300 3725 
L 1300 4375 
L 1800 4375 
L 1800 3725 
z
M 1800 125 
L 1300 125 
L 1300 2925 
L 1800 2925 
L 1800 125 
z
" transform="scale(0.015625)"/>
       <path id="SimHei-74" d="M 2750 200 
Q 2625 150 2462 112 
Q 2300 75 2025 75 
Q 1575 75 1300 325 
Q 1025 575 1025 1025 
L 1025 2525 
L 175 2525 
L 175 2925 
L 1025 2925 
L 1025 3900 
L 1525 3900 
L 1525 2925 
L 2550 2925 
L 2550 2525 
L 1525 2525 
L 1525 1000 
Q 1525 800 1625 662 
Q 1725 525 2000 525 
Q 2275 525 2450 575 
Q 2625 625 2750 700 
L 2750 200 
z
" transform="scale(0.015625)"/>
       <path id="SimHei-76" d="M 2875 2925 
L 1825 75 
L 1275 75 
L 225 2925 
L 750 2925 
L 1525 750 
L 1575 750 
L 2350 2925 
L 2875 2925 
z
" transform="scale(0.015625)"/>
       <path id="SimHei-52" d="M 3000 125 
L 2400 125 
L 1500 1975 
L 850 1975 
L 850 125 
L 275 125 
L 275 4400 
L 1525 4400 
Q 2125 4400 2500 4112 
Q 2875 3825 2875 3175 
Q 2875 2675 2625 2400 
Q 2375 2125 2050 2050 
L 3000 125 
z
M 2300 3175 
Q 2300 3525 2087 3725 
Q 1875 3925 1400 3925 
L 850 3925 
L 850 2450 
L 1550 2450 
Q 1850 2450 2075 2612 
Q 2300 2775 2300 3175 
z
" transform="scale(0.015625)"/>
      </defs>
      <use xlink:href="#SimHei-46"/>
      <use xlink:href="#SimHei-61" x="50"/>
      <use xlink:href="#SimHei-6c" x="100"/>
      <use xlink:href="#SimHei-73" x="150"/>
      <use xlink:href="#SimHei-65" x="200"/>
      <use xlink:href="#SimHei-20" x="250"/>
      <use xlink:href="#SimHei-50" x="300"/>
      <use xlink:href="#SimHei-6f" x="350"/>
      <use xlink:href="#SimHei-73" x="400"/>
      <use xlink:href="#SimHei-69" x="450"/>
      <use xlink:href="#SimHei-74" x="500"/>
      <use xlink:href="#SimHei-69" x="550"/>
      <use xlink:href="#SimHei-76" x="600"/>
      <use xlink:href="#SimHei-65" x="650"/>
      <use xlink:href="#SimHei-20" x="700"/>
      <use xlink:href="#SimHei-52" x="750"/>
      <use xlink:href="#SimHei-61" x="800"/>
      <use xlink:href="#SimHei-74" x="850"/>
      <use xlink:href="#SimHei-65" x="900"/>
     </g>
    </g>
   </g>
   <g id="matplotlib.axis_2">
    <g id="ytick_1">
     <g id="line2d_7">
      <defs>
       <path id="m31a93e19e0" d="M 0 0 
L -3.5 0 
" style="stroke: #000000; stroke-width: 0.8"/>
      </defs>
      <g>
       <use xlink:href="#m31a93e19e0" x="72" y="492.48" style="stroke: #000000; stroke-width: 0.8"/>
      </g>
     </g>
     <g id="text_8">
      <!-- 0.0 -->
      <g transform="translate(50 495.9175) scale(0.1 -0.1)">
       <use xlink:href="#SimHei-30"/>
       <use xlink:href="#SimHei-2e" x="50"/>
       <use xlink:href="#SimHei-30" x="100"/>
      </g>
     </g>
    </g>
    <g id="ytick_2">
     <g id="line2d_8">
      <g>
       <use xlink:href="#m31a93e19e0" x="72" y="411.84" style="stroke: #000000; stroke-width: 0.8"/>
      </g>
     </g>
     <g id="text_9">
      <!-- 0.2 -->
      <g transform="translate(50 415.2775) scale(0.1 -0.1)">
       <use xlink:href="#SimHei-30"/>
       <use xlink:href="#SimHei-2e" x="50"/>
       <use xlink:href="#SimHei-32" x="100"/>
      </g>
     </g>
    </g>
    <g id="ytick_3">
     <g id="line2d_9">
      <g>
       <use xlink:href="#m31a93e19e0" x="72" y="331.2" style="stroke: #000000; stroke-width: 0.8"/>
      </g>
     </g>
     <g id="text_10">
      <!-- 0.4 -->
      <g transform="translate(50 334.6375) scale(0.1 -0.1)">
       <use xlink:href="#SimHei-30"/>
       <use xlink:href="#SimHei-2e" x="50"/>
       <use xlink:href="#SimHei-34" x="100"/>
      </g>
     </g>
    </g>
    <g id="ytick_4">
     <g id="line2d_10">
      <g>
       <use xlink:href="#m31a93e19e0" x="72" y="250.56" style="stroke: #000000; stroke-width: 0.8"/>
      </g>
     </g>
     <g id="text_11">
      <!-- 0.6 -->
      <g transform="translate(50 253.9975) scale(0.1 -0.1)">
       <use xlink:href="#SimHei-30"/>
       <use xlink:href="#SimHei-2e" x="50"/>
       <use xlink:href="#SimHei-36" x="100"/>
      </g>
     </g>
    </g>
    <g id="ytick_5">
     <g id="line2d_11">
      <g>
       <use xlink:href="#m31a93e19e0" x="72" y="169.92" style="stroke: #000000; stroke-width: 0.8"/>
      </g>
     </g>
     <g id="text_12">
      <!-- 0.8 -->
      <g transform="translate(50 173.3575) scale(0.1 -0.1)">
       <use xlink:href="#SimHei-30"/>
       <use xlink:href="#SimHei-2e" x="50"/>
       <use xlink:href="#SimHei-38" x="100"/>
      </g>
     </g>
    </g>
    <g id="ytick_6">
     <g id="line2d_12">
      <g>
       <use xlink:href="#m31a93e19e0" x="72" y="89.28" style="stroke: #000000; stroke-width: 0.8"/>
      </g>
     </g>
     <g id="text_13">
      <!-- 1.0 -->
      <g transform="translate(50 92.7175) scale(0.1 -0.1)">
       <use xlink:href="#SimHei-31"/>
       <use xlink:href="#SimHei-2e" x="50"/>
       <use xlink:href="#SimHei-30" x="100"/>
      </g>
     </g>
    </g>
    <g id="text_14">
     <!-- True Positive Rate -->
     <g transform="translate(44.75 335.88) rotate(-90) scale(0.1 -0.1)">
      <defs>
       <path id="SimHei-54" d="M 2850 3925 
L 1850 3925 
L 1850 125 
L 1275 125 
L 1275 3925 
L 275 3925 
L 275 4400 
L 2850 4400 
L 2850 3925 
z
" transform="scale(0.015625)"/>
       <path id="SimHei-72" d="M 2500 2425 
Q 2025 2500 1700 2287 
Q 1375 2075 1150 1550 
L 1150 125 
L 650 125 
L 650 2925 
L 1150 2925 
L 1150 2200 
Q 1375 2600 1712 2787 
Q 2050 2975 2500 2975 
L 2500 2425 
z
" transform="scale(0.015625)"/>
       <path id="SimHei-75" d="M 2800 125 
L 2300 125 
L 2300 650 
Q 2100 375 1862 225 
Q 1625 75 1250 75 
Q 800 75 575 325 
Q 350 575 350 950 
L 350 2925 
L 850 2925 
L 850 1125 
Q 850 825 1000 650 
Q 1150 475 1400 475 
Q 1725 475 2012 812 
Q 2300 1150 2300 1650 
L 2300 2925 
L 2800 2925 
L 2800 125 
z
" transform="scale(0.015625)"/>
      </defs>
      <use xlink:href="#SimHei-54"/>
      <use xlink:href="#SimHei-72" x="50"/>
      <use xlink:href="#SimHei-75" x="100"/>
      <use xlink:href="#SimHei-65" x="150"/>
      <use xlink:href="#SimHei-20" x="200"/>
      <use xlink:href="#SimHei-50" x="250"/>
      <use xlink:href="#SimHei-6f" x="300"/>
      <use xlink:href="#SimHei-73" x="350"/>
      <use xlink:href="#SimHei-69" x="400"/>
      <use xlink:href="#SimHei-74" x="450"/>
      <use xlink:href="#SimHei-69" x="500"/>
      <use xlink:href="#SimHei-76" x="550"/>
      <use xlink:href="#SimHei-65" x="600"/>
      <use xlink:href="#SimHei-20" x="650"/>
      <use xlink:href="#SimHei-52" x="700"/>
      <use xlink:href="#SimHei-61" x="750"/>
      <use xlink:href="#SimHei-74" x="800"/>
      <use xlink:href="#SimHei-65" x="850"/>
     </g>
    </g>
   </g>
   <g id="line2d_13">
    <path d="M 92.290909 492.48 
L 92.398634 247.255639 
L 92.404971 247.255639 
L 92.512695 211.552692 
L 92.519032 211.552692 
L 92.626757 193.503183 
L 92.633094 193.503183 
L 92.740818 181.734224 
L 92.747155 181.734224 
L 92.842206 175.623418 
L 92.867553 175.623418 
L 92.962605 169.852102 
L 92.994288 169.852102 
L 93.102013 165.778232 
L 93.114687 165.778232 
L 93.222411 159.893752 
L 93.228748 159.893752 
L 93.323799 156.781768 
L 93.34281 156.781768 
L 93.450534 152.764479 
L 93.463208 152.764479 
L 93.570933 150.95387 
L 93.577269 150.95387 
L 93.684994 148.520864 
L 93.691331 148.520864 
L 93.799056 146.314185 
L 93.811729 146.257603 
L 93.913117 144.446994 
L 93.951138 144.390413 
L 94.058863 142.579804 
L 94.065199 142.579804 
L 94.172924 140.712613 
L 94.185598 140.712613 
L 94.286986 139.015167 
L 94.318669 138.958585 
L 94.413721 137.317721 
L 94.458078 137.261139 
L 94.546792 136.412417 
L 94.578476 136.412417 
L 94.679864 135.337367 
L 94.705211 135.280786 
L 94.800262 134.262318 
L 94.838283 134.262318 
L 94.939671 133.470177 
L 95.015712 133.413595 
L 95.123437 132.168802 
L 95.13611 132.168802 
L 95.243835 131.489823 
L 95.262845 131.433242 
L 95.364233 130.810845 
L 95.395917 130.754263 
L 95.490968 129.962122 
L 95.541662 129.90554 
L 95.64305 129.283143 
L 95.668397 129.283143 
L 95.776122 128.547583 
L 95.795132 128.491002 
L 95.890183 128.094931 
L 95.921867 128.094931 
L 96.010582 127.698861 
L 96.061276 127.698861 
L 96.169 127.30279 
L 96.175337 127.30279 
L 96.264052 126.793556 
L 96.314746 126.793556 
L 96.409797 126.227741 
L 96.460491 126.171159 
L 96.568216 125.775088 
L 96.580889 125.775088 
L 96.682277 125.379018 
L 96.707624 125.322436 
L 96.790002 124.869784 
L 96.821686 124.869784 
L 96.929411 124.36055 
L 96.986441 124.303969 
L 97.087829 124.077642 
L 97.16387 124.021061 
L 97.208228 123.794735 
L 97.296942 123.794735 
L 97.315952 123.455246 
L 97.430014 123.455246 
L 97.537739 122.776267 
L 97.575759 122.719686 
L 97.677147 122.380196 
L 97.696157 122.380196 
L 97.791209 121.927544 
L 97.822892 121.870963 
L 97.911607 121.531473 
L 98.019332 121.474892 
L 98.127056 121.191984 
L 98.17775 121.135403 
L 98.209434 120.909077 
L 98.348843 120.909077 
L 98.41221 120.456424 
L 98.519935 120.399843 
L 98.62766 120.230098 
L 98.710037 120.173517 
L 98.817762 119.834028 
L 98.868456 119.777446 
L 98.950834 119.437957 
L 98.995191 119.381375 
L 99.102916 118.985305 
L 99.178957 118.928723 
L 99.223314 118.589234 
L 99.337376 118.532652 
L 99.432427 117.966837 
L 99.464111 117.910255 
L 99.571836 117.514185 
L 99.584509 117.457603 
L 99.64154 117.118114 
L 99.768275 117.061532 
L 99.837979 116.665462 
L 99.958377 116.60888 
L 100.034418 116.439136 
L 100.135806 116.382554 
L 100.237194 116.043065 
L 100.275215 115.986483 
L 100.370266 115.760157 
L 100.43997 115.760157 
L 100.522348 115.47725 
L 100.617399 115.420668 
L 100.67443 115.250923 
L 100.813839 115.194342 
L 100.915227 114.911434 
L 100.965921 114.911434 
L 101.035625 114.515363 
L 101.130676 114.458782 
L 101.232064 114.119293 
L 101.333452 114.062711 
L 101.41583 113.779804 
L 101.510881 113.723222 
L 101.561575 113.610059 
L 101.68831 113.553477 
L 101.777025 113.327151 
L 101.897423 113.27057 
L 101.973464 113.157407 
L 102.049505 113.100825 
L 102.13822 112.874499 
L 102.245944 112.817917 
L 102.353669 112.421847 
L 102.404363 112.365265 
L 102.486741 111.912613 
L 102.537435 111.856031 
L 102.64516 111.686287 
L 102.822589 111.629705 
L 102.89863 111.459961 
L 102.95566 111.403379 
L 103.063385 110.837564 
L 103.126753 110.780982 
L 103.126753 110.724401 
L 103.354876 110.667819 
L 103.456264 110.158585 
L 103.557652 110.102004 
L 103.557652 110.045422 
L 103.773101 109.988841 
L 103.804785 109.875678 
L 103.893499 109.819096 
L 103.975877 109.705933 
L 104.292715 109.649352 
L 104.343409 109.423026 
L 104.451133 109.366444 
L 104.463807 109.253281 
L 104.622226 109.196699 
L 104.634899 109.083536 
L 104.932727 109.083536 
L 105.021441 108.85721 
L 105.059462 108.85721 
L 105.116492 108.630884 
L 105.325605 108.574303 
L 105.43333 108.178232 
L 105.515708 108.12165 
L 105.572738 108.008487 
L 105.6868 107.951906 
L 105.769178 107.72558 
L 105.933933 107.668998 
L 105.946607 107.555835 
L 106.117699 107.499253 
L 106.200077 107.159764 
L 106.339485 107.103183 
L 106.434536 106.820275 
L 106.802068 106.763694 
L 106.852762 106.593949 
L 106.998507 106.537367 
L 107.080885 106.311041 
L 107.270988 106.25446 
L 107.302671 106.141297 
L 107.511784 106.084715 
L 107.511784 106.028134 
L 107.758917 105.971552 
L 107.758917 105.914971 
L 108.050408 105.858389 
L 108.050408 105.801807 
L 108.227837 105.745226 
L 108.246847 105.575481 
L 108.576358 105.5189 
L 108.620715 105.235992 
L 108.798144 105.179411 
L 108.886859 105.009666 
L 109.108645 104.953084 
L 109.108645 104.896503 
L 109.520534 104.839921 
L 109.558554 104.726758 
L 109.894402 104.670177 
L 109.970443 104.500432 
L 110.008464 104.500432 
L 110.078168 104.330688 
L 110.255597 104.274106 
L 110.255597 104.217525 
L 110.559761 104.160943 
L 110.559761 104.104361 
L 110.958976 104.04778 
L 110.958976 103.991198 
L 111.326508 103.934617 
L 111.427896 103.821454 
L 111.839785 103.764872 
L 111.858795 103.651709 
L 112.055234 103.595128 
L 112.080581 103.481965 
L 122.548893 103.425383 
L 122.548893 103.368802 
L 132.865123 103.31222 
L 132.865123 103.255639 
L 140.215754 103.199057 
L 140.215754 103.142475 
L 140.253774 103.142475 
L 143.282741 103.085894 
L 143.289078 103.029312 
L 199.401004 102.972731 
L 199.401004 102.916149 
L 224.671966 102.859568 
L 224.671966 102.802986 
L 224.690976 102.802986 
L 254.213897 102.746405 
L 254.213897 102.689823 
L 260.081728 102.633242 
L 260.081728 102.57666 
L 263.364165 102.520079 
L 263.364165 102.463497 
L 263.623972 102.406916 
L 263.623972 102.350334 
L 267.362655 102.293752 
L 267.362655 102.237171 
L 267.622461 102.180589 
L 267.622461 102.124008 
L 267.679492 102.124008 
L 277.970375 102.067426 
L 277.970375 102.010845 
L 278.046416 102.010845 
L 293.875619 101.954263 
L 293.875619 101.897682 
L 297.158056 101.8411 
L 297.253107 101.784519 
L 311.529806 101.727937 
L 311.529806 101.671356 
L 311.637531 101.671356 
L 317.62576 101.614774 
L 317.62576 101.558193 
L 321.123647 101.501611 
L 321.148994 101.331866 
L 321.377117 101.275285 
L 321.377117 101.218703 
L 328.347542 101.162122 
L 328.398236 100.992377 
L 328.499624 100.935796 
L 328.537645 100.766051 
L 328.746758 100.70947 
L 328.854482 100.539725 
L 328.89884 100.483143 
L 328.968544 100.36998 
L 329.15231 100.313399 
L 329.260034 100.200236 
L 329.348749 100.143654 
L 329.380433 99.917328 
L 329.633903 99.860747 
L 329.735291 99.747583 
L 329.849352 99.691002 
L 329.957077 99.464676 
L 329.988761 99.408094 
L 330.096486 99.181768 
L 330.153516 99.125187 
L 330.191537 99.012024 
L 330.875906 98.955442 
L 330.875906 98.898861 
L 331.078682 98.842279 
L 331.078682 98.785697 
L 333.309218 98.729116 
L 333.397933 98.559371 
L 333.524668 98.50279 
L 333.632392 98.389627 
L 333.778138 98.333045 
L 333.778138 98.276464 
L 333.923883 98.219882 
L 333.94923 98.106719 
L 334.101312 98.050138 
L 334.139332 97.936974 
L 334.658946 97.880393 
L 334.658946 97.823811 
L 338.777834 97.76723 
L 338.777834 97.710648 
L 338.872885 97.710648 
L 341.604025 97.654067 
L 341.692739 97.540904 
L 342.52919 97.484322 
L 342.52919 97.427741 
L 342.636915 97.427741 
L 345.355381 97.371159 
L 345.368054 97.257996 
L 346.077771 97.201415 
L 346.077771 97.088251 
L 346.179159 97.088251 
L 350.05725 97.03167 
L 350.133291 96.918507 
L 354.062076 96.861925 
L 354.062076 96.805344 
L 358.142944 96.748762 
L 358.142944 96.692181 
L 358.199974 96.692181 
L 360.544572 96.635599 
L 360.544572 96.579018 
L 361.450728 96.522436 
L 361.450728 96.465855 
L 362.242821 96.409273 
L 362.242821 96.352692 
L 363.364426 96.29611 
L 363.364426 96.239528 
L 363.465814 96.239528 
L 375.087415 96.182947 
L 375.087415 96.126365 
L 375.169793 96.126365 
L 375.454946 96.069784 
L 375.454946 96.013202 
L 375.923866 95.956621 
L 375.923866 95.900039 
L 380.758807 95.843458 
L 380.765143 95.786876 
L 381.234063 95.730295 
L 381.329114 95.56055 
L 381.474859 95.503969 
L 381.474859 95.447387 
L 388.198152 95.390806 
L 388.198152 95.334224 
L 390.409678 95.277642 
L 390.54275 95.221061 
L 392.057233 95.164479 
L 392.139611 95.051316 
L 392.412091 94.994735 
L 392.412091 94.938153 
L 392.443775 94.938153 
L 393.229532 94.881572 
L 393.229532 94.82499 
L 393.324583 94.82499 
L 394.801046 94.768409 
L 394.801046 94.711827 
L 394.902434 94.711827 
L 395.041842 94.655246 
L 395.117883 94.485501 
L 396.176121 94.428919 
L 396.39157 94.315756 
L 396.473948 94.259175 
L 396.556326 94.08943 
L 396.740092 94.032849 
L 396.740092 93.976267 
L 397.272379 93.919686 
L 397.424461 93.636778 
L 397.456144 93.636778 
L 397.475155 93.467033 
L 401.606716 93.410452 
L 401.606716 93.35387 
L 402.90575 93.297289 
L 402.94377 93.184126 
L 402.988128 93.184126 
L 406.967607 93.127544 
L 407.024638 93.014381 
L 407.303455 92.9578 
L 407.303455 92.901218 
L 407.366822 92.901218 
L 409.280521 92.844637 
L 409.375572 92.674892 
L 409.381909 92.674892 
L 410.345095 92.61831 
L 410.345095 92.561729 
L 410.446483 92.561729 
L 412.037008 92.505147 
L 412.037008 92.448566 
L 412.708703 92.391984 
L 412.708703 92.335403 
L 412.791081 92.335403 
L 417.233143 92.278821 
L 417.233143 92.22224 
L 417.315521 92.22224 
L 417.740083 92.165658 
L 417.740083 92.109077 
L 423.024933 92.052495 
L 423.024933 91.995914 
L 427.606404 91.939332 
L 427.606404 91.88275 
L 427.701455 91.88275 
L 430.610024 91.88275 
L 430.673391 91.713006 
L 434.830299 91.656424 
L 434.830299 91.599843 
L 435.679424 91.543261 
L 435.679424 91.48668 
L 435.755465 91.48668 
L 436.110323 91.430098 
L 436.122997 91.316935 
L 436.173691 91.316935 
L 437.453714 91.260354 
L 437.453714 91.203772 
L 439.310382 91.147191 
L 439.310382 91.090609 
L 443.163126 91.034028 
L 443.163126 90.977446 
L 443.66373 90.920864 
L 443.66373 90.864283 
L 443.733434 90.864283 
L 446.103379 90.807701 
L 446.211104 90.75112 
L 447.396076 90.694538 
L 447.396076 90.637957 
L 447.503801 90.637957 
L 447.877669 90.581375 
L 447.877669 90.524794 
L 447.979057 90.524794 
L 455.925342 90.468212 
L 455.925342 90.411631 
L 459.606994 90.355049 
L 459.606994 90.298468 
L 459.619668 90.298468 
L 462.01496 90.241886 
L 462.135358 90.128723 
L 463.757566 90.072141 
L 463.757566 90.01556 
L 463.865291 90.01556 
L 479.485381 89.958978 
L 479.504391 89.676071 
L 479.694494 89.619489 
L 479.694494 89.506326 
L 484.504087 89.449745 
L 484.504087 89.393163 
L 493.857131 89.336582 
L 493.857131 89.28 
L 498.109091 89.28 
L 498.109091 89.28 
" clip-path="url(#pe3a9d6290b)" style="fill: none; stroke: #0000ff; stroke-width: 2; stroke-linecap: square"/>
   </g>
   <g id="line2d_14">
    <path d="M 92.290909 492.48 
L 92.398634 363.360943 
L 92.404971 363.360943 
L 92.512695 334.843851 
L 92.519032 334.843851 
L 92.626757 311.419096 
L 92.63943 310.683536 
L 92.747155 297.613202 
L 92.753492 297.613202 
L 92.861217 289.069391 
L 92.880227 289.012809 
L 92.987952 277.187269 
L 93.006962 277.130688 
L 93.10835 249.292574 
L 93.121023 249.292574 
L 93.228748 225.584912 
L 93.235085 225.584912 
L 93.34281 220.266248 
L 93.349146 220.266248 
L 93.456871 214.891002 
L 93.672321 212.118507 
L 93.773709 199.557407 
L 93.786382 199.557407 
L 93.881433 195.879607 
L 93.900444 195.879607 
L 94.008169 193.955835 
L 94.014505 193.955835 
L 94.12223 190.221454 
L 94.153914 190.221454 
L 94.255302 188.467426 
L 94.280649 188.467426 
L 94.388374 185.298861 
L 94.39471 185.298861 
L 94.496098 183.318507 
L 94.521445 183.318507 
L 94.622833 182.243458 
L 94.635507 182.243458 
L 94.743232 180.546012 
L 94.749568 180.546012 
L 94.857293 178.961729 
L 94.869967 178.905147 
L 94.971355 177.094538 
L 94.984028 177.094538 
L 95.091753 175.962908 
L 95.104426 175.962908 
L 95.212151 174.435206 
L 95.224825 174.378625 
L 95.326213 172.681179 
L 95.338886 172.681179 
L 95.446611 170.87057 
L 95.452948 170.87057 
L 95.560672 169.116542 
L 95.592356 169.059961 
L 95.700081 167.023026 
L 95.757112 166.966444 
L 95.864836 166.004558 
L 95.871173 166.004558 
L 95.978898 164.420275 
L 95.985235 164.420275 
L 96.092959 163.1189 
L 96.11197 163.062318 
L 96.219694 161.534617 
L 96.226031 161.534617 
L 96.333756 160.402986 
L 96.352766 160.346405 
L 96.460491 158.931866 
L 96.523858 158.875285 
L 96.631583 158.196306 
L 96.663267 158.196306 
L 96.764655 157.291002 
L 96.790002 157.23442 
L 96.885053 156.046208 
L 96.929411 155.989627 
L 97.018125 155.084322 
L 97.068819 155.084322 
L 97.14486 154.575088 
L 97.201891 154.518507 
L 97.296942 153.330295 
L 97.347636 153.273713 
L 97.442687 152.198664 
L 97.468034 152.142083 
L 97.556749 151.519686 
L 97.588433 151.463104 
L 97.683484 150.388055 
L 97.727841 150.331473 
L 97.810219 149.709077 
L 97.88626 149.652495 
L 97.955964 149.08668 
L 98.000321 149.08668 
L 98.101709 148.237957 
L 98.171414 148.181375 
L 98.279138 147.445815 
L 98.291812 147.389234 
L 98.386863 146.823418 
L 98.41221 146.823418 
L 98.494588 146.14444 
L 98.545282 146.087859 
L 98.602313 145.861532 
L 98.68469 145.804951 
L 98.773405 144.67332 
L 98.798752 144.67332 
L 98.90014 144.050923 
L 98.931824 143.994342 
L 99.033212 143.371945 
L 99.083906 143.315363 
L 99.19163 141.844244 
L 99.204304 141.844244 
L 99.312029 140.825776 
L 99.362723 140.825776 
L 99.470448 140.146798 
L 99.495795 140.090216 
L 99.590846 139.580982 
L 99.647877 139.524401 
L 99.704907 139.071749 
L 99.768275 139.015167 
L 99.869663 138.449352 
L 99.93303 138.39277 
L 100.028082 137.713792 
L 100.053429 137.65721 
L 100.161153 136.92165 
L 100.230858 136.865069 
L 100.338582 136.299253 
L 100.43997 136.242672 
L 100.535022 135.563694 
L 100.566705 135.563694 
L 100.67443 134.714971 
L 100.687104 134.714971 
L 100.794828 134.092574 
L 100.864533 134.035992 
L 100.972257 133.243851 
L 100.991268 133.243851 
L 101.079982 132.678035 
L 101.124339 132.621454 
L 101.206717 131.999057 
L 101.308105 131.942475 
L 101.403156 131.37666 
L 101.498208 131.320079 
L 101.586922 131.093752 
L 101.618606 131.093752 
L 101.726331 130.6411 
L 101.739004 130.584519 
L 101.834055 130.245029 
L 101.90376 130.188448 
L 101.998811 129.90554 
L 102.036832 129.848959 
L 102.13822 129.50947 
L 102.163567 129.452888 
L 102.264955 128.830491 
L 102.283965 128.830491 
L 102.372679 128.377839 
L 102.442384 128.321257 
L 102.505751 128.094931 
L 102.626149 128.094931 
L 102.733874 127.698861 
L 102.752884 127.698861 
L 102.809915 127.30279 
L 102.885956 127.30279 
L 102.993681 126.736974 
L 103.006354 126.736974 
L 103.101406 126.340904 
L 103.164773 126.284322 
L 103.272498 126.057996 
L 103.291508 126.001415 
L 103.380223 125.775088 
L 103.437253 125.775088 
L 103.500621 125.435599 
L 103.557652 125.435599 
L 103.665376 124.926365 
L 103.684387 124.869784 
L 103.785775 124.36055 
L 103.925183 124.303969 
L 104.026571 124.077642 
L 104.064592 124.021061 
L 104.127959 123.62499 
L 104.229347 123.568409 
L 104.318062 123.398664 
L 104.381429 123.342083 
L 104.482817 123.059175 
L 104.520838 123.002593 
L 104.622226 122.549941 
L 104.729951 122.49336 
L 104.761634 122.210452 
L 105.046788 122.15387 
L 105.154513 121.870963 
L 105.236891 121.814381 
L 105.300258 121.588055 
L 105.382636 121.531473 
L 105.484024 121.135403 
L 105.547391 121.078821 
L 105.648779 120.852495 
L 105.6868 120.795914 
L 105.743831 120.68275 
L 105.800861 120.68275 
L 105.845219 120.456424 
L 105.927596 120.399843 
L 105.97829 120.230098 
L 106.098689 120.173517 
L 106.098689 120.116935 
L 106.326812 120.060354 
L 106.383842 119.947191 
L 106.586618 119.890609 
L 106.611965 119.777446 
L 106.789394 119.720864 
L 106.890782 119.55112 
L 106.979497 119.494538 
L 107.036528 119.155049 
L 107.220294 119.098468 
L 107.289998 118.81556 
L 110.566098 118.758978 
L 110.654812 118.532652 
L 110.825905 118.476071 
L 110.857588 118.362908 
L 110.99066 118.306326 
L 111.054028 118.023418 
L 111.142742 117.966837 
L 111.218783 117.740511 
L 111.358192 117.683929 
L 111.427896 117.514185 
L 111.548294 117.457603 
L 111.643345 117.118114 
L 111.795427 117.061532 
L 111.808101 116.948369 
L 111.96652 116.891788 
L 112.048897 116.722043 
L 112.150285 116.665462 
L 112.213653 116.495717 
L 112.397419 116.439136 
L 112.454449 116.269391 
L 116.142438 116.212809 
L 116.180459 116.043065 
L 120.895001 115.986483 
L 120.895001 115.929902 
L 120.933022 115.929902 
L 125.045573 115.87332 
L 125.102604 115.646994 
L 125.349737 115.590413 
L 125.425778 115.47725 
L 125.451125 115.47725 
L 125.603207 115.420668 
L 125.679248 115.194342 
L 125.869351 115.13776 
L 125.907371 114.968016 
L 129.722095 114.911434 
L 129.722095 114.798271 
L 129.975565 114.74169 
L 130.007249 114.628527 
L 130.076953 114.628527 
L 132.896807 114.571945 
L 132.966511 114.345619 
L 135.982804 114.289037 
L 136.058845 114.062711 
L 136.12855 114.00613 
L 136.229938 113.779804 
L 136.261621 113.723222 
L 136.261621 113.553477 
L 136.426377 113.496896 
L 136.534102 113.27057 
L 136.61648 113.213988 
L 136.648163 113.044244 
L 139.993968 112.987662 
L 140.082682 112.53501 
L 140.133376 112.478428 
L 140.16506 112.252102 
L 140.190407 112.252102 
L 141.597165 112.195521 
L 142.509658 111.79945 
L 142.522331 111.629705 
L 142.566688 111.629705 
L 144.885939 111.459961 
L 144.974654 111.290216 
L 145.17743 111.233635 
L 145.17743 111.120472 
L 145.97586 111.06389 
L 145.97586 111.007308 
L 148.947796 110.950727 
L 149.0175 110.780982 
L 149.21394 110.724401 
L 149.25196 110.611238 
L 149.372358 110.554656 
L 149.429389 110.441493 
L 149.587808 110.384912 
L 149.632165 110.271749 
L 149.796921 110.215167 
L 149.796921 110.158585 
L 149.860288 110.158585 
L 150.474953 110.102004 
L 150.512974 109.932259 
L 150.563668 109.932259 
L 150.633372 109.932259 
L 150.633372 109.875678 
L 150.747433 109.819096 
L 151.22269 109.762515 
L 151.22269 109.705933 
L 151.53319 109.649352 
L 151.571211 109.479607 
L 151.716956 109.423026 
L 151.824681 109.196699 
L 152.00211 109.140118 
L 152.052804 108.913792 
L 152.23657 108.85721 
L 152.293601 108.630884 
L 152.496377 108.574303 
L 152.572418 108.291395 
L 152.635785 108.291395 
L 152.7245 108.12165 
L 152.984306 108.065069 
L 153.085694 107.838743 
L 153.23144 107.782161 
L 153.244113 107.612417 
L 154.296014 107.555835 
L 154.391065 107.499253 
L 155.335241 106.424204 
L 158.30084 106.367623 
L 158.395891 106.197878 
L 159.365414 106.141297 
L 159.365414 106.084715 
L 159.409771 106.084715 
L 165.695828 106.084715 
L 165.771869 105.914971 
L 165.860584 105.858389 
L 165.930288 105.688644 
L 166.107717 105.632063 
L 166.215442 105.405737 
L 166.253462 105.349155 
L 166.272472 105.179411 
L 166.437228 105.179411 
L 166.449901 105.009666 
L 166.766739 104.953084 
L 166.836443 104.839921 
L 167.140607 104.78334 
L 167.235658 104.670177 
L 167.710915 104.613595 
L 167.717251 104.500432 
L 168.053099 104.443851 
L 168.135477 104.330688 
L 168.38261 104.274106 
L 168.490335 104.104361 
L 168.61707 104.04778 
L 168.724795 103.934617 
L 168.819846 103.878035 
L 168.88955 103.764872 
L 169.345796 103.708291 
L 169.447184 103.595128 
L 169.567583 103.538546 
L 169.624613 103.425383 
L 169.890757 103.368802 
L 169.890757 103.31222 
L 170.442054 103.255639 
L 170.442054 103.199057 
L 170.670177 103.142475 
L 170.765229 103.029312 
L 171.018699 102.972731 
L 171.11375 102.746405 
L 171.506628 102.689823 
L 171.557322 102.463497 
L 171.747425 102.406916 
L 171.848813 102.237171 
L 171.969211 102.180589 
L 172.026242 102.010845 
L 172.780315 101.954263 
L 172.780315 101.897682 
L 173.17953 101.8411 
L 173.198541 101.727937 
L 173.61043 101.671356 
L 173.61043 101.614774 
L 174.11737 101.558193 
L 174.218758 101.388448 
L 174.503911 101.331866 
L 174.611636 101.162122 
L 175.334026 101.10554 
L 175.372046 100.992377 
L 175.543138 100.935796 
L 175.644526 100.766051 
L 175.802945 100.70947 
L 175.878986 100.539725 
L 176.918213 100.483143 
L 176.918213 100.36998 
L 177.273071 100.313399 
L 177.273071 100.256817 
L 178.255268 100.200236 
L 178.255268 100.143654 
L 178.673493 100.087073 
L 178.705177 99.97391 
L 179.643016 99.917328 
L 179.643016 99.860747 
L 180.143619 99.804165 
L 180.143619 99.747583 
L 181.271561 99.691002 
L 181.271561 99.63442 
L 181.753154 99.577839 
L 181.753154 99.521257 
L 182.108012 99.464676 
L 182.108012 99.408094 
L 182.469207 99.351513 
L 182.469207 99.294931 
L 182.760697 99.23835 
L 182.798718 99.125187 
L 183.039514 99.068605 
L 183.134566 98.955442 
L 183.977353 98.898861 
L 183.977353 98.842279 
L 184.167456 98.785697 
L 184.186466 98.672534 
L 184.427263 98.672534 
L 184.427263 98.559371 
L 185.003907 98.50279 
L 185.003907 98.446208 
L 185.339755 98.389627 
L 185.339755 98.333045 
L 186.125512 98.276464 
L 186.125512 98.219882 
L 186.708493 98.163301 
L 186.708493 98.106719 
L 188.432089 98.050138 
L 188.432089 97.993556 
L 189.167152 97.936974 
L 189.167152 97.880393 
L 189.553694 97.823811 
L 189.553694 97.76723 
L 189.895879 97.710648 
L 189.895879 97.654067 
L 190.314104 97.597485 
L 190.314104 97.540904 
L 191.524423 97.484322 
L 191.524423 97.427741 
L 192.101068 97.371159 
L 192.101068 97.314578 
L 193.507826 97.257996 
L 193.507826 97.201415 
L 194.363288 97.144833 
L 194.363288 97.088251 
L 194.756166 97.03167 
L 194.756166 96.975088 
L 195.053994 96.918507 
L 195.053994 96.861925 
L 195.598954 96.805344 
L 195.598954 96.748762 
L 198.818023 96.692181 
L 198.900401 96.579018 
L 199.768536 96.522436 
L 199.768536 96.465855 
L 200.421221 96.409273 
L 200.421221 96.352692 
L 200.446568 96.352692 
L 202.753146 96.29611 
L 202.810176 96.182947 
L 203.374147 96.126365 
L 203.374147 96.069784 
L 206.580543 96.013202 
L 206.599553 95.900039 
L 207.030452 95.843458 
L 207.030452 95.786876 
L 208.90613 95.730295 
L 208.950488 95.617132 
L 211.238055 95.56055 
L 211.238055 95.503969 
L 213.107396 95.447387 
L 213.113733 95.334224 
L 216.440527 95.277642 
L 216.440527 95.221061 
L 218.734431 95.164479 
L 218.734431 95.107898 
L 222.24499 95.051316 
L 222.24499 94.994735 
L 225.388019 94.938153 
L 225.388019 94.881572 
L 228.309261 94.82499 
L 228.309261 94.768409 
L 229.22809 94.711827 
L 229.22809 94.655246 
L 230.229296 94.598664 
L 230.229296 94.542083 
L 231.642391 94.485501 
L 231.642391 94.428919 
L 233.701835 94.372338 
L 233.701835 94.315756 
L 234.031346 94.259175 
L 234.08204 94.146012 
L 235.970392 94.08943 
L 235.970392 94.032849 
L 247.820116 93.976267 
L 247.820116 93.919686 
L 249.340936 93.863104 
L 249.340936 93.806523 
L 254.213897 93.749941 
L 254.213897 93.69336 
L 259.562115 93.636778 
L 259.562115 93.580196 
L 259.663503 93.580196 
L 264.770924 93.523615 
L 264.770924 93.467033 
L 267.191562 93.410452 
L 267.191562 93.35387 
L 267.29295 93.35387 
L 272.482749 93.297289 
L 272.482749 93.240707 
L 280.118534 93.184126 
L 280.118534 93.127544 
L 293.647496 93.070963 
L 293.647496 93.014381 
L 296.353289 93.014381 
L 296.353289 92.901218 
L 296.372299 92.901218 
L 307.917858 92.844637 
L 307.917858 92.788055 
L 315.661368 92.731473 
L 315.661368 92.674892 
L 332.453757 92.61831 
L 332.453757 92.561729 
L 366.811619 92.505147 
L 366.811619 92.448566 
L 391.258802 92.391984 
L 391.258802 92.335403 
L 396.182458 92.278821 
L 396.182458 92.22224 
L 407.632966 92.165658 
L 407.632966 92.109077 
L 408.95101 92.052495 
L 408.95101 91.995914 
L 418.931392 91.939332 
L 418.931392 91.88275 
L 425.071704 91.826169 
L 425.071704 91.769587 
L 430.457942 91.713006 
L 430.457942 91.656424 
L 436.300426 91.599843 
L 436.300426 91.543261 
L 442.383706 91.48668 
L 442.383706 91.430098 
L 449.880082 91.373517 
L 449.880082 91.316935 
L 453.954613 91.260354 
L 453.954613 91.203772 
L 459.879475 91.147191 
L 459.879475 91.090609 
L 461.241876 91.034028 
L 461.241876 90.977446 
L 464.904518 90.920864 
L 464.904518 90.864283 
L 466.05147 90.807701 
L 466.05147 90.75112 
L 475.087676 90.694538 
L 475.087676 90.637957 
L 477.039395 90.581375 
L 477.039395 90.524794 
L 478.858043 90.468212 
L 478.915073 90.355049 
L 479.403003 90.298468 
L 479.460034 90.185305 
L 480.549955 90.128723 
L 480.549955 90.072141 
L 480.625996 90.072141 
L 481.823642 90.01556 
L 481.823642 89.958978 
L 482.368602 89.902397 
L 482.368602 89.845815 
L 482.546031 89.845815 
L 482.647419 89.676071 
L 482.869206 89.619489 
L 482.869206 89.562908 
L 484.656169 89.506326 
L 484.656169 89.449745 
L 496.924119 89.393163 
L 496.924119 89.336582 
L 498.109091 89.28 
L 498.109091 89.28 
" clip-path="url(#pe3a9d6290b)" style="fill: none; stroke: #ff0000; stroke-width: 2; stroke-linecap: square"/>
   </g>
   <g id="line2d_15">
    <path d="M 92.290909 492.48 
L 498.109091 89.28 
" clip-path="url(#pe3a9d6290b)" style="fill: none; stroke-dasharray: 7.4,3.2; stroke-dashoffset: 0; stroke: #000000; stroke-width: 2"/>
   </g>
   <g id="patch_3">
    <path d="M 72 512.64 
L 72 69.12 
" style="fill: none; stroke: #000000; stroke-width: 0.8; stroke-linejoin: miter; stroke-linecap: square"/>
   </g>
   <g id="patch_4">
    <path d="M 518.4 512.64 
L 518.4 69.12 
" style="fill: none; stroke: #000000; stroke-width: 0.8; stroke-linejoin: miter; stroke-linecap: square"/>
   </g>
   <g id="patch_5">
    <path d="M 72 512.64 
L 518.4 512.64 
" style="fill: none; stroke: #000000; stroke-width: 0.8; stroke-linejoin: miter; stroke-linecap: square"/>
   </g>
   <g id="patch_6">
    <path d="M 72 69.12 
L 518.4 69.12 
" style="fill: none; stroke: #000000; stroke-width: 0.8; stroke-linejoin: miter; stroke-linecap: square"/>
   </g>
   <g id="text_15">
    <!-- IMG-ABC Origin ROC -->
    <g transform="translate(241.2 63.12) scale(0.12 -0.12)">
     <defs>
      <path id="SimHei-49" d="M 1850 125 
L 1275 125 
L 1275 4400 
L 1850 4400 
L 1850 125 
z
" transform="scale(0.015625)"/>
      <path id="SimHei-4d" d="M 2925 125 
L 2425 125 
L 2425 3175 
L 2375 3175 
L 1775 125 
L 1375 125 
L 775 3175 
L 725 3175 
L 725 125 
L 225 125 
L 225 4400 
L 1000 4400 
L 1550 1575 
L 1600 1575 
L 2150 4400 
L 2925 4400 
L 2925 125 
z
" transform="scale(0.015625)"/>
      <path id="SimHei-47" d="M 2850 75 
L 2425 75 
L 2350 425 
Q 2250 275 2037 175 
Q 1825 75 1575 75 
Q 1050 75 637 562 
Q 225 1050 225 2125 
Q 225 3300 600 3875 
Q 975 4450 1625 4450 
Q 2200 4450 2525 4025 
Q 2850 3600 2850 2925 
L 2300 2925 
Q 2300 3450 2125 3712 
Q 1950 3975 1625 3975 
Q 1225 3975 1025 3562 
Q 825 3150 825 2175 
Q 825 1250 1075 900 
Q 1325 550 1650 550 
Q 1975 550 2162 787 
Q 2350 1025 2350 1525 
L 2350 1800 
L 1575 1800 
L 1575 2275 
L 2850 2275 
L 2850 75 
z
" transform="scale(0.015625)"/>
      <path id="SimHei-2d" d="M 2975 2125 
L 125 2125 
L 125 2525 
L 2975 2525 
L 2975 2125 
z
" transform="scale(0.015625)"/>
      <path id="SimHei-41" d="M 3075 125 
L 2475 125 
L 2125 1450 
L 1025 1450 
L 675 125 
L 75 125 
L 1325 4450 
L 1825 4450 
L 3075 125 
z
M 2000 1925 
L 1600 3450 
L 1550 3450 
L 1150 1925 
L 2000 1925 
z
" transform="scale(0.015625)"/>
      <path id="SimHei-42" d="M 2950 1400 
Q 2950 675 2550 400 
Q 2150 125 1525 125 
L 275 125 
L 275 4400 
L 1575 4400 
Q 2200 4400 2512 4075 
Q 2825 3750 2825 3300 
Q 2825 2850 2612 2637 
Q 2400 2425 2175 2350 
Q 2475 2275 2712 2037 
Q 2950 1800 2950 1400 
z
M 2250 3300 
Q 2250 3625 2062 3775 
Q 1875 3925 1600 3925 
L 850 3925 
L 850 2600 
L 1575 2600 
Q 1850 2600 2050 2762 
Q 2250 2925 2250 3300 
z
M 2350 1400 
Q 2350 1800 2087 1962 
Q 1825 2125 1500 2125 
L 850 2125 
L 850 600 
L 1425 600 
Q 1875 600 2112 775 
Q 2350 950 2350 1400 
z
" transform="scale(0.015625)"/>
      <path id="SimHei-43" d="M 2975 1825 
Q 2950 875 2575 475 
Q 2200 75 1675 75 
Q 1075 75 650 562 
Q 225 1050 225 2125 
Q 225 3300 637 3875 
Q 1050 4450 1700 4450 
Q 2250 4450 2612 4037 
Q 2975 3625 2950 2875 
L 2400 2875 
Q 2400 3425 2225 3700 
Q 2050 3975 1700 3975 
Q 1300 3975 1062 3562 
Q 825 3150 825 2175 
Q 825 1275 1062 912 
Q 1300 550 1675 550 
Q 1950 550 2175 812 
Q 2400 1075 2400 1825 
L 2975 1825 
z
" transform="scale(0.015625)"/>
      <path id="SimHei-4f" d="M 2950 2275 
Q 2950 1100 2587 587 
Q 2225 75 1575 75 
Q 925 75 550 587 
Q 175 1100 175 2275 
Q 175 3450 550 3950 
Q 925 4450 1575 4450 
Q 2225 4450 2587 3950 
Q 2950 3450 2950 2275 
z
M 2350 2275 
Q 2350 3325 2125 3650 
Q 1900 3975 1575 3975 
Q 1250 3975 1012 3650 
Q 775 3325 775 2275 
Q 775 1225 1012 887 
Q 1250 550 1575 550 
Q 1900 550 2125 887 
Q 2350 1225 2350 2275 
z
" transform="scale(0.015625)"/>
      <path id="SimHei-67" d="M 2975 2500 
Q 2800 2550 2637 2562 
Q 2475 2575 2300 2525 
Q 2375 2450 2425 2337 
Q 2475 2225 2475 2000 
Q 2475 1575 2187 1300 
Q 1900 1025 1475 1025 
Q 1375 1025 1212 1062 
Q 1050 1100 950 1150 
Q 875 1100 850 1050 
Q 825 1000 825 925 
Q 825 800 1000 737 
Q 1175 675 1625 675 
Q 2350 675 2612 475 
Q 2875 275 2875 -25 
Q 2875 -425 2487 -612 
Q 2100 -800 1575 -800 
Q 900 -800 575 -625 
Q 250 -450 250 -150 
Q 250 0 375 150 
Q 500 300 700 400 
Q 550 475 462 587 
Q 375 700 375 875 
Q 375 1025 487 1137 
Q 600 1250 750 1325 
Q 625 1450 550 1625 
Q 475 1800 475 2000 
Q 475 2425 762 2700 
Q 1050 2975 1475 2975 
Q 1700 2975 1862 2912 
Q 2025 2850 2150 2725 
Q 2350 2875 2550 2937 
Q 2750 3000 2975 2975 
L 2975 2500 
z
M 1975 2000 
Q 1975 2250 1850 2400 
Q 1725 2550 1475 2550 
Q 1225 2550 1100 2400 
Q 975 2250 975 2000 
Q 975 1750 1100 1600 
Q 1225 1450 1475 1450 
Q 1725 1450 1850 1600 
Q 1975 1750 1975 2000 
z
M 2400 -75 
Q 2400 25 2287 125 
Q 2175 225 1725 225 
Q 1625 225 1450 237 
Q 1275 250 1050 275 
Q 850 200 775 100 
Q 700 0 700 -100 
Q 700 -250 900 -350 
Q 1100 -450 1600 -450 
Q 2025 -450 2212 -337 
Q 2400 -225 2400 -75 
z
" transform="scale(0.015625)"/>
      <path id="SimHei-6e" d="M 2800 125 
L 2300 125 
L 2300 1925 
Q 2300 2225 2150 2400 
Q 2000 2575 1750 2575 
Q 1425 2575 1137 2237 
Q 850 1900 850 1400 
L 850 125 
L 350 125 
L 350 2925 
L 850 2925 
L 850 2400 
Q 1050 2675 1287 2825 
Q 1525 2975 1900 2975 
Q 2350 2975 2575 2725 
Q 2800 2475 2800 2100 
L 2800 125 
z
" transform="scale(0.015625)"/>
     </defs>
     <use xlink:href="#SimHei-49"/>
     <use xlink:href="#SimHei-4d" x="50"/>
     <use xlink:href="#SimHei-47" x="100"/>
     <use xlink:href="#SimHei-2d" x="150"/>
     <use xlink:href="#SimHei-41" x="200"/>
     <use xlink:href="#SimHei-42" x="250"/>
     <use xlink:href="#SimHei-43" x="300"/>
     <use xlink:href="#SimHei-20" x="350"/>
     <use xlink:href="#SimHei-4f" x="400"/>
     <use xlink:href="#SimHei-72" x="450"/>
     <use xlink:href="#SimHei-69" x="500"/>
     <use xlink:href="#SimHei-67" x="550"/>
     <use xlink:href="#SimHei-69" x="600"/>
     <use xlink:href="#SimHei-6e" x="650"/>
     <use xlink:href="#SimHei-20" x="700"/>
     <use xlink:href="#SimHei-52" x="750"/>
     <use xlink:href="#SimHei-4f" x="800"/>
     <use xlink:href="#SimHei-43" x="850"/>
    </g>
   </g>
   <g id="legend_1">
    <g id="patch_7">
     <path d="M 299.4 507.64 
L 511.4 507.64 
Q 513.4 507.64 513.4 505.64 
L 513.4 479.530625 
Q 513.4 477.530625 511.4 477.530625 
L 299.4 477.530625 
Q 297.4 477.530625 297.4 479.530625 
L 297.4 505.64 
Q 297.4 507.64 299.4 507.64 
z
" style="fill: #ffffff; opacity: 0.8; stroke: #cccccc; stroke-linejoin: miter"/>
    </g>
    <g id="line2d_16">
     <path d="M 301.4 485.335312 
L 311.4 485.335312 
L 321.4 485.335312 
" style="fill: none; stroke: #0000ff; stroke-width: 2; stroke-linecap: square"/>
    </g>
    <g id="text_16">
     <!-- LSTM ROC curve (area = 0.975) -->
     <g transform="translate(329.4 488.835312) scale(0.1 -0.1)">
      <defs>
       <path id="SimHei-4c" d="M 2900 125 
L 300 125 
L 300 4400 
L 875 4400 
L 875 600 
L 2900 600 
L 2900 125 
z
" transform="scale(0.015625)"/>
       <path id="SimHei-53" d="M 2900 1325 
Q 2900 750 2537 412 
Q 2175 75 1550 75 
Q 925 75 575 425 
Q 225 775 225 1300 
L 225 1475 
L 800 1475 
L 800 1325 
Q 800 950 1025 750 
Q 1250 550 1550 550 
Q 1950 550 2137 762 
Q 2325 975 2325 1275 
Q 2325 1525 2100 1737 
Q 1875 1950 1450 2125 
Q 850 2350 587 2625 
Q 325 2900 325 3275 
Q 325 3800 687 4125 
Q 1050 4450 1550 4450 
Q 2200 4450 2487 4062 
Q 2775 3675 2775 3225 
L 2200 3225 
Q 2225 3500 2050 3725 
Q 1875 3950 1550 3950 
Q 1250 3950 1075 3787 
Q 900 3625 900 3350 
Q 900 3125 1037 2962 
Q 1175 2800 1750 2575 
Q 2300 2350 2600 2037 
Q 2900 1725 2900 1325 
z
" transform="scale(0.015625)"/>
       <path id="SimHei-63" d="M 2850 1250 
Q 2850 725 2487 400 
Q 2125 75 1575 75 
Q 1025 75 625 462 
Q 225 850 225 1525 
Q 225 2200 625 2587 
Q 1025 2975 1575 2975 
Q 2125 2975 2450 2687 
Q 2775 2400 2775 2000 
L 2225 2000 
Q 2200 2300 2012 2412 
Q 1825 2525 1575 2525 
Q 1275 2525 1025 2287 
Q 775 2050 775 1525 
Q 775 1000 1025 762 
Q 1275 525 1575 525 
Q 1900 525 2100 700 
Q 2300 875 2300 1250 
L 2850 1250 
z
" transform="scale(0.015625)"/>
       <path id="SimHei-28" d="M 2975 -200 
L 2700 -475 
Q 2075 125 1762 775 
Q 1450 1425 1450 2250 
Q 1450 3075 1762 3725 
Q 2075 4375 2700 5000 
L 2975 4725 
Q 2400 4175 2112 3587 
Q 1825 3000 1825 2250 
Q 1825 1500 2112 912 
Q 2400 325 2975 -200 
z
" transform="scale(0.015625)"/>
       <path id="SimHei-3d" d="M 2975 2900 
L 125 2900 
L 125 3300 
L 2975 3300 
L 2975 2900 
z
M 2975 1375 
L 125 1375 
L 125 1775 
L 2975 1775 
L 2975 1375 
z
" transform="scale(0.015625)"/>
       <path id="SimHei-39" d="M 800 75 
Q 1350 1000 1700 1750 
Q 1075 1650 662 1912 
Q 250 2175 162 2625 
Q 75 3075 175 3437 
Q 275 3800 487 4037 
Q 700 4275 1000 4375 
Q 1300 4475 1537 4475 
Q 1775 4475 2025 4375 
Q 2275 4275 2475 4075 
Q 2675 3875 2750 3662 
Q 2825 3450 2825 3112 
Q 2825 2775 2575 2250 
Q 2325 1725 1350 75 
L 800 75 
z
M 662 2875 
Q 700 2550 937 2337 
Q 1175 2125 1450 2150 
Q 1725 2175 1887 2300 
Q 2050 2425 2200 2725 
Q 2300 3100 2250 3362 
Q 2200 3625 1987 3800 
Q 1775 3975 1525 3975 
Q 1375 4000 1137 3900 
Q 900 3800 762 3500 
Q 625 3200 662 2875 
z
" transform="scale(0.015625)"/>
       <path id="SimHei-37" d="M 850 150 
Q 1300 2050 2425 3925 
L 275 3925 
L 275 4375 
L 2950 4375 
L 2950 3950 
Q 1775 2050 1400 150 
L 850 150 
z
" transform="scale(0.015625)"/>
       <path id="SimHei-35" d="M 550 1325 
Q 725 650 1150 575 
Q 1575 500 1837 662 
Q 2100 825 2212 1087 
Q 2325 1350 2312 1675 
Q 2300 2000 2137 2225 
Q 1975 2450 1725 2525 
Q 1475 2600 1162 2525 
Q 850 2450 650 2175 
L 225 2225 
Q 275 2375 700 4375 
L 2675 4375 
L 2675 3925 
L 1075 3925 
Q 950 3250 825 2850 
Q 1200 3025 1525 3012 
Q 1850 3000 2150 2862 
Q 2450 2725 2587 2487 
Q 2725 2250 2787 2012 
Q 2850 1775 2837 1500 
Q 2825 1225 2725 937 
Q 2625 650 2425 462 
Q 2225 275 1937 162 
Q 1650 50 1275 75 
Q 900 100 562 350 
Q 225 600 100 1200 
L 550 1325 
z
" transform="scale(0.015625)"/>
       <path id="SimHei-29" d="M 1675 2250 
Q 1675 1425 1362 775 
Q 1050 125 425 -475 
L 150 -200 
Q 725 325 1012 912 
Q 1300 1500 1300 2250 
Q 1300 3000 1012 3587 
Q 725 4175 150 4725 
L 425 5000 
Q 1050 4375 1362 3725 
Q 1675 3075 1675 2250 
z
" transform="scale(0.015625)"/>
      </defs>
      <use xlink:href="#SimHei-4c"/>
      <use xlink:href="#SimHei-53" x="50"/>
      <use xlink:href="#SimHei-54" x="100"/>
      <use xlink:href="#SimHei-4d" x="150"/>
      <use xlink:href="#SimHei-20" x="200"/>
      <use xlink:href="#SimHei-52" x="250"/>
      <use xlink:href="#SimHei-4f" x="300"/>
      <use xlink:href="#SimHei-43" x="350"/>
      <use xlink:href="#SimHei-20" x="400"/>
      <use xlink:href="#SimHei-63" x="450"/>
      <use xlink:href="#SimHei-75" x="500"/>
      <use xlink:href="#SimHei-72" x="550"/>
      <use xlink:href="#SimHei-76" x="600"/>
      <use xlink:href="#SimHei-65" x="650"/>
      <use xlink:href="#SimHei-20" x="700"/>
      <use xlink:href="#SimHei-28" x="750"/>
      <use xlink:href="#SimHei-61" x="800"/>
      <use xlink:href="#SimHei-72" x="850"/>
      <use xlink:href="#SimHei-65" x="900"/>
      <use xlink:href="#SimHei-61" x="950"/>
      <use xlink:href="#SimHei-20" x="1000"/>
      <use xlink:href="#SimHei-3d" x="1050"/>
      <use xlink:href="#SimHei-20" x="1100"/>
      <use xlink:href="#SimHei-30" x="1150"/>
      <use xlink:href="#SimHei-2e" x="1200"/>
      <use xlink:href="#SimHei-39" x="1250"/>
      <use xlink:href="#SimHei-37" x="1300"/>
      <use xlink:href="#SimHei-35" x="1350"/>
      <use xlink:href="#SimHei-29" x="1400"/>
     </g>
    </g>
    <g id="line2d_17">
     <path d="M 301.4 498.89 
L 311.4 498.89 
L 321.4 498.89 
" style="fill: none; stroke: #ff0000; stroke-width: 2; stroke-linecap: square"/>
    </g>
    <g id="text_17">
     <!-- Transformer ROC curve (area = 0.977) -->
     <g transform="translate(329.4 502.39) scale(0.1 -0.1)">
      <defs>
       <path id="SimHei-66" d="M 2850 3825 
Q 2725 3900 2550 3950 
Q 2375 4000 2100 4000 
Q 1825 4000 1725 3862 
Q 1625 3725 1625 3525 
L 1625 2925 
L 2650 2925 
L 2650 2525 
L 1625 2525 
L 1625 125 
L 1125 125 
L 1125 2525 
L 275 2525 
L 275 2925 
L 1125 2925 
L 1125 3500 
Q 1125 3950 1400 4200 
Q 1675 4450 2125 4450 
Q 2400 4450 2562 4412 
Q 2725 4375 2850 4325 
L 2850 3825 
z
" transform="scale(0.015625)"/>
       <path id="SimHei-6d" d="M 3050 125 
L 2550 125 
L 2550 2150 
Q 2550 2300 2500 2400 
Q 2450 2500 2300 2500 
Q 2125 2500 1975 2312 
Q 1825 2125 1825 1825 
L 1825 125 
L 1325 125 
L 1325 2150 
Q 1325 2300 1275 2400 
Q 1225 2500 1075 2500 
Q 900 2500 750 2312 
Q 600 2125 600 1825 
L 600 125 
L 100 125 
L 100 2925 
L 600 2925 
L 600 2550 
Q 725 2750 900 2862 
Q 1075 2975 1275 2975 
Q 1475 2975 1612 2862 
Q 1750 2750 1800 2550 
Q 1925 2750 2087 2862 
Q 2250 2975 2450 2975 
Q 2750 2975 2900 2812 
Q 3050 2650 3050 2350 
L 3050 125 
z
" transform="scale(0.015625)"/>
      </defs>
      <use xlink:href="#SimHei-54"/>
      <use xlink:href="#SimHei-72" x="50"/>
      <use xlink:href="#SimHei-61" x="100"/>
      <use xlink:href="#SimHei-6e" x="150"/>
      <use xlink:href="#SimHei-73" x="200"/>
      <use xlink:href="#SimHei-66" x="250"/>
      <use xlink:href="#SimHei-6f" x="300"/>
      <use xlink:href="#SimHei-72" x="350"/>
      <use xlink:href="#SimHei-6d" x="400"/>
      <use xlink:href="#SimHei-65" x="450"/>
      <use xlink:href="#SimHei-72" x="500"/>
      <use xlink:href="#SimHei-20" x="550"/>
      <use xlink:href="#SimHei-52" x="600"/>
      <use xlink:href="#SimHei-4f" x="650"/>
      <use xlink:href="#SimHei-43" x="700"/>
      <use xlink:href="#SimHei-20" x="750"/>
      <use xlink:href="#SimHei-63" x="800"/>
      <use xlink:href="#SimHei-75" x="850"/>
      <use xlink:href="#SimHei-72" x="900"/>
      <use xlink:href="#SimHei-76" x="950"/>
      <use xlink:href="#SimHei-65" x="1000"/>
      <use xlink:href="#SimHei-20" x="1050"/>
      <use xlink:href="#SimHei-28" x="1100"/>
      <use xlink:href="#SimHei-61" x="1150"/>
      <use xlink:href="#SimHei-72" x="1200"/>
      <use xlink:href="#SimHei-65" x="1250"/>
      <use xlink:href="#SimHei-61" x="1300"/>
      <use xlink:href="#SimHei-20" x="1350"/>
      <use xlink:href="#SimHei-3d" x="1400"/>
      <use xlink:href="#SimHei-20" x="1450"/>
      <use xlink:href="#SimHei-30" x="1500"/>
      <use xlink:href="#SimHei-2e" x="1550"/>
      <use xlink:href="#SimHei-39" x="1600"/>
      <use xlink:href="#SimHei-37" x="1650"/>
      <use xlink:href="#SimHei-37" x="1700"/>
      <use xlink:href="#SimHei-29" x="1750"/>
     </g>
    </g>
   </g>
  </g>
 </g>
 <defs>
  <clipPath id="pe3a9d6290b">
   <rect x="72" y="69.12" width="446.4" height="443.52"/>
  </clipPath>
 </defs>
</svg>
