<?xml version="1.0" encoding="utf-8" standalone="no"?>
<!DOCTYPE svg PUBLIC "-//W3C//DTD SVG 1.1//EN"
  "http://www.w3.org/Graphics/SVG/1.1/DTD/svg11.dtd">
<svg xmlns:xlink="http://www.w3.org/1999/xlink" width="576pt" height="576pt" viewBox="0 0 576 576" xmlns="http://www.w3.org/2000/svg" version="1.1">
 <metadata>
  <rdf:RDF xmlns:dc="http://purl.org/dc/elements/1.1/" xmlns:cc="http://creativecommons.org/ns#" xmlns:rdf="http://www.w3.org/1999/02/22-rdf-syntax-ns#">
   <cc:Work>
    <dc:type rdf:resource="http://purl.org/dc/dcmitype/StillImage"/>
    <dc:date>2023-05-13T05:35:28.899272</dc:date>
    <dc:format>image/svg+xml</dc:format>
    <dc:creator>
     <cc:Agent>
      <dc:title>Matplotlib v3.7.1, https://matplotlib.org/</dc:title>
     </cc:Agent>
    </dc:creator>
   </cc:Work>
  </rdf:RDF>
 </metadata>
 <defs>
  <style type="text/css">*{stroke-linejoin: round; stroke-linecap: butt}</style>
 </defs>
 <g id="figure_1">
  <g id="patch_1">
   <path d="M 0 576 
L 576 576 
L 576 0 
L 0 0 
z
" style="fill: #ffffff"/>
  </g>
  <g id="axes_1">
   <g id="patch_2">
    <path d="M 72 512.64 
L 518.4 512.64 
L 518.4 69.12 
L 72 69.12 
z
" style="fill: #ffffff"/>
   </g>
   <g id="matplotlib.axis_1">
    <g id="xtick_1">
     <g id="line2d_1">
      <defs>
       <path id="m893a86d17e" d="M 0 0 
L 0 3.5 
" style="stroke: #000000; stroke-width: 0.8"/>
      </defs>
      <g>
       <use xlink:href="#m893a86d17e" x="92.290909" y="512.64" style="stroke: #000000; stroke-width: 0.8"/>
      </g>
     </g>
     <g id="text_1">
      <!-- 0.0 -->
      <g transform="translate(84.790909 526.515) scale(0.1 -0.1)">
       <defs>
        <path id="SimHei-30" d="M 225 2537 
Q 250 3200 412 3587 
Q 575 3975 875 4225 
Q 1175 4475 1612 4475 
Q 2050 4475 2375 4112 
Q 2700 3750 2800 3200 
Q 2900 2650 2862 1937 
Q 2825 1225 2612 775 
Q 2400 325 1975 150 
Q 1550 -25 1125 187 
Q 700 400 525 750 
Q 350 1100 275 1487 
Q 200 1875 225 2537 
z
M 750 2687 
Q 675 2000 800 1462 
Q 925 925 1212 700 
Q 1500 475 1800 612 
Q 2100 750 2237 1162 
Q 2375 1575 2375 2062 
Q 2375 2550 2337 2950 
Q 2300 3350 2112 3675 
Q 1925 4000 1612 4012 
Q 1300 4025 1062 3700 
Q 825 3375 750 2687 
z
" transform="scale(0.015625)"/>
        <path id="SimHei-2e" d="M 1075 125 
L 500 125 
L 500 675 
L 1075 675 
L 1075 125 
z
" transform="scale(0.015625)"/>
       </defs>
       <use xlink:href="#SimHei-30"/>
       <use xlink:href="#SimHei-2e" x="50"/>
       <use xlink:href="#SimHei-30" x="100"/>
      </g>
     </g>
    </g>
    <g id="xtick_2">
     <g id="line2d_2">
      <g>
       <use xlink:href="#m893a86d17e" x="173.454545" y="512.64" style="stroke: #000000; stroke-width: 0.8"/>
      </g>
     </g>
     <g id="text_2">
      <!-- 0.2 -->
      <g transform="translate(165.954545 526.515) scale(0.1 -0.1)">
       <defs>
        <path id="SimHei-32" d="M 300 250 
Q 325 625 650 925 
Q 975 1225 1475 1862 
Q 1975 2500 2125 2850 
Q 2275 3200 2237 3450 
Q 2200 3700 2000 3862 
Q 1800 4025 1537 4000 
Q 1275 3975 1037 3800 
Q 800 3625 675 3275 
L 200 3350 
Q 400 3925 712 4187 
Q 1025 4450 1450 4475 
Q 1700 4500 1900 4462 
Q 2100 4425 2312 4287 
Q 2525 4150 2662 3875 
Q 2800 3600 2762 3212 
Q 2725 2825 2375 2287 
Q 2025 1750 1025 600 
L 2825 600 
L 2825 150 
L 300 150 
L 300 250 
z
" transform="scale(0.015625)"/>
       </defs>
       <use xlink:href="#SimHei-30"/>
       <use xlink:href="#SimHei-2e" x="50"/>
       <use xlink:href="#SimHei-32" x="100"/>
      </g>
     </g>
    </g>
    <g id="xtick_3">
     <g id="line2d_3">
      <g>
       <use xlink:href="#m893a86d17e" x="254.618182" y="512.64" style="stroke: #000000; stroke-width: 0.8"/>
      </g>
     </g>
     <g id="text_3">
      <!-- 0.4 -->
      <g transform="translate(247.118182 526.515) scale(0.1 -0.1)">
       <defs>
        <path id="SimHei-34" d="M 2000 1100 
L 75 1100 
L 75 1525 
L 2100 4450 
L 2475 4450 
L 2475 1525 
L 3075 1525 
L 3075 1100 
L 2475 1100 
L 2475 150 
L 2000 150 
L 2000 1100 
z
M 2000 1525 
L 2000 3500 
L 600 1525 
L 2000 1525 
z
" transform="scale(0.015625)"/>
       </defs>
       <use xlink:href="#SimHei-30"/>
       <use xlink:href="#SimHei-2e" x="50"/>
       <use xlink:href="#SimHei-34" x="100"/>
      </g>
     </g>
    </g>
    <g id="xtick_4">
     <g id="line2d_4">
      <g>
       <use xlink:href="#m893a86d17e" x="335.781818" y="512.64" style="stroke: #000000; stroke-width: 0.8"/>
      </g>
     </g>
     <g id="text_4">
      <!-- 0.6 -->
      <g transform="translate(328.281818 526.515) scale(0.1 -0.1)">
       <defs>
        <path id="SimHei-36" d="M 250 1612 
Q 275 1975 387 2225 
Q 500 2475 725 2850 
L 1750 4450 
L 2325 4450 
L 1275 2800 
Q 1950 2975 2350 2750 
Q 2750 2525 2887 2237 
Q 3025 1950 3037 1612 
Q 3050 1275 2937 950 
Q 2825 625 2537 362 
Q 2250 100 1737 75 
Q 1225 50 862 262 
Q 500 475 362 862 
Q 225 1250 250 1612 
z
M 1025 787 
Q 1250 550 1625 525 
Q 2000 500 2250 775 
Q 2500 1050 2500 1575 
Q 2500 2100 2187 2300 
Q 1875 2500 1487 2450 
Q 1100 2400 925 2075 
Q 750 1750 775 1387 
Q 800 1025 1025 787 
z
" transform="scale(0.015625)"/>
       </defs>
       <use xlink:href="#SimHei-30"/>
       <use xlink:href="#SimHei-2e" x="50"/>
       <use xlink:href="#SimHei-36" x="100"/>
      </g>
     </g>
    </g>
    <g id="xtick_5">
     <g id="line2d_5">
      <g>
       <use xlink:href="#m893a86d17e" x="416.945455" y="512.64" style="stroke: #000000; stroke-width: 0.8"/>
      </g>
     </g>
     <g id="text_5">
      <!-- 0.8 -->
      <g transform="translate(409.445455 526.515) scale(0.1 -0.1)">
       <defs>
        <path id="SimHei-38" d="M 175 1375 
Q 175 1675 325 1962 
Q 475 2250 825 2425 
Q 525 2600 425 2812 
Q 325 3025 312 3300 
Q 300 3575 387 3775 
Q 475 3975 650 4150 
Q 825 4325 1037 4387 
Q 1250 4450 1500 4450 
Q 1750 4450 1950 4400 
Q 2150 4350 2375 4187 
Q 2600 4025 2700 3725 
Q 2800 3425 2687 3025 
Q 2575 2625 2100 2400 
Q 2525 2275 2700 2012 
Q 2875 1750 2875 1375 
Q 2875 1000 2762 775 
Q 2650 550 2512 400 
Q 2375 250 2137 162 
Q 1900 75 1537 75 
Q 1175 75 912 162 
Q 650 250 475 425 
Q 300 600 237 837 
Q 175 1075 175 1375 
z
M 687 1400 
Q 675 1100 787 875 
Q 900 650 1200 587 
Q 1500 525 1825 600 
Q 2150 675 2275 950 
Q 2400 1225 2362 1500 
Q 2325 1775 2050 1962 
Q 1775 2150 1450 2125 
Q 1125 2100 912 1900 
Q 700 1700 687 1400 
z
M 775 3350 
Q 775 3100 950 2875 
Q 1125 2650 1500 2650 
Q 1875 2650 2062 2875 
Q 2250 3100 2237 3412 
Q 2225 3725 2012 3875 
Q 1800 4025 1437 4000 
Q 1075 3975 925 3787 
Q 775 3600 775 3350 
z
" transform="scale(0.015625)"/>
       </defs>
       <use xlink:href="#SimHei-30"/>
       <use xlink:href="#SimHei-2e" x="50"/>
       <use xlink:href="#SimHei-38" x="100"/>
      </g>
     </g>
    </g>
    <g id="xtick_6">
     <g id="line2d_6">
      <g>
       <use xlink:href="#m893a86d17e" x="498.109091" y="512.64" style="stroke: #000000; stroke-width: 0.8"/>
      </g>
     </g>
     <g id="text_6">
      <!-- 1.0 -->
      <g transform="translate(490.609091 526.515) scale(0.1 -0.1)">
       <defs>
        <path id="SimHei-31" d="M 1400 3600 
Q 1075 3275 575 2975 
L 575 3450 
Q 1200 3875 1600 4450 
L 1900 4450 
L 1900 150 
L 1400 150 
L 1400 3600 
z
" transform="scale(0.015625)"/>
       </defs>
       <use xlink:href="#SimHei-31"/>
       <use xlink:href="#SimHei-2e" x="50"/>
       <use xlink:href="#SimHei-30" x="100"/>
      </g>
     </g>
    </g>
    <g id="text_7">
     <!-- False Positive Rate -->
     <g transform="translate(247.7 538.64) scale(0.1 -0.1)">
      <defs>
       <path id="SimHei-46" d="M 2925 3925 
L 875 3925 
L 875 2525 
L 2425 2525 
L 2425 2050 
L 875 2050 
L 875 125 
L 300 125 
L 300 4400 
L 2925 4400 
L 2925 3925 
z
" transform="scale(0.015625)"/>
       <path id="SimHei-61" d="M 2875 125 
L 2275 125 
Q 2225 175 2200 262 
Q 2175 350 2175 475 
Q 2000 275 1750 175 
Q 1500 75 1225 75 
Q 825 75 550 275 
Q 275 475 275 850 
Q 275 1225 525 1450 
Q 775 1675 1300 1750 
Q 1650 1800 1912 1875 
Q 2175 1950 2175 2075 
Q 2175 2225 2062 2375 
Q 1950 2525 1575 2525 
Q 1275 2525 1137 2412 
Q 1000 2300 950 2100 
L 400 2100 
Q 450 2500 762 2737 
Q 1075 2975 1575 2975 
Q 2125 2975 2400 2725 
Q 2675 2475 2675 2025 
L 2675 650 
Q 2675 500 2725 375 
Q 2775 250 2875 125 
z
M 2175 1050 
L 2175 1550 
Q 2025 1500 1887 1462 
Q 1750 1425 1425 1375 
Q 1050 1325 937 1200 
Q 825 1075 825 900 
Q 825 750 937 637 
Q 1050 525 1275 525 
Q 1500 525 1762 650 
Q 2025 775 2175 1050 
z
" transform="scale(0.015625)"/>
       <path id="SimHei-6c" d="M 1825 125 
L 1325 125 
L 1325 4400 
L 1825 4400 
L 1825 125 
z
" transform="scale(0.015625)"/>
       <path id="SimHei-73" d="M 2750 900 
Q 2750 500 2437 287 
Q 2125 75 1650 75 
Q 1050 75 725 312 
Q 400 550 400 1000 
L 900 1000 
Q 900 700 1112 600 
Q 1325 500 1625 500 
Q 1925 500 2075 612 
Q 2225 725 2225 900 
Q 2225 1025 2100 1150 
Q 1975 1275 1475 1350 
Q 900 1425 687 1637 
Q 475 1850 475 2200 
Q 475 2500 762 2737 
Q 1050 2975 1600 2975 
Q 2100 2975 2387 2750 
Q 2675 2525 2675 2150 
L 2175 2150 
Q 2175 2375 2012 2462 
Q 1850 2550 1600 2550 
Q 1275 2550 1137 2437 
Q 1000 2325 1000 2175 
Q 1000 2000 1125 1900 
Q 1250 1800 1650 1750 
Q 2300 1650 2525 1437 
Q 2750 1225 2750 900 
z
" transform="scale(0.015625)"/>
       <path id="SimHei-65" d="M 2850 1075 
Q 2800 625 2450 350 
Q 2100 75 1625 75 
Q 1025 75 637 462 
Q 250 850 250 1525 
Q 250 2200 637 2587 
Q 1025 2975 1625 2975 
Q 2150 2975 2487 2637 
Q 2825 2300 2825 1525 
L 800 1525 
Q 800 975 1037 750 
Q 1275 525 1625 525 
Q 1900 525 2075 662 
Q 2250 800 2300 1075 
L 2850 1075 
z
M 2250 1925 
Q 2200 2275 2025 2412 
Q 1850 2550 1575 2550 
Q 1325 2550 1125 2412 
Q 925 2275 825 1925 
L 2250 1925 
z
" transform="scale(0.015625)"/>
       <path id="SimHei-20" transform="scale(0.015625)"/>
       <path id="SimHei-50" d="M 2950 3100 
Q 2950 2500 2600 2150 
Q 2250 1800 1625 1800 
L 900 1800 
L 900 125 
L 325 125 
L 325 4400 
L 1625 4400 
Q 2250 4400 2600 4050 
Q 2950 3700 2950 3100 
z
M 2375 3100 
Q 2375 3575 2150 3750 
Q 1925 3925 1475 3925 
L 900 3925 
L 900 2275 
L 1475 2275 
Q 1925 2275 2150 2450 
Q 2375 2625 2375 3100 
z
" transform="scale(0.015625)"/>
       <path id="SimHei-6f" d="M 2925 1525 
Q 2925 875 2525 475 
Q 2125 75 1575 75 
Q 1025 75 625 475 
Q 225 875 225 1525 
Q 225 2175 625 2575 
Q 1025 2975 1575 2975 
Q 2125 2975 2525 2575 
Q 2925 2175 2925 1525 
z
M 2375 1525 
Q 2375 2025 2125 2275 
Q 1875 2525 1575 2525 
Q 1275 2525 1025 2275 
Q 775 2025 775 1525 
Q 775 1025 1025 775 
Q 1275 525 1575 525 
Q 1875 525 2125 775 
Q 2375 1025 2375 1525 
z
" transform="scale(0.015625)"/>
       <path id="SimHei-69" d="M 1800 3725 
L 1300 3725 
L 1300 4375 
L 1800 4375 
L 1800 3725 
z
M 1800 125 
L 1300 125 
L 1300 2925 
L 1800 2925 
L 1800 125 
z
" transform="scale(0.015625)"/>
       <path id="SimHei-74" d="M 2750 200 
Q 2625 150 2462 112 
Q 2300 75 2025 75 
Q 1575 75 1300 325 
Q 1025 575 1025 1025 
L 1025 2525 
L 175 2525 
L 175 2925 
L 1025 2925 
L 1025 3900 
L 1525 3900 
L 1525 2925 
L 2550 2925 
L 2550 2525 
L 1525 2525 
L 1525 1000 
Q 1525 800 1625 662 
Q 1725 525 2000 525 
Q 2275 525 2450 575 
Q 2625 625 2750 700 
L 2750 200 
z
" transform="scale(0.015625)"/>
       <path id="SimHei-76" d="M 2875 2925 
L 1825 75 
L 1275 75 
L 225 2925 
L 750 2925 
L 1525 750 
L 1575 750 
L 2350 2925 
L 2875 2925 
z
" transform="scale(0.015625)"/>
       <path id="SimHei-52" d="M 3000 125 
L 2400 125 
L 1500 1975 
L 850 1975 
L 850 125 
L 275 125 
L 275 4400 
L 1525 4400 
Q 2125 4400 2500 4112 
Q 2875 3825 2875 3175 
Q 2875 2675 2625 2400 
Q 2375 2125 2050 2050 
L 3000 125 
z
M 2300 3175 
Q 2300 3525 2087 3725 
Q 1875 3925 1400 3925 
L 850 3925 
L 850 2450 
L 1550 2450 
Q 1850 2450 2075 2612 
Q 2300 2775 2300 3175 
z
" transform="scale(0.015625)"/>
      </defs>
      <use xlink:href="#SimHei-46"/>
      <use xlink:href="#SimHei-61" x="50"/>
      <use xlink:href="#SimHei-6c" x="100"/>
      <use xlink:href="#SimHei-73" x="150"/>
      <use xlink:href="#SimHei-65" x="200"/>
      <use xlink:href="#SimHei-20" x="250"/>
      <use xlink:href="#SimHei-50" x="300"/>
      <use xlink:href="#SimHei-6f" x="350"/>
      <use xlink:href="#SimHei-73" x="400"/>
      <use xlink:href="#SimHei-69" x="450"/>
      <use xlink:href="#SimHei-74" x="500"/>
      <use xlink:href="#SimHei-69" x="550"/>
      <use xlink:href="#SimHei-76" x="600"/>
      <use xlink:href="#SimHei-65" x="650"/>
      <use xlink:href="#SimHei-20" x="700"/>
      <use xlink:href="#SimHei-52" x="750"/>
      <use xlink:href="#SimHei-61" x="800"/>
      <use xlink:href="#SimHei-74" x="850"/>
      <use xlink:href="#SimHei-65" x="900"/>
     </g>
    </g>
   </g>
   <g id="matplotlib.axis_2">
    <g id="ytick_1">
     <g id="line2d_7">
      <defs>
       <path id="m2dba2db258" d="M 0 0 
L -3.5 0 
" style="stroke: #000000; stroke-width: 0.8"/>
      </defs>
      <g>
       <use xlink:href="#m2dba2db258" x="72" y="492.48" style="stroke: #000000; stroke-width: 0.8"/>
      </g>
     </g>
     <g id="text_8">
      <!-- 0.0 -->
      <g transform="translate(50 495.9175) scale(0.1 -0.1)">
       <use xlink:href="#SimHei-30"/>
       <use xlink:href="#SimHei-2e" x="50"/>
       <use xlink:href="#SimHei-30" x="100"/>
      </g>
     </g>
    </g>
    <g id="ytick_2">
     <g id="line2d_8">
      <g>
       <use xlink:href="#m2dba2db258" x="72" y="411.84" style="stroke: #000000; stroke-width: 0.8"/>
      </g>
     </g>
     <g id="text_9">
      <!-- 0.2 -->
      <g transform="translate(50 415.2775) scale(0.1 -0.1)">
       <use xlink:href="#SimHei-30"/>
       <use xlink:href="#SimHei-2e" x="50"/>
       <use xlink:href="#SimHei-32" x="100"/>
      </g>
     </g>
    </g>
    <g id="ytick_3">
     <g id="line2d_9">
      <g>
       <use xlink:href="#m2dba2db258" x="72" y="331.2" style="stroke: #000000; stroke-width: 0.8"/>
      </g>
     </g>
     <g id="text_10">
      <!-- 0.4 -->
      <g transform="translate(50 334.6375) scale(0.1 -0.1)">
       <use xlink:href="#SimHei-30"/>
       <use xlink:href="#SimHei-2e" x="50"/>
       <use xlink:href="#SimHei-34" x="100"/>
      </g>
     </g>
    </g>
    <g id="ytick_4">
     <g id="line2d_10">
      <g>
       <use xlink:href="#m2dba2db258" x="72" y="250.56" style="stroke: #000000; stroke-width: 0.8"/>
      </g>
     </g>
     <g id="text_11">
      <!-- 0.6 -->
      <g transform="translate(50 253.9975) scale(0.1 -0.1)">
       <use xlink:href="#SimHei-30"/>
       <use xlink:href="#SimHei-2e" x="50"/>
       <use xlink:href="#SimHei-36" x="100"/>
      </g>
     </g>
    </g>
    <g id="ytick_5">
     <g id="line2d_11">
      <g>
       <use xlink:href="#m2dba2db258" x="72" y="169.92" style="stroke: #000000; stroke-width: 0.8"/>
      </g>
     </g>
     <g id="text_12">
      <!-- 0.8 -->
      <g transform="translate(50 173.3575) scale(0.1 -0.1)">
       <use xlink:href="#SimHei-30"/>
       <use xlink:href="#SimHei-2e" x="50"/>
       <use xlink:href="#SimHei-38" x="100"/>
      </g>
     </g>
    </g>
    <g id="ytick_6">
     <g id="line2d_12">
      <g>
       <use xlink:href="#m2dba2db258" x="72" y="89.28" style="stroke: #000000; stroke-width: 0.8"/>
      </g>
     </g>
     <g id="text_13">
      <!-- 1.0 -->
      <g transform="translate(50 92.7175) scale(0.1 -0.1)">
       <use xlink:href="#SimHei-31"/>
       <use xlink:href="#SimHei-2e" x="50"/>
       <use xlink:href="#SimHei-30" x="100"/>
      </g>
     </g>
    </g>
    <g id="text_14">
     <!-- True Positive Rate -->
     <g transform="translate(44.75 335.88) rotate(-90) scale(0.1 -0.1)">
      <defs>
       <path id="SimHei-54" d="M 2850 3925 
L 1850 3925 
L 1850 125 
L 1275 125 
L 1275 3925 
L 275 3925 
L 275 4400 
L 2850 4400 
L 2850 3925 
z
" transform="scale(0.015625)"/>
       <path id="SimHei-72" d="M 2500 2425 
Q 2025 2500 1700 2287 
Q 1375 2075 1150 1550 
L 1150 125 
L 650 125 
L 650 2925 
L 1150 2925 
L 1150 2200 
Q 1375 2600 1712 2787 
Q 2050 2975 2500 2975 
L 2500 2425 
z
" transform="scale(0.015625)"/>
       <path id="SimHei-75" d="M 2800 125 
L 2300 125 
L 2300 650 
Q 2100 375 1862 225 
Q 1625 75 1250 75 
Q 800 75 575 325 
Q 350 575 350 950 
L 350 2925 
L 850 2925 
L 850 1125 
Q 850 825 1000 650 
Q 1150 475 1400 475 
Q 1725 475 2012 812 
Q 2300 1150 2300 1650 
L 2300 2925 
L 2800 2925 
L 2800 125 
z
" transform="scale(0.015625)"/>
      </defs>
      <use xlink:href="#SimHei-54"/>
      <use xlink:href="#SimHei-72" x="50"/>
      <use xlink:href="#SimHei-75" x="100"/>
      <use xlink:href="#SimHei-65" x="150"/>
      <use xlink:href="#SimHei-20" x="200"/>
      <use xlink:href="#SimHei-50" x="250"/>
      <use xlink:href="#SimHei-6f" x="300"/>
      <use xlink:href="#SimHei-73" x="350"/>
      <use xlink:href="#SimHei-69" x="400"/>
      <use xlink:href="#SimHei-74" x="450"/>
      <use xlink:href="#SimHei-69" x="500"/>
      <use xlink:href="#SimHei-76" x="550"/>
      <use xlink:href="#SimHei-65" x="600"/>
      <use xlink:href="#SimHei-20" x="650"/>
      <use xlink:href="#SimHei-52" x="700"/>
      <use xlink:href="#SimHei-61" x="750"/>
      <use xlink:href="#SimHei-74" x="800"/>
      <use xlink:href="#SimHei-65" x="850"/>
     </g>
    </g>
   </g>
   <g id="line2d_13">
    <path d="M 92.290909 492.48 
L 92.400697 381.705811 
L 92.403084 381.705811 
L 92.512872 309.947512 
L 92.515259 309.947512 
L 92.625047 294.306781 
L 92.629821 294.306781 
L 92.739609 278.751988 
L 92.741996 278.751988 
L 92.849397 264.593689 
L 92.856558 264.55072 
L 92.966346 254.259634 
L 92.968733 254.259634 
L 93.078521 246.331846 
L 93.080908 246.331846 
L 93.190696 240.402119 
L 93.193083 240.402119 
L 93.302871 234.493875 
L 93.305258 234.493875 
L 93.415046 229.638374 
L 93.422206 229.595405 
L 93.531994 224.847326 
L 93.536768 224.739903 
L 93.646556 222.011369 
L 93.65133 221.989884 
L 93.761118 218.853144 
L 93.768278 218.788691 
L 93.878066 215.952734 
L 93.880453 215.952734 
L 93.987855 213.073808 
L 93.999788 212.966386 
L 94.104803 210.839418 
L 94.116736 210.817934 
L 94.221751 208.196822 
L 94.233685 208.175338 
L 94.343473 206.134308 
L 94.348247 206.134308 
L 94.455648 203.835464 
L 94.460422 203.835464 
L 94.57021 202.052249 
L 94.58453 201.966311 
L 94.694318 200.333488 
L 94.701479 200.312003 
L 94.811267 198.120582 
L 94.825587 198.013159 
L 94.935375 196.101037 
L 94.944922 196.058068 
L 95.054711 194.59712 
L 95.057097 194.59712 
L 95.166886 192.83539 
L 95.190753 192.727967 
L 95.293381 190.880298 
L 95.305314 190.772876 
L 95.412716 189.763103 
L 95.422263 189.69865 
L 95.524891 188.538486 
L 95.546371 188.431063 
L 95.65616 187.184961 
L 95.675253 187.099023 
L 95.782655 185.960343 
L 95.796975 185.852921 
L 95.906763 184.542365 
L 95.91631 184.499396 
L 96.026098 183.167355 
L 96.049965 183.102902 
L 96.159754 181.985707 
L 96.174074 181.899769 
L 96.276702 180.71812 
L 96.305343 180.610698 
L 96.415131 179.794286 
L 96.438998 179.708348 
L 96.548786 178.677091 
L 96.563107 178.612637 
L 96.672895 177.731772 
L 96.682442 177.688803 
L 96.789843 176.721999 
L 96.811324 176.614577 
L 96.921112 175.561835 
L 96.947366 175.454413 
L 97.052381 174.68097 
L 97.071474 174.659485 
L 97.178876 173.950496 
L 97.202743 173.864558 
L 97.310144 172.897755 
L 97.334011 172.790332 
L 97.439026 172.038374 
L 97.462893 171.930951 
L 97.572682 171.157508 
L 97.598935 171.050086 
L 97.708724 170.212189 
L 97.742138 170.104767 
L 97.851926 169.395778 
L 97.880566 169.30984 
L 97.990355 168.751242 
L 98.033315 168.643819 
L 98.135943 167.848892 
L 98.166971 167.74147 
L 98.271985 167.354748 
L 98.310173 167.26881 
L 98.417574 166.753182 
L 98.467695 166.645759 
L 98.577483 166.259038 
L 98.598964 166.194584 
L 98.706365 165.442626 
L 98.720686 165.356688 
L 98.816154 164.841059 
L 98.868661 164.733637 
L 98.978449 164.175039 
L 99.016637 164.067617 
L 99.126425 163.509019 
L 99.147905 163.401596 
L 99.255307 162.971906 
L 99.274401 162.864483 
L 99.381802 162.370339 
L 99.417603 162.262917 
L 99.525004 161.790257 
L 99.553645 161.704319 
L 99.663433 161.296113 
L 99.711167 161.188691 
L 99.820955 160.673062 
L 99.861529 160.56564 
L 99.966544 160.050011 
L 100.011892 159.985558 
L 100.112133 159.641805 
L 100.162254 159.534383 
L 100.269655 159.19063 
L 100.329323 159.083208 
L 100.427178 158.481641 
L 100.460592 158.374219 
L 100.567993 157.901559 
L 100.603794 157.794137 
L 100.701649 157.321477 
L 100.744609 157.214054 
L 100.847237 156.698426 
L 100.957026 156.591003 
L 101.066814 156.268736 
L 101.105001 156.161313 
L 101.212403 155.538262 
L 101.245817 155.430839 
L 101.350832 155.108571 
L 101.393792 155.001149 
L 101.503581 154.635912 
L 101.529834 154.549974 
L 101.630076 154.184737 
L 101.701677 154.077314 
L 101.809079 153.561686 
L 101.892613 153.454263 
L 101.990468 153.15348 
L 102.047749 153.046057 
L 102.14799 152.91715 
L 102.212431 152.809728 
L 102.319833 152.465975 
L 102.374727 152.358553 
L 102.484515 151.950347 
L 102.527476 151.842924 
L 102.637264 151.542141 
L 102.680225 151.434718 
L 102.790013 151.090966 
L 102.849681 151.005028 
L 102.959469 150.704245 
L 103.03823 150.596822 
L 103.145632 150.231585 
L 103.188593 150.124163 
L 103.291221 149.930802 
L 103.396236 149.823379 
L 103.501251 149.415173 
L 103.544211 149.307751 
L 103.651613 148.899545 
L 103.69696 148.792122 
L 103.797202 148.491339 
L 103.825842 148.383916 
L 103.933244 148.126102 
L 103.997685 148.01868 
L 104.1027 147.760865 
L 104.150434 147.653443 
L 104.255449 147.352659 
L 104.331823 147.245237 
L 104.420131 146.922969 
L 104.508439 146.815546 
L 104.615841 146.579217 
L 104.692215 146.471794 
L 104.78291 146.321402 
L 104.878378 146.21398 
L 104.988166 146.042104 
L 105.019193 145.934681 
L 105.124208 145.719836 
L 105.195809 145.612413 
L 105.26741 145.376084 
L 105.343785 145.290145 
L 105.4488 145.032331 
L 105.529948 144.924909 
L 105.637349 144.731548 
L 105.692243 144.64561 
L 105.792485 144.473734 
L 105.847379 144.366311 
L 105.957167 144.129981 
L 106.059796 144.022559 
L 106.162424 143.829198 
L 106.193451 143.74326 
L 106.293693 143.528415 
L 106.396321 143.420992 
L 106.484629 143.184662 
L 106.565777 143.07724 
L 106.666018 142.733488 
L 106.732846 142.626065 
L 106.80922 142.454189 
L 106.954809 142.368251 
L 107.04789 142.131921 
L 107.100398 142.024498 
L 107.193479 141.723715 
L 107.198253 141.723715 
L 107.298494 141.616292 
L 107.386802 141.358478 
L 107.570578 141.251056 
L 107.67798 141.03621 
L 107.711394 140.950272 
L 107.814022 140.628004 
L 107.988251 140.520582 
L 108.093266 140.305737 
L 108.160094 140.198314 
L 108.267495 139.897531 
L 108.324776 139.790108 
L 108.434565 139.575263 
L 108.501392 139.46784 
L 108.5897 139.252995 
L 108.630274 139.167057 
L 108.730516 138.995181 
L 108.804504 138.909243 
L 108.914292 138.544006 
L 108.990666 138.436583 
L 109.086134 138.286192 
L 109.26991 138.178769 
L 109.374925 138.006893 
L 109.468007 137.89947 
L 109.575408 137.577203 
L 109.673263 137.46978 
L 109.763958 137.362357 
L 109.857039 137.254935 
L 109.964441 136.975636 
L 110.016948 136.868213 
L 110.11719 136.653368 
L 110.176857 136.545946 
L 110.277099 136.245162 
L 110.346313 136.159224 
L 110.451328 135.965863 
L 110.515769 135.858441 
L 110.623171 135.686565 
L 110.682838 135.579142 
L 110.785467 135.42875 
L 110.878548 135.321328 
L 110.966856 135.170936 
L 111.112445 135.063514 
L 111.219846 134.891637 
L 111.300994 134.784215 
L 111.410783 134.461947 
L 111.482384 134.354524 
L 111.582625 134.204133 
L 111.716281 134.09671 
L 111.818909 133.86038 
L 111.91915 133.752958 
L 112.021778 133.538113 
L 112.13634 133.43069 
L 112.246128 133.237329 
L 112.320116 133.129907 
L 112.422744 132.979515 
L 112.472865 132.936546 
L 112.580267 132.743185 
L 112.690055 132.635763 
L 112.799843 132.420918 
L 112.964526 132.313495 
L 113.017033 132.227557 
L 113.150689 132.120134 
L 113.219903 132.012712 
L 113.315371 131.905289 
L 113.408453 131.797866 
L 113.477667 131.690444 
L 113.577908 131.518568 
L 113.680537 131.411145 
L 113.768845 131.260753 
L 113.940687 131.153331 
L 114.045702 131.088877 
L 114.172197 130.981455 
L 114.279599 130.852548 
L 114.377454 130.766609 
L 114.480082 130.616218 
L 114.55407 130.508795 
L 114.661471 130.29395 
L 114.704432 130.186527 
L 114.80706 129.993167 
L 114.935942 129.885744 
L 115.000383 129.735352 
L 115.174612 129.62793 
L 115.265307 129.456054 
L 115.408509 129.348631 
L 115.506364 129.219724 
L 115.577965 129.112301 
L 115.673433 129.004879 
L 115.795155 128.897456 
L 115.89301 128.768549 
L 116.033825 128.661126 
L 116.10304 128.596673 
L 116.215215 128.48925 
L 116.315456 128.381828 
L 116.453885 128.274405 
L 116.527873 128.166982 
L 116.649595 128.05956 
L 116.718809 127.973622 
L 116.866784 127.866199 
L 116.976573 127.651354 
L 117.112615 127.543931 
L 117.21763 127.457993 
L 117.458687 127.350571 
L 117.551768 127.15721 
L 117.65917 127.049787 
L 117.737931 126.963849 
L 117.89784 126.856427 
L 118.007628 126.684551 
L 118.248685 126.577128 
L 118.3537 126.383767 
L 118.425301 126.276345 
L 118.513609 126.104468 
L 118.656811 125.997046 
L 118.692612 125.954077 
L 118.878775 125.846654 
L 118.964696 125.739232 
L 119.110285 125.631809 
L 119.217686 125.35251 
L 119.337022 125.245088 
L 119.389529 125.15915 
L 119.549438 125.051727 
L 119.659226 124.944304 
L 119.730827 124.836882 
L 119.833456 124.643521 
L 120.084059 124.536098 
L 120.1127 124.45016 
L 120.31557 124.342738 
L 120.422971 124.170862 
L 120.57572 124.063439 
L 120.683122 123.891563 
L 120.914632 123.78414 
L 121.01726 123.676718 
L 121.198649 123.569295 
L 121.286957 123.461872 
L 121.47312 123.35445 
L 121.559042 123.268512 
L 121.792938 123.161089 
L 121.897953 123.075151 
L 122.172424 122.967728 
L 122.232092 122.88179 
L 122.468375 122.774368 
L 122.563843 122.645461 
L 122.604417 122.581007 
L 122.709432 122.301708 
L 122.800127 122.194286 
L 122.81922 122.108348 
L 122.962423 122.000925 
L 123.034024 121.872018 
L 123.24644 121.764595 
L 123.334748 121.592719 
L 123.606832 121.485297 
L 123.714234 121.377874 
L 123.821635 121.291936 
L 123.91949 121.141544 
L 124.081786 121.034122 
L 124.081786 121.012637 
L 124.401604 120.905214 
L 124.506619 120.754823 
L 124.893265 120.6474 
L 124.988733 120.518493 
L 125.22979 120.41107 
L 125.337192 120.346617 
L 125.523354 120.239194 
L 125.630756 120.088803 
L 125.883746 119.98138 
L 125.907613 119.938411 
L 126.158217 119.830988 
L 126.260845 119.702081 
L 126.413594 119.594659 
L 126.482809 119.55169 
L 126.888548 119.444267 
L 126.924349 119.379814 
L 127.289514 119.272391 
L 127.313381 119.207937 
L 127.537731 119.100515 
L 127.595012 118.993092 
L 127.828909 118.88567 
L 127.92915 118.821216 
L 128.015072 118.713793 
L 128.017458 118.692309 
L 128.308636 118.584886 
L 128.382624 118.498948 
L 128.833711 118.391526 
L 128.855191 118.348557 
L 129.096248 118.241134 
L 129.175009 118.17668 
L 129.561655 118.069258 
L 129.575975 118.026289 
L 129.812259 117.918866 
L 129.90534 117.789959 
L 130.191744 117.682536 
L 130.301533 117.51066 
L 130.435188 117.403238 
L 130.525883 117.338784 
L 130.647605 117.231361 
L 130.726366 117.123939 
L 130.972196 117.016516 
L 131.055731 116.952063 
L 131.358842 116.84464 
L 131.459083 116.780186 
L 131.654793 116.672764 
L 131.702527 116.629795 
L 131.969838 116.522372 
L 132.067693 116.457919 
L 132.466272 116.350496 
L 132.552193 116.307527 
L 132.845758 116.200104 
L 132.881558 116.114166 
L 132.936452 116.114166 
L 133.294458 116.006744 
L 133.387539 115.920806 
L 133.852946 115.813383 
L 133.953187 115.770414 
L 134.227658 115.662991 
L 134.273006 115.555569 
L 134.886388 115.448146 
L 134.953216 115.383693 
L 135.349408 115.27627 
L 135.454423 115.168847 
L 135.736054 115.061425 
L 135.807655 114.996971 
L 136.077353 114.889549 
L 136.077353 114.868064 
L 136.184754 114.868064 
L 138.635898 114.760642 
L 138.743299 114.674703 
L 141.22547 114.567281 
L 141.22547 114.545796 
L 141.251724 114.545796 
L 141.466527 114.438374 
L 141.547675 114.395405 
L 141.573928 114.395405 
L 141.946254 114.287982 
L 142.010695 114.245013 
L 143.158699 114.13759 
L 143.402143 114.094621 
L 144.249422 113.987199 
L 144.354437 113.922745 
L 145.261384 113.815323 
L 145.368785 113.793838 
L 147.337815 113.686416 
L 147.447603 113.621962 
L 147.936877 113.514539 
L 148.041892 113.493055 
L 150.130257 113.385632 
L 150.216178 113.299694 
L 150.719772 113.192272 
L 150.824787 113.170787 
L 152.793817 113.063364 
L 152.903605 112.955942 
L 153.139889 112.848519 
L 153.22581 112.80555 
L 153.624389 112.698128 
L 153.624389 112.676643 
L 153.66019 112.676643 
L 156.0994 112.56922 
L 156.185321 112.504767 
L 156.56958 112.397344 
L 156.631634 112.354375 
L 156.676982 112.354375 
L 158.562477 112.246953 
L 158.801147 112.203984 
L 159.996885 112.096561 
L 160.10906 112.075076 
L 161.708151 111.967654 
L 161.772592 111.838747 
L 162.049449 111.731324 
L 162.078089 111.688355 
L 162.137757 111.688355 
L 162.374041 111.580932 
L 162.405068 111.494994 
L 162.839448 111.387572 
L 162.839448 111.366087 
L 162.918209 111.366087 
L 163.340655 111.258665 
L 163.436123 111.215696 
L 166.264366 111.108273 
L 166.345513 111.065304 
L 166.359834 111.065304 
L 169.271611 110.957881 
L 169.271611 110.936397 
L 169.379012 110.936397 
L 171.925624 110.828974 
L 171.925624 110.80749 
L 173.054534 110.700067 
L 173.054534 110.678583 
L 173.164322 110.678583 
L 174.679879 110.57116 
L 174.679879 110.549675 
L 174.78728 110.549675 
L 176.572534 110.442253 
L 176.572534 110.420768 
L 176.644135 110.420768 
L 176.80643 110.313346 
L 176.885192 110.248892 
L 176.899512 110.248892 
L 177.897153 110.14147 
L 178.014102 110.119985 
L 179.572619 110.012562 
L 179.682407 109.969593 
L 182.3579 109.862171 
L 182.3579 109.840686 
L 182.467689 109.840686 
L 184.520253 109.733264 
L 184.563213 109.690295 
L 184.620494 109.690295 
L 186.935596 109.582872 
L 186.99049 109.539903 
L 189.763838 109.43248 
L 189.763838 109.410996 
L 189.840213 109.410996 
L 192.487066 109.303573 
L 192.487066 109.282089 
L 192.582534 109.282089 
L 193.253197 109.174666 
L 193.343892 109.045759 
L 194.045582 108.938336 
L 194.157757 108.895367 
L 195.355882 108.787945 
L 195.456124 108.723491 
L 195.990745 108.616069 
L 195.990745 108.594584 
L 196.083826 108.594584 
L 196.296243 108.487162 
L 196.322497 108.422708 
L 196.403644 108.422708 
L 196.654248 108.315285 
L 196.697209 108.250832 
L 196.721076 108.250832 
L 197.036121 108.143409 
L 197.131589 108.10044 
L 197.138749 108.10044 
L 197.809412 107.993018 
L 197.923974 107.971533 
L 200.181794 107.86411 
L 200.293969 107.842626 
L 200.427625 107.821141 
L 203.112665 107.713719 
L 203.623419 107.67075 
L 204.160427 107.563327 
L 204.160427 107.541843 
L 204.384778 107.43442 
L 204.482632 107.369966 
L 205.00532 107.262544 
L 205.022027 107.219575 
L 205.105562 107.219575 
L 206.625891 107.112152 
L 206.895589 107.090668 
L 208.229755 106.983245 
L 208.251236 106.940276 
L 208.310903 106.940276 
L 208.683229 106.832853 
L 208.683229 106.811369 
L 208.793017 106.811369 
L 209.153409 106.725431 
L 209.153409 106.682462 
L 209.256037 106.682462 
L 212.115307 106.575039 
L 212.227482 106.53207 
L 212.857571 106.424648 
L 212.857571 106.403163 
L 212.964973 106.403163 
L 217.750311 106.29574 
L 217.750311 106.274256 
L 217.850553 106.274256 
L 222.385288 106.166833 
L 222.385288 106.145349 
L 222.492689 106.145349 
L 226.624071 106.037926 
L 226.714766 105.994957 
L 229.137269 105.887535 
L 229.220803 105.844565 
L 229.528688 105.737143 
L 229.640863 105.715658 
L 230.507236 105.608236 
L 230.640891 105.586751 
L 231.870043 105.479329 
L 231.958351 105.43636 
L 231.972671 105.43636 
L 234.328347 105.328937 
L 234.440522 105.307452 
L 237.476407 105.20003 
L 237.564715 105.157061 
L 238.070696 105.049638 
L 238.108883 105.006669 
L 238.163778 105.006669 
L 239.562385 104.899247 
L 239.665013 104.834793 
L 243.66274 104.72737 
L 243.6699 104.684401 
L 243.758208 104.684401 
L 247.140166 104.576979 
L 247.252341 104.555494 
L 248.818017 104.448072 
L 248.818017 104.426587 
L 248.923032 104.426587 
L 251.825263 104.319164 
L 251.846743 104.254711 
L 252.476832 104.147288 
L 252.524566 104.104319 
L 252.584234 104.104319 
L 254.257312 103.996897 
L 254.257312 103.975412 
L 254.364714 103.975412 
L 256.536613 103.86799 
L 256.54616 103.825021 
L 259.023557 103.717598 
L 259.076065 103.63166 
L 259.625006 103.524237 
L 259.625006 103.502753 
L 259.732408 103.502753 
L 261.722918 103.39533 
L 261.820773 103.244938 
L 262.608384 103.137516 
L 262.608384 103.116031 
L 262.701466 103.116031 
L 264.749256 103.008609 
L 264.806537 102.96564 
L 264.859045 102.96564 
L 267.735021 102.858217 
L 267.770822 102.836733 
L 268.470126 102.72931 
L 268.584687 102.686341 
L 269.565622 102.578918 
L 269.742238 102.557434 
L 270.596678 102.450011 
L 270.649185 102.407042 
L 270.704079 102.407042 
L 270.945136 102.29962 
L 271.062085 102.235166 
L 273.830659 102.127743 
L 273.8593 102.084774 
L 273.933288 102.084774 
L 276.780624 101.977352 
L 276.780624 101.955867 
L 276.878478 101.955867 
L 279.255634 101.848445 
L 279.281888 101.783991 
L 279.360649 101.783991 
L 279.589772 101.676568 
L 279.651827 101.612115 
L 284.313057 101.504692 
L 284.408525 101.440239 
L 285.076801 101.332816 
L 285.076801 101.311332 
L 285.17227 101.311332 
L 286.160364 101.203909 
L 286.160364 101.182424 
L 286.267766 101.182424 
L 289.909874 101.075002 
L 290.017276 101.053517 
L 291.652167 100.946095 
L 291.668874 100.903126 
L 294.10331 100.795703 
L 294.227419 100.774219 
L 296.418412 100.666796 
L 296.52104 100.602342 
L 299.201307 100.49492 
L 299.201307 100.473435 
L 299.590339 100.366013 
L 299.67626 100.25859 
L 300.454325 100.151167 
L 300.463872 100.108198 
L 300.556954 100.108198 
L 300.690609 100.065229 
L 302.191845 99.957807 
L 302.29686 99.871869 
L 302.559397 99.764446 
L 302.659639 99.699993 
L 304.681176 99.59257 
L 304.9461 99.313271 
L 307.705128 99.205849 
L 307.736155 99.16288 
L 307.912771 99.055457 
L 307.912771 99.033972 
L 308.199175 98.92655 
L 308.280323 98.862096 
L 308.936666 98.754674 
L 309.032134 98.69022 
L 309.382979 98.582797 
L 309.492768 98.518344 
L 309.745758 98.410921 
L 309.800652 98.303499 
L 310.134791 98.196076 
L 310.211165 98.088653 
L 310.49757 97.981231 
L 310.576331 97.938262 
L 311.084698 97.830839 
L 311.084698 97.809355 
L 311.118112 97.809355 
L 314.017956 97.701932 
L 314.111037 97.615994 
L 314.247079 97.508571 
L 314.29004 97.465602 
L 314.638498 97.35818 
L 314.681459 97.293726 
L 315.20176 97.186304 
L 315.282908 97.12185 
L 315.294841 97.12185 
L 315.753088 97.014427 
L 315.843783 96.928489 
L 315.85333 96.928489 
L 317.908281 96.821067 
L 317.965562 96.778098 
L 318.476316 96.670675 
L 318.493023 96.627706 
L 318.50973 96.627706 
L 321.509815 96.520283 
L 321.509815 96.498799 
L 324.478873 96.391376 
L 324.55286 96.305438 
L 327.560105 96.198016 
L 327.64364 96.155047 
L 327.939591 96.047624 
L 328.018352 96.004655 
L 328.311917 95.897232 
L 328.352491 95.854263 
L 328.421705 95.854263 
L 328.600708 95.746841 
L 328.734363 95.682387 
L 333.755985 95.574965 
L 333.755985 95.55348 
L 333.763145 95.55348 
L 340.402952 95.446057 
L 340.402952 95.424573 
L 340.433979 95.424573 
L 343.262221 95.31715 
L 343.286088 95.274181 
L 343.333822 95.274181 
L 344.169168 95.166759 
L 344.169168 95.145274 
L 344.27657 95.145274 
L 349.84236 95.059336 
L 349.940215 94.994883 
L 355.537032 94.88746 
L 355.537032 94.865975 
L 355.62534 94.865975 
L 357.775759 94.758553 
L 357.82588 94.715584 
L 360.95962 94.608161 
L 361.043155 94.565192 
L 361.064635 94.565192 
L 363.909584 94.457769 
L 363.933451 94.4148 
L 363.993119 94.4148 
L 368.594681 94.307378 
L 368.685376 94.242924 
L 369.074408 94.156986 
L 369.074408 94.114017 
L 369.107822 94.114017 
L 372.234402 94.006595 
L 372.234402 93.98511 
L 372.339417 93.98511 
L 375.344276 93.877687 
L 375.344276 93.856203 
L 375.449291 93.856203 
L 377.907594 93.74878 
L 377.993515 93.684327 
L 381.270458 93.576904 
L 381.356379 93.533935 
L 384.299183 93.426512 
L 384.411358 93.362059 
L 387.335069 93.254636 
L 387.444857 93.233152 
L 390.153765 93.125729 
L 390.163311 93.08276 
L 390.184792 93.08276 
L 393.915208 92.975338 
L 394.024996 92.953853 
L 396.557287 92.84643 
L 396.621728 92.803461 
L 396.664689 92.803461 
L 404.610021 92.696039 
L 404.610021 92.674554 
L 404.71981 92.674554 
L 407.684094 92.567132 
L 407.684094 92.545647 
L 407.793883 92.545647 
L 416.085287 92.438225 
L 416.085287 92.41674 
L 416.183142 92.41674 
L 423.982885 92.330802 
L 423.982885 92.287833 
L 423.997206 92.287833 
L 424.548534 92.18041 
L 424.548534 92.158926 
L 424.627295 92.158926 
L 430.142965 92.051503 
L 430.142965 92.030019 
L 430.250366 92.030019 
L 432.47716 91.922596 
L 432.579788 91.879627 
L 433.532082 91.772204 
L 433.532082 91.75072 
L 433.639484 91.75072 
L 435.840023 91.643297 
L 435.840023 91.621813 
L 435.923558 91.621813 
L 439.336542 91.51439 
L 439.36757 91.471421 
L 439.393823 91.471421 
L 440.100287 91.363999 
L 440.212462 91.342514 
L 447.84275 91.235091 
L 447.954925 91.170638 
L 450.713953 91.063215 
L 450.840448 91.041731 
L 455.800016 90.934308 
L 455.800016 90.912824 
L 461.256018 90.805401 
L 461.361033 90.762432 
L 463.988792 90.655009 
L 463.988792 90.633525 
L 464.096194 90.633525 
L 468.191775 90.526102 
L 468.306337 90.461649 
L 469.783706 90.354226 
L 469.783706 90.332742 
L 469.836213 90.332742 
L 472.621495 90.225319 
L 472.728897 90.203834 
L 475.325629 90.096412 
L 475.39723 89.903051 
L 478.323327 89.795628 
L 478.418795 89.731175 
L 479.390183 89.623752 
L 479.507132 89.559299 
L 484.049027 89.451876 
L 484.049027 89.430392 
L 484.070507 89.430392 
L 489.638684 89.322969 
L 489.638684 89.301485 
L 498.109091 89.28 
L 498.109091 89.28 
" clip-path="url(#pb4940cfe11)" style="fill: none; stroke: #0000ff; stroke-width: 2; stroke-linecap: square"/>
   </g>
   <g id="line2d_14">
    <path d="M 92.290909 492.48 
L 92.400697 423.579142 
L 92.405471 422.547885 
L 92.515259 406.112227 
L 92.520033 406.026289 
L 92.520033 406.004804 
L 92.627434 394.811369 
L 92.634594 394.703946 
L 92.741996 387.914838 
L 92.746769 387.914838 
L 92.746769 387.871869 
L 92.856558 381.061276 
L 92.861331 381.018307 
L 92.971119 376.055382 
L 92.973506 376.055382 
L 93.083294 369.889325 
L 93.088068 369.889325 
L 93.197856 366.236956 
L 93.202629 366.129534 
L 93.312418 362.606072 
L 93.319578 362.606072 
L 93.426979 359.061126 
L 93.438913 359.018157 
L 93.548701 356.848221 
L 93.558248 356.762283 
L 93.66565 354.678284 
L 93.670423 354.678284 
L 93.777825 353.217337 
L 93.782598 353.217337 
L 93.892386 351.305214 
L 93.899547 351.219276 
L 94.009335 343.076643 
L 94.014108 342.990705 
L 94.123897 331.217188 
L 94.126283 331.217188 
L 94.126283 331.152734 
L 94.236072 318.820619 
L 94.238458 318.820619 
L 94.348247 312.224871 
L 94.362567 311.17213 
L 94.472355 292.867318 
L 94.479515 291.836061 
L 94.589304 277.291041 
L 94.596464 276.259784 
L 94.706252 263.8847 
L 94.708639 263.8847 
L 94.708639 263.841731 
L 94.81604 259.888579 
L 94.827974 259.781156 
L 94.932989 257.976457 
L 94.961629 257.912003 
L 95.071417 255.247922 
L 95.080964 255.204953 
L 95.190753 245.837702 
L 95.195526 245.794733 
L 95.305314 241.02517 
L 95.317248 240.917747 
L 95.427036 239.607191 
L 95.443743 239.521253 
L 95.553531 237.952883 
L 95.560691 237.845461 
L 95.668093 236.277091 
L 95.682413 236.191153 
L 95.792202 232.023156 
L 95.844709 230.820022 
L 96.12634 209.206595 
L 96.135887 209.120656 
L 96.245675 208.239791 
L 96.252835 208.175338 
L 96.362624 206.606968 
L 96.367397 206.585483 
L 96.474799 205.231958 
L 96.479572 205.231958 
L 96.632321 201.10693 
L 96.637094 200.999508 
L 96.744496 199.903797 
L 96.754043 199.817859 
L 96.861444 198.44285 
L 96.878151 198.335427 
L 96.985553 197.368624 
L 96.999873 197.282686 
L 97.104888 196.487758 
L 97.119208 196.444789 
L 97.22661 195.327594 
L 97.257637 195.220172 
L 97.365039 194.339306 
L 97.386519 194.231884 
L 97.496307 193.114689 
L 97.515401 193.007266 
L 97.618029 191.739679 
L 97.639509 191.632257 
L 97.749298 190.966236 
L 97.780325 190.858814 
L 97.887726 189.89201 
L 97.916367 189.784588 
L 98.021382 188.817784 
L 98.057182 188.710362 
L 98.15981 187.936919 
L 98.195611 187.850981 
L 98.303013 187.099023 
L 98.324493 187.013085 
L 98.434281 186.282611 
L 98.455762 186.175188 
L 98.56555 185.401746 
L 98.591804 185.315808 
L 98.699205 184.477911 
L 98.713525 184.391973 
L 98.820927 183.360716 
L 98.842407 183.296263 
L 98.945036 182.694696 
L 98.968903 182.587273 
L 99.073918 181.921253 
L 99.102558 181.813831 
L 99.20996 181.233749 
L 99.23144 181.19078 
L 99.334068 180.417337 
L 99.360322 180.352883 
L 99.465337 179.493502 
L 99.493977 179.407564 
L 99.601379 178.72006 
L 99.630019 178.612637 
L 99.732647 178.05404 
L 99.761288 177.968101 
L 99.868689 177.280597 
L 99.892556 177.173174 
L 99.997571 176.550123 
L 100.033372 176.4427 
L 100.136 175.798165 
L 100.171801 175.712227 
L 100.281589 174.745423 
L 100.310229 174.638001 
L 100.417631 173.950496 
L 100.441498 173.843073 
L 100.544126 173.155569 
L 100.57038 173.069631 
L 100.680168 172.253219 
L 100.701649 172.145796 
L 100.811437 171.565714 
L 100.835304 171.458292 
L 100.945092 171.007117 
L 100.978506 170.899694 
L 101.088294 170.341097 
L 101.100228 170.255159 
L 101.205243 169.653592 
L 101.267297 169.589138 
L 101.374699 169.030541 
L 101.408113 168.923118 
L 101.517901 168.128191 
L 101.551315 168.020768 
L 101.661103 167.397717 
L 101.725544 167.290295 
L 101.835332 166.731697 
L 101.842492 166.667244 
L 101.949894 166.216069 
L 101.995241 166.108646 
L 102.09787 165.678956 
L 102.121737 165.614502 
L 102.231525 165.055905 
L 102.238685 165.055905 
L 102.32938 164.432853 
L 102.381887 164.346915 
L 102.491675 163.874256 
L 102.517929 163.809802 
L 102.625331 163.186751 
L 102.663518 163.079329 
L 102.773306 162.692607 
L 102.79956 162.585185 
L 102.906962 161.919164 
L 103.004816 161.811742 
L 103.109831 161.296113 
L 103.164726 161.188691 
L 103.274514 160.56564 
L 103.298381 160.479702 
L 103.403396 160.071496 
L 103.47261 159.985558 
L 103.577625 159.512898 
L 103.618199 159.405476 
L 103.720827 158.846878 
L 103.754241 158.76094 
L 103.849709 158.33125 
L 103.887896 158.223827 
L 103.995298 157.665229 
L 104.093153 157.557807 
L 104.202941 157.128116 
L 104.236355 157.020694 
L 104.32705 156.784364 
L 104.365237 156.676941 
L 104.465478 156.376158 
L 104.501279 156.268736 
L 104.611067 155.731623 
L 104.656415 155.6242 
L 104.766203 155.173025 
L 104.823484 155.065602 
L 104.933272 154.635912 
L 104.966686 154.528489 
L 105.050221 154.227706 
L 105.124208 154.141768 
L 105.219676 153.712078 
L 105.281731 153.62614 
L 105.381972 153.15348 
L 105.408226 153.046057 
L 105.501307 152.702305 
L 105.584842 152.594883 
L 105.69463 152.122223 
L 105.713724 152.036285 
L 105.821125 151.671048 
L 105.849766 151.563626 
L 105.952394 151.262842 
L 106.028769 151.15542 
L 106.138557 150.725729 
L 106.171971 150.639791 
L 106.279372 150.274554 
L 106.348587 150.167132 
L 106.455988 149.844864 
L 106.522816 149.737441 
L 106.632604 149.501112 
L 106.675565 149.393689 
L 106.778193 149.11439 
L 106.818767 149.028452 
L 106.926169 148.749153 
L 106.988223 148.663215 
L 107.095625 148.21204 
L 107.167226 148.104618 
L 107.260307 147.868288 
L 107.341455 147.760865 
L 107.451243 147.417113 
L 107.487044 147.331175 
L 107.594445 147.073361 
L 107.646953 146.965938 
L 107.756741 146.600701 
L 107.797315 146.493279 
L 107.904717 146.256949 
L 107.959611 146.171011 
L 108.069399 145.719836 
L 108.162481 145.612413 
L 108.257949 145.247176 
L 108.300909 145.161238 
L 108.405924 144.817486 
L 108.434565 144.731548 
L 108.53958 144.40928 
L 108.58254 144.323342 
L 108.687555 144.065528 
L 108.740063 143.97959 
L 108.835531 143.571384 
L 108.916679 143.485446 
L 109.021693 143.07724 
L 109.114775 142.969817 
L 109.217403 142.647549 
L 109.246043 142.540127 
L 109.341512 142.217859 
L 109.43698 142.110436 
L 109.534834 141.895591 
L 109.618369 141.809653 
L 109.713837 141.315509 
L 109.868973 141.208087 
L 109.976374 140.950272 
L 110.038429 140.885819 
L 110.126737 140.563551 
L 110.195951 140.456128 
L 110.305739 140.155345 
L 110.374954 140.047922 
L 110.470422 139.725655 
L 110.525316 139.618232 
L 110.616011 139.252995 
L 110.713865 139.145573 
L 110.816494 138.909243 
L 110.938216 138.80182 
L 111.040844 138.501037 
L 111.153019 138.393614 
L 111.262807 138.243223 
L 111.310541 138.1358 
L 111.420329 137.877986 
L 111.489544 137.770563 
L 111.596945 137.555718 
L 111.68764 137.448295 
L 111.797428 137.190481 
L 111.866643 137.104543 
L 111.966884 136.911182 
L 112.09338 136.80376 
L 112.196008 136.545946 
L 112.241355 136.438523 
L 112.343983 136.180709 
L 112.410811 136.073286 
L 112.508666 135.858441 
L 112.54208 135.751018 
L 112.647094 135.536173 
L 112.735402 135.42875 
L 112.783137 135.342812 
L 112.909632 135.23539 
L 113.01942 135.042029 
L 113.057607 134.934606 
L 113.145915 134.76273 
L 113.219903 134.655308 
L 113.322531 134.504916 
L 113.444253 134.397493 
L 113.537335 134.053741 
L 113.613709 133.967803 
L 113.718724 133.795927 
L 113.807032 133.688504 
L 113.9025 133.538113 
L 114.009902 133.43069 
L 114.117303 133.323267 
L 114.186518 133.215845 
L 114.293919 132.936546 
L 114.36552 132.829123 
L 114.458602 132.571309 
L 114.563617 132.463887 
L 114.661471 132.249041 
L 114.752166 132.141619 
L 114.857181 131.926774 
L 114.964583 131.819351 
L 115.064824 131.647475 
L 115.157905 131.540052 
L 115.25576 131.282238 
L 115.324975 131.174815 
L 115.427603 131.045908 
L 115.492044 130.95997 
L 115.570805 130.745125 
L 115.804702 130.637702 
L 115.890623 130.53028 
L 116.055306 130.422857 
L 116.162707 130.250981 
L 116.270109 130.143558 
L 116.372737 130.036136 
L 116.523099 129.928713 
L 116.632888 129.756837 
L 116.737903 129.649414 
L 116.833371 129.499023 
L 116.971799 129.3916 
L 117.057721 129.176755 
L 117.074428 129.176755 
L 117.184216 129.069332 
L 117.282071 128.875972 
L 117.356058 128.768549 
L 117.46346 128.639642 
L 117.597115 128.532219 
L 117.70213 128.231436 
L 117.840559 128.124013 
L 117.938414 128.016591 
L 118.005242 127.909168 
L 118.110256 127.651354 
L 118.234365 127.543931 
L 118.310739 127.436509 
L 118.437235 127.329086 
L 118.537476 127.135725 
L 118.721252 127.028303 
L 118.821494 126.92088 
L 118.857294 126.813458 
L 118.962309 126.72752 
L 119.069711 126.620097 
L 119.172339 126.512674 
L 119.205753 126.405252 
L 119.313155 126.190407 
L 119.368049 126.082984 
L 119.47545 125.932592 
L 119.611492 125.82517 
L 119.6998 125.760716 
L 119.771401 125.674778 
L 119.840616 125.395479 
L 120.036325 125.288057 
L 120.13418 125.15915 
L 120.222488 125.051727 
L 120.320343 124.879851 
L 120.475479 124.772428 
L 120.542306 124.622037 
L 120.699829 124.514614 
L 120.802457 124.428676 
L 120.907472 124.342738 
L 120.99578 124.213831 
L 121.129435 124.106408 
L 121.208196 123.934532 
L 121.282184 123.827109 
L 121.339465 123.698202 
L 121.470734 123.612264 
L 121.554268 123.440388 
L 121.759525 123.332965 
L 121.843059 123.225543 
L 122.062636 123.11812 
L 122.14617 122.924759 
L 122.236865 122.817337 
L 122.332333 122.68843 
L 122.571003 122.581007 
L 122.676018 122.409131 
L 122.850248 122.301708 
L 122.931395 122.129832 
L 122.995836 122.02241 
L 123.091305 121.893502 
L 123.277467 121.78608 
L 123.349068 121.700142 
L 123.499431 121.592719 
L 123.594899 121.463812 
L 123.778675 121.356389 
L 123.886076 121.205998 
L 124.103266 121.098575 
L 124.198734 120.991153 
L 124.387284 120.88373 
L 124.473205 120.733338 
L 124.635501 120.625916 
L 124.742903 120.497009 
L 124.828824 120.389586 
L 124.938612 120.303648 
L 125.072268 120.196225 
L 125.158189 120.045834 
L 125.392086 119.938411 
L 125.413566 119.873957 
L 127.90767 119.573174 
L 128.012685 119.401298 
L 128.265675 119.293875 
L 128.337277 119.229422 
L 128.554466 119.121999 
L 128.664255 118.993092 
L 128.857578 118.88567 
L 128.957819 118.778247 
L 129.229903 118.670824 
L 129.318211 118.563402 
L 129.47096 118.455979 
L 129.556882 118.391526 
L 129.607002 118.284103 
L 129.647576 118.219649 
L 129.864766 118.112227 
L 129.933981 118.026289 
L 130.127303 117.918866 
L 130.194131 117.832928 
L 130.482922 117.725505 
L 130.57839 117.596598 
L 130.740686 117.489176 
L 130.843314 117.381753 
L 131.029477 117.27433 
L 131.062891 117.166908 
L 131.332588 117.059485 
L 131.430443 116.909094 
L 131.66434 116.801671 
L 131.738328 116.715733 
L 131.92449 116.60831 
L 131.972224 116.565341 
L 135.017657 116.457919 
L 135.051071 116.41495 
L 138.896048 116.307527 
L 138.896048 116.286043 
L 138.948556 116.286043 
L 140.106106 116.17862 
L 140.213508 116.114166 
L 141.535741 116.006744 
L 141.535741 115.985259 
L 141.643143 115.985259 
L 143.784015 115.877837 
L 143.786402 115.834868 
L 143.886643 115.834868 
L 146.512016 115.727445 
L 146.58839 115.641507 
L 146.593164 115.641507 
L 149.204216 115.534084 
L 149.280591 115.491115 
L 151.626719 115.383693 
L 151.736508 115.254786 
L 151.956084 115.147363 
L 152.030072 115.03994 
L 152.228168 114.932518 
L 152.316476 114.760642 
L 152.533666 114.674703 
L 152.617201 114.545796 
L 153.02294 114.438374 
L 153.094541 114.37392 
L 155.684114 114.266498 
L 155.784355 114.159075 
L 156.015865 114.051652 
L 156.12088 114.008683 
L 157.314231 113.901261 
L 157.941934 113.858292 
L 159.104258 113.750869 
L 159.209273 113.664931 
L 159.395436 113.557508 
L 159.469424 113.47157 
L 162.161624 113.364148 
L 162.259479 113.321179 
L 162.381201 113.235241 
L 162.462349 113.149302 
L 162.605551 113.04188 
L 162.715339 112.891488 
L 163.156879 112.784066 
L 163.204613 112.698128 
L 163.335882 112.590705 
L 163.44567 112.483282 
L 164.257149 112.37586 
L 164.345457 112.332891 
L 166.567477 112.225468 
L 166.653398 112.13953 
L 166.78944 112.053592 
L 166.894455 111.881716 
L 167.025724 111.774293 
L 167.054364 111.688355 
L 167.390889 111.580932 
L 167.500677 111.516479 
L 168.040072 111.409056 
L 168.040072 111.387572 
L 168.061553 111.387572 
L 170.768073 111.280149 
L 170.873088 111.215696 
L 171.223933 111.129758 
L 171.223933 111.086789 
L 171.462604 110.979366 
L 171.522271 110.936397 
L 171.760941 110.828974 
L 171.777648 110.764521 
L 172.214415 110.678583 
L 172.321816 110.506706 
L 172.522299 110.399284 
L 172.627314 110.270377 
L 172.813477 110.162954 
L 172.813477 110.14147 
L 173.123748 110.034047 
L 173.21683 109.948109 
L 173.305138 109.840686 
L 173.383899 109.797717 
L 173.548582 109.690295 
L 173.622569 109.561388 
L 173.787252 109.453965 
L 173.887493 109.389511 
L 174.959123 109.282089 
L 174.959123 109.260604 
L 174.987763 109.260604 
L 180.171681 109.153182 
L 180.267149 109.088728 
L 180.524913 108.981305 
L 180.591741 108.916852 
L 180.859051 108.809429 
L 180.956906 108.744976 
L 183.486811 108.637553 
L 183.603759 108.616069 
L 185.147956 108.508646 
L 185.147956 108.487162 
L 185.255357 108.487162 
L 187.436803 108.379739 
L 187.527498 108.293801 
L 187.87357 108.186378 
L 187.91653 108.143409 
L 188.128947 108.035987 
L 188.183841 107.950048 
L 188.5323 107.842626 
L 188.584807 107.756688 
L 189.200576 107.649265 
L 189.296044 107.563327 
L 189.532328 107.455905 
L 189.63257 107.369966 
L 189.849759 107.262544 
L 189.933294 107.19809 
L 189.942841 107.19809 
L 190.281753 107.090668 
L 190.360514 107.00473 
L 190.682719 106.897307 
L 190.728066 106.832853 
L 191.315195 106.725431 
L 191.329515 106.682462 
L 191.534771 106.575039 
L 191.568185 106.510586 
L 191.880843 106.403163 
L 191.961991 106.317225 
L 192.284196 106.209802 
L 192.370117 106.123864 
L 192.854618 106.016442 
L 192.935766 105.930504 
L 193.083741 105.823081 
L 193.19353 105.758627 
L 193.367759 105.651205 
L 193.405946 105.608236 
L 193.940567 105.500813 
L 193.988302 105.43636 
L 194.32244 105.328937 
L 194.408361 105.285968 
L 194.723406 105.178545 
L 194.723406 105.157061 
L 195.131532 105.049638 
L 195.176879 105.006669 
L 195.811742 104.899247 
L 195.811742 104.877762 
L 196.126787 104.770339 
L 196.141107 104.72737 
L 196.654248 104.619948 
L 196.756876 104.512525 
L 197.117268 104.405103 
L 197.22467 104.340649 
L 197.475274 104.233226 
L 197.580289 104.190257 
L 197.845213 104.082835 
L 197.955001 103.932443 
L 198.456209 103.825021 
L 198.523036 103.760567 
L 198.830921 103.653144 
L 198.931162 103.588691 
L 199.41089 103.481268 
L 199.480104 103.438299 
L 199.833336 103.330877 
L 199.871523 103.287907 
L 200.117353 103.180485 
L 200.117353 103.159 
L 200.666295 103.051578 
L 200.730736 102.944155 
L 201.270131 102.836733 
L 201.270131 102.815248 
L 201.912154 102.707825 
L 201.912154 102.686341 
L 202.508829 102.578918 
L 202.508829 102.557434 
L 202.833421 102.450011 
L 202.862061 102.407042 
L 203.286894 102.29962 
L 203.391909 102.213681 
L 203.842996 102.106259 
L 203.842996 102.084774 
L 204.196228 101.977352 
L 204.267829 101.891414 
L 204.601967 101.783991 
L 204.678342 101.676568 
L 205.138975 101.569146 
L 205.210577 101.504692 
L 206.131844 101.39727 
L 206.210605 101.354301 
L 206.432568 101.246878 
L 206.475529 101.203909 
L 206.938549 101.096486 
L 206.97435 101.010548 
L 207.554318 100.903126 
L 207.554318 100.881641 
L 208.234529 100.774219 
L 208.234529 100.752734 
L 208.816884 100.645311 
L 208.816884 100.623827 
L 209.392079 100.516404 
L 209.392079 100.49492 
L 210.544857 100.408982 
L 210.585431 100.344528 
L 211.458964 100.237106 
L 211.547272 100.194137 
L 212.282376 100.086714 
L 212.282376 100.065229 
L 213.268084 99.957807 
L 213.368326 99.914838 
L 213.898174 99.807415 
L 213.898174 99.785931 
L 214.848081 99.678508 
L 214.864788 99.614054 
L 215.6524 99.506632 
L 215.733548 99.442178 
L 216.382731 99.334756 
L 216.473426 99.248818 
L 217.542668 99.141395 
L 217.542668 99.11991 
L 217.576082 99.11991 
L 219.122665 99.012488 
L 219.122665 98.991003 
L 219.948464 98.883581 
L 219.981878 98.840612 
L 220.020065 98.840612 
L 220.435352 98.733189 
L 220.506953 98.69022 
L 221.478341 98.582797 
L 221.485501 98.539828 
L 221.566649 98.539828 
L 222.674079 98.432406 
L 222.674079 98.410921 
L 222.688399 98.410921 
L 223.306555 98.303499 
L 223.361449 98.26053 
L 223.89607 98.153107 
L 223.934257 98.110138 
L 225.161023 98.002715 
L 225.161023 97.981231 
L 225.822139 97.873808 
L 225.822139 97.852324 
L 225.860326 97.852324 
L 226.853195 97.744901 
L 226.853195 97.723417 
L 227.85561 97.615994 
L 227.85561 97.59451 
L 229.227964 97.487087 
L 229.306725 97.379664 
L 230.784094 97.272242 
L 230.874788 97.207788 
L 233.173183 97.100366 
L 233.282971 97.057396 
L 233.841459 96.949974 
L 233.917834 96.907005 
L 235.347469 96.799582 
L 235.41191 96.756613 
L 236.187588 96.649191 
L 236.187588 96.627706 
L 236.941786 96.520283 
L 236.941786 96.498799 
L 240.211568 96.391376 
L 240.211568 96.369892 
L 240.309423 96.369892 
L 241.86078 96.262469 
L 241.953861 96.2195 
L 241.965795 96.2195 
L 243.066065 96.112078 
L 243.066065 96.090593 
L 243.135279 96.090593 
L 244.541047 95.98317 
L 244.541047 95.961686 
L 246.056603 95.854263 
L 246.135364 95.811294 
L 247.168806 95.703872 
L 247.168806 95.682387 
L 247.18074 95.682387 
L 249.19273 95.574965 
L 249.19273 95.55348 
L 249.218983 95.55348 
L 252.78949 95.446057 
L 252.78949 95.424573 
L 255.579546 95.31715 
L 255.622506 95.274181 
L 257.305131 95.166759 
L 257.305131 95.145274 
L 257.41492 95.145274 
L 259.135732 95.037852 
L 259.135732 95.016367 
L 259.200173 95.016367 
L 261.811226 94.908944 
L 261.811226 94.88746 
L 262.746813 94.780037 
L 262.851828 94.737068 
L 265.887714 94.629646 
L 265.887714 94.608161 
L 265.894874 94.608161 
L 267.933118 94.500739 
L 267.933118 94.479254 
L 268.026199 94.479254 
L 271.119365 94.371831 
L 271.119365 94.350347 
L 272.973833 94.242924 
L 272.973833 94.22144 
L 274.921382 94.114017 
L 274.921382 94.092533 
L 278.706693 93.98511 
L 278.706693 93.963626 
L 280.835631 93.856203 
L 280.835631 93.834718 
L 283.61614 93.727296 
L 283.61614 93.705811 
L 288.945646 93.598389 
L 288.945646 93.576904 
L 293.270351 93.469482 
L 293.270351 93.447997 
L 294.7692 93.340574 
L 294.7692 93.31909 
L 294.800227 93.31909 
L 300.564114 93.211667 
L 300.564114 93.190183 
L 300.673902 93.190183 
L 305.327972 93.08276 
L 305.327972 93.061276 
L 308.707543 92.953853 
L 308.707543 92.932369 
L 308.764824 92.932369 
L 314.471429 92.824946 
L 314.471429 92.803461 
L 318.094443 92.696039 
L 318.187525 92.631585 
L 321.292625 92.524163 
L 321.292625 92.502678 
L 322.987184 92.395256 
L 322.987184 92.373771 
L 328.76539 92.266348 
L 328.76539 92.244864 
L 328.853698 92.244864 
L 331.908677 92.137441 
L 331.908677 92.115957 
L 337.307398 92.008534 
L 337.307398 91.98705 
L 337.347972 91.98705 
L 339.753768 91.879627 
L 339.753768 91.858142 
L 339.834916 91.858142 
L 347.796956 91.75072 
L 347.796956 91.729235 
L 352.379425 91.621813 
L 352.379425 91.600328 
L 352.422385 91.600328 
L 357.20295 91.492906 
L 357.20295 91.471421 
L 357.267391 91.471421 
L 358.563371 91.363999 
L 358.563371 91.342514 
L 361.41548 91.235091 
L 361.41548 91.213607 
L 361.506175 91.213607 
L 370.379935 91.106184 
L 370.379935 91.0847 
L 370.484949 91.0847 
L 380.148708 90.977277 
L 380.148708 90.955793 
L 385.39468 90.84837 
L 385.39468 90.826885 
L 385.494921 90.826885 
L 389.63585 90.719463 
L 389.63585 90.697978 
L 393.60971 90.590556 
L 393.707565 90.547587 
L 393.717111 90.547587 
L 397.020308 90.440164 
L 397.020308 90.41868 
L 397.127709 90.41868 
L 404.970414 90.311257 
L 404.970414 90.289772 
L 405.030081 90.289772 
L 413.710518 90.18235 
L 413.710518 90.160865 
L 429.336259 90.053443 
L 429.336259 90.031958 
L 441.58959 89.924536 
L 441.58959 89.903051 
L 441.665964 89.903051 
L 455.301195 89.795628 
L 455.301195 89.774144 
L 471.905484 89.666721 
L 471.905484 89.645237 
L 480.201662 89.537814 
L 480.201662 89.51633 
L 485.8128 89.408907 
L 485.8128 89.387423 
L 498.109091 89.28 
L 498.109091 89.28 
" clip-path="url(#pb4940cfe11)" style="fill: none; stroke: #ff0000; stroke-width: 2; stroke-linecap: square"/>
   </g>
   <g id="line2d_15">
    <path d="M 92.290909 492.48 
L 498.109091 89.28 
" clip-path="url(#pb4940cfe11)" style="fill: none; stroke-dasharray: 7.4,3.2; stroke-dashoffset: 0; stroke: #000000; stroke-width: 2"/>
   </g>
   <g id="patch_3">
    <path d="M 72 512.64 
L 72 69.12 
" style="fill: none; stroke: #000000; stroke-width: 0.8; stroke-linejoin: miter; stroke-linecap: square"/>
   </g>
   <g id="patch_4">
    <path d="M 518.4 512.64 
L 518.4 69.12 
" style="fill: none; stroke: #000000; stroke-width: 0.8; stroke-linejoin: miter; stroke-linecap: square"/>
   </g>
   <g id="patch_5">
    <path d="M 72 512.64 
L 518.4 512.64 
" style="fill: none; stroke: #000000; stroke-width: 0.8; stroke-linejoin: miter; stroke-linecap: square"/>
   </g>
   <g id="patch_6">
    <path d="M 72 69.12 
L 518.4 69.12 
" style="fill: none; stroke: #000000; stroke-width: 0.8; stroke-linejoin: miter; stroke-linecap: square"/>
   </g>
   <g id="text_15">
    <!-- IMG-ABC ROC -->
    <g transform="translate(262.2 63.12) scale(0.12 -0.12)">
     <defs>
      <path id="SimHei-49" d="M 1850 125 
L 1275 125 
L 1275 4400 
L 1850 4400 
L 1850 125 
z
" transform="scale(0.015625)"/>
      <path id="SimHei-4d" d="M 2925 125 
L 2425 125 
L 2425 3175 
L 2375 3175 
L 1775 125 
L 1375 125 
L 775 3175 
L 725 3175 
L 725 125 
L 225 125 
L 225 4400 
L 1000 4400 
L 1550 1575 
L 1600 1575 
L 2150 4400 
L 2925 4400 
L 2925 125 
z
" transform="scale(0.015625)"/>
      <path id="SimHei-47" d="M 2850 75 
L 2425 75 
L 2350 425 
Q 2250 275 2037 175 
Q 1825 75 1575 75 
Q 1050 75 637 562 
Q 225 1050 225 2125 
Q 225 3300 600 3875 
Q 975 4450 1625 4450 
Q 2200 4450 2525 4025 
Q 2850 3600 2850 2925 
L 2300 2925 
Q 2300 3450 2125 3712 
Q 1950 3975 1625 3975 
Q 1225 3975 1025 3562 
Q 825 3150 825 2175 
Q 825 1250 1075 900 
Q 1325 550 1650 550 
Q 1975 550 2162 787 
Q 2350 1025 2350 1525 
L 2350 1800 
L 1575 1800 
L 1575 2275 
L 2850 2275 
L 2850 75 
z
" transform="scale(0.015625)"/>
      <path id="SimHei-2d" d="M 2975 2125 
L 125 2125 
L 125 2525 
L 2975 2525 
L 2975 2125 
z
" transform="scale(0.015625)"/>
      <path id="SimHei-41" d="M 3075 125 
L 2475 125 
L 2125 1450 
L 1025 1450 
L 675 125 
L 75 125 
L 1325 4450 
L 1825 4450 
L 3075 125 
z
M 2000 1925 
L 1600 3450 
L 1550 3450 
L 1150 1925 
L 2000 1925 
z
" transform="scale(0.015625)"/>
      <path id="SimHei-42" d="M 2950 1400 
Q 2950 675 2550 400 
Q 2150 125 1525 125 
L 275 125 
L 275 4400 
L 1575 4400 
Q 2200 4400 2512 4075 
Q 2825 3750 2825 3300 
Q 2825 2850 2612 2637 
Q 2400 2425 2175 2350 
Q 2475 2275 2712 2037 
Q 2950 1800 2950 1400 
z
M 2250 3300 
Q 2250 3625 2062 3775 
Q 1875 3925 1600 3925 
L 850 3925 
L 850 2600 
L 1575 2600 
Q 1850 2600 2050 2762 
Q 2250 2925 2250 3300 
z
M 2350 1400 
Q 2350 1800 2087 1962 
Q 1825 2125 1500 2125 
L 850 2125 
L 850 600 
L 1425 600 
Q 1875 600 2112 775 
Q 2350 950 2350 1400 
z
" transform="scale(0.015625)"/>
      <path id="SimHei-43" d="M 2975 1825 
Q 2950 875 2575 475 
Q 2200 75 1675 75 
Q 1075 75 650 562 
Q 225 1050 225 2125 
Q 225 3300 637 3875 
Q 1050 4450 1700 4450 
Q 2250 4450 2612 4037 
Q 2975 3625 2950 2875 
L 2400 2875 
Q 2400 3425 2225 3700 
Q 2050 3975 1700 3975 
Q 1300 3975 1062 3562 
Q 825 3150 825 2175 
Q 825 1275 1062 912 
Q 1300 550 1675 550 
Q 1950 550 2175 812 
Q 2400 1075 2400 1825 
L 2975 1825 
z
" transform="scale(0.015625)"/>
      <path id="SimHei-4f" d="M 2950 2275 
Q 2950 1100 2587 587 
Q 2225 75 1575 75 
Q 925 75 550 587 
Q 175 1100 175 2275 
Q 175 3450 550 3950 
Q 925 4450 1575 4450 
Q 2225 4450 2587 3950 
Q 2950 3450 2950 2275 
z
M 2350 2275 
Q 2350 3325 2125 3650 
Q 1900 3975 1575 3975 
Q 1250 3975 1012 3650 
Q 775 3325 775 2275 
Q 775 1225 1012 887 
Q 1250 550 1575 550 
Q 1900 550 2125 887 
Q 2350 1225 2350 2275 
z
" transform="scale(0.015625)"/>
     </defs>
     <use xlink:href="#SimHei-49"/>
     <use xlink:href="#SimHei-4d" x="50"/>
     <use xlink:href="#SimHei-47" x="100"/>
     <use xlink:href="#SimHei-2d" x="150"/>
     <use xlink:href="#SimHei-41" x="200"/>
     <use xlink:href="#SimHei-42" x="250"/>
     <use xlink:href="#SimHei-43" x="300"/>
     <use xlink:href="#SimHei-20" x="350"/>
     <use xlink:href="#SimHei-52" x="400"/>
     <use xlink:href="#SimHei-4f" x="450"/>
     <use xlink:href="#SimHei-43" x="500"/>
    </g>
   </g>
   <g id="legend_1">
    <g id="patch_7">
     <path d="M 304.4 507.64 
L 511.4 507.64 
Q 513.4 507.64 513.4 505.64 
L 513.4 479.530625 
Q 513.4 477.530625 511.4 477.530625 
L 304.4 477.530625 
Q 302.4 477.530625 302.4 479.530625 
L 302.4 505.64 
Q 302.4 507.64 304.4 507.64 
z
" style="fill: #ffffff; opacity: 0.8; stroke: #cccccc; stroke-linejoin: miter"/>
    </g>
    <g id="line2d_16">
     <path d="M 306.4 485.335312 
L 316.4 485.335312 
L 326.4 485.335312 
" style="fill: none; stroke: #0000ff; stroke-width: 2; stroke-linecap: square"/>
    </g>
    <g id="text_16">
     <!-- LSTM ROC curve (area = 0.96) -->
     <g transform="translate(334.4 488.835312) scale(0.1 -0.1)">
      <defs>
       <path id="SimHei-4c" d="M 2900 125 
L 300 125 
L 300 4400 
L 875 4400 
L 875 600 
L 2900 600 
L 2900 125 
z
" transform="scale(0.015625)"/>
       <path id="SimHei-53" d="M 2900 1325 
Q 2900 750 2537 412 
Q 2175 75 1550 75 
Q 925 75 575 425 
Q 225 775 225 1300 
L 225 1475 
L 800 1475 
L 800 1325 
Q 800 950 1025 750 
Q 1250 550 1550 550 
Q 1950 550 2137 762 
Q 2325 975 2325 1275 
Q 2325 1525 2100 1737 
Q 1875 1950 1450 2125 
Q 850 2350 587 2625 
Q 325 2900 325 3275 
Q 325 3800 687 4125 
Q 1050 4450 1550 4450 
Q 2200 4450 2487 4062 
Q 2775 3675 2775 3225 
L 2200 3225 
Q 2225 3500 2050 3725 
Q 1875 3950 1550 3950 
Q 1250 3950 1075 3787 
Q 900 3625 900 3350 
Q 900 3125 1037 2962 
Q 1175 2800 1750 2575 
Q 2300 2350 2600 2037 
Q 2900 1725 2900 1325 
z
" transform="scale(0.015625)"/>
       <path id="SimHei-63" d="M 2850 1250 
Q 2850 725 2487 400 
Q 2125 75 1575 75 
Q 1025 75 625 462 
Q 225 850 225 1525 
Q 225 2200 625 2587 
Q 1025 2975 1575 2975 
Q 2125 2975 2450 2687 
Q 2775 2400 2775 2000 
L 2225 2000 
Q 2200 2300 2012 2412 
Q 1825 2525 1575 2525 
Q 1275 2525 1025 2287 
Q 775 2050 775 1525 
Q 775 1000 1025 762 
Q 1275 525 1575 525 
Q 1900 525 2100 700 
Q 2300 875 2300 1250 
L 2850 1250 
z
" transform="scale(0.015625)"/>
       <path id="SimHei-28" d="M 2975 -200 
L 2700 -475 
Q 2075 125 1762 775 
Q 1450 1425 1450 2250 
Q 1450 3075 1762 3725 
Q 2075 4375 2700 5000 
L 2975 4725 
Q 2400 4175 2112 3587 
Q 1825 3000 1825 2250 
Q 1825 1500 2112 912 
Q 2400 325 2975 -200 
z
" transform="scale(0.015625)"/>
       <path id="SimHei-3d" d="M 2975 2900 
L 125 2900 
L 125 3300 
L 2975 3300 
L 2975 2900 
z
M 2975 1375 
L 125 1375 
L 125 1775 
L 2975 1775 
L 2975 1375 
z
" transform="scale(0.015625)"/>
       <path id="SimHei-39" d="M 800 75 
Q 1350 1000 1700 1750 
Q 1075 1650 662 1912 
Q 250 2175 162 2625 
Q 75 3075 175 3437 
Q 275 3800 487 4037 
Q 700 4275 1000 4375 
Q 1300 4475 1537 4475 
Q 1775 4475 2025 4375 
Q 2275 4275 2475 4075 
Q 2675 3875 2750 3662 
Q 2825 3450 2825 3112 
Q 2825 2775 2575 2250 
Q 2325 1725 1350 75 
L 800 75 
z
M 662 2875 
Q 700 2550 937 2337 
Q 1175 2125 1450 2150 
Q 1725 2175 1887 2300 
Q 2050 2425 2200 2725 
Q 2300 3100 2250 3362 
Q 2200 3625 1987 3800 
Q 1775 3975 1525 3975 
Q 1375 4000 1137 3900 
Q 900 3800 762 3500 
Q 625 3200 662 2875 
z
" transform="scale(0.015625)"/>
       <path id="SimHei-29" d="M 1675 2250 
Q 1675 1425 1362 775 
Q 1050 125 425 -475 
L 150 -200 
Q 725 325 1012 912 
Q 1300 1500 1300 2250 
Q 1300 3000 1012 3587 
Q 725 4175 150 4725 
L 425 5000 
Q 1050 4375 1362 3725 
Q 1675 3075 1675 2250 
z
" transform="scale(0.015625)"/>
      </defs>
      <use xlink:href="#SimHei-4c"/>
      <use xlink:href="#SimHei-53" x="50"/>
      <use xlink:href="#SimHei-54" x="100"/>
      <use xlink:href="#SimHei-4d" x="150"/>
      <use xlink:href="#SimHei-20" x="200"/>
      <use xlink:href="#SimHei-52" x="250"/>
      <use xlink:href="#SimHei-4f" x="300"/>
      <use xlink:href="#SimHei-43" x="350"/>
      <use xlink:href="#SimHei-20" x="400"/>
      <use xlink:href="#SimHei-63" x="450"/>
      <use xlink:href="#SimHei-75" x="500"/>
      <use xlink:href="#SimHei-72" x="550"/>
      <use xlink:href="#SimHei-76" x="600"/>
      <use xlink:href="#SimHei-65" x="650"/>
      <use xlink:href="#SimHei-20" x="700"/>
      <use xlink:href="#SimHei-28" x="750"/>
      <use xlink:href="#SimHei-61" x="800"/>
      <use xlink:href="#SimHei-72" x="850"/>
      <use xlink:href="#SimHei-65" x="900"/>
      <use xlink:href="#SimHei-61" x="950"/>
      <use xlink:href="#SimHei-20" x="1000"/>
      <use xlink:href="#SimHei-3d" x="1050"/>
      <use xlink:href="#SimHei-20" x="1100"/>
      <use xlink:href="#SimHei-30" x="1150"/>
      <use xlink:href="#SimHei-2e" x="1200"/>
      <use xlink:href="#SimHei-39" x="1250"/>
      <use xlink:href="#SimHei-36" x="1300"/>
      <use xlink:href="#SimHei-29" x="1350"/>
     </g>
    </g>
    <g id="line2d_17">
     <path d="M 306.4 498.89 
L 316.4 498.89 
L 326.4 498.89 
" style="fill: none; stroke: #ff0000; stroke-width: 2; stroke-linecap: square"/>
    </g>
    <g id="text_17">
     <!-- Transformer ROC curve (area = 0.97) -->
     <g transform="translate(334.4 502.39) scale(0.1 -0.1)">
      <defs>
       <path id="SimHei-6e" d="M 2800 125 
L 2300 125 
L 2300 1925 
Q 2300 2225 2150 2400 
Q 2000 2575 1750 2575 
Q 1425 2575 1137 2237 
Q 850 1900 850 1400 
L 850 125 
L 350 125 
L 350 2925 
L 850 2925 
L 850 2400 
Q 1050 2675 1287 2825 
Q 1525 2975 1900 2975 
Q 2350 2975 2575 2725 
Q 2800 2475 2800 2100 
L 2800 125 
z
" transform="scale(0.015625)"/>
       <path id="SimHei-66" d="M 2850 3825 
Q 2725 3900 2550 3950 
Q 2375 4000 2100 4000 
Q 1825 4000 1725 3862 
Q 1625 3725 1625 3525 
L 1625 2925 
L 2650 2925 
L 2650 2525 
L 1625 2525 
L 1625 125 
L 1125 125 
L 1125 2525 
L 275 2525 
L 275 2925 
L 1125 2925 
L 1125 3500 
Q 1125 3950 1400 4200 
Q 1675 4450 2125 4450 
Q 2400 4450 2562 4412 
Q 2725 4375 2850 4325 
L 2850 3825 
z
" transform="scale(0.015625)"/>
       <path id="SimHei-6d" d="M 3050 125 
L 2550 125 
L 2550 2150 
Q 2550 2300 2500 2400 
Q 2450 2500 2300 2500 
Q 2125 2500 1975 2312 
Q 1825 2125 1825 1825 
L 1825 125 
L 1325 125 
L 1325 2150 
Q 1325 2300 1275 2400 
Q 1225 2500 1075 2500 
Q 900 2500 750 2312 
Q 600 2125 600 1825 
L 600 125 
L 100 125 
L 100 2925 
L 600 2925 
L 600 2550 
Q 725 2750 900 2862 
Q 1075 2975 1275 2975 
Q 1475 2975 1612 2862 
Q 1750 2750 1800 2550 
Q 1925 2750 2087 2862 
Q 2250 2975 2450 2975 
Q 2750 2975 2900 2812 
Q 3050 2650 3050 2350 
L 3050 125 
z
" transform="scale(0.015625)"/>
       <path id="SimHei-37" d="M 850 150 
Q 1300 2050 2425 3925 
L 275 3925 
L 275 4375 
L 2950 4375 
L 2950 3950 
Q 1775 2050 1400 150 
L 850 150 
z
" transform="scale(0.015625)"/>
      </defs>
      <use xlink:href="#SimHei-54"/>
      <use xlink:href="#SimHei-72" x="50"/>
      <use xlink:href="#SimHei-61" x="100"/>
      <use xlink:href="#SimHei-6e" x="150"/>
      <use xlink:href="#SimHei-73" x="200"/>
      <use xlink:href="#SimHei-66" x="250"/>
      <use xlink:href="#SimHei-6f" x="300"/>
      <use xlink:href="#SimHei-72" x="350"/>
      <use xlink:href="#SimHei-6d" x="400"/>
      <use xlink:href="#SimHei-65" x="450"/>
      <use xlink:href="#SimHei-72" x="500"/>
      <use xlink:href="#SimHei-20" x="550"/>
      <use xlink:href="#SimHei-52" x="600"/>
      <use xlink:href="#SimHei-4f" x="650"/>
      <use xlink:href="#SimHei-43" x="700"/>
      <use xlink:href="#SimHei-20" x="750"/>
      <use xlink:href="#SimHei-63" x="800"/>
      <use xlink:href="#SimHei-75" x="850"/>
      <use xlink:href="#SimHei-72" x="900"/>
      <use xlink:href="#SimHei-76" x="950"/>
      <use xlink:href="#SimHei-65" x="1000"/>
      <use xlink:href="#SimHei-20" x="1050"/>
      <use xlink:href="#SimHei-28" x="1100"/>
      <use xlink:href="#SimHei-61" x="1150"/>
      <use xlink:href="#SimHei-72" x="1200"/>
      <use xlink:href="#SimHei-65" x="1250"/>
      <use xlink:href="#SimHei-61" x="1300"/>
      <use xlink:href="#SimHei-20" x="1350"/>
      <use xlink:href="#SimHei-3d" x="1400"/>
      <use xlink:href="#SimHei-20" x="1450"/>
      <use xlink:href="#SimHei-30" x="1500"/>
      <use xlink:href="#SimHei-2e" x="1550"/>
      <use xlink:href="#SimHei-39" x="1600"/>
      <use xlink:href="#SimHei-37" x="1650"/>
      <use xlink:href="#SimHei-29" x="1700"/>
     </g>
    </g>
   </g>
  </g>
 </g>
 <defs>
  <clipPath id="pb4940cfe11">
   <rect x="72" y="69.12" width="446.4" height="443.52"/>
  </clipPath>
 </defs>
</svg>
