<?xml version="1.0" encoding="utf-8" standalone="no"?>
<!DOCTYPE svg PUBLIC "-//W3C//DTD SVG 1.1//EN"
  "http://www.w3.org/Graphics/SVG/1.1/DTD/svg11.dtd">
<svg xmlns:xlink="http://www.w3.org/1999/xlink" width="576pt" height="576pt" viewBox="0 0 576 576" xmlns="http://www.w3.org/2000/svg" version="1.1">
 <metadata>
  <rdf:RDF xmlns:dc="http://purl.org/dc/elements/1.1/" xmlns:cc="http://creativecommons.org/ns#" xmlns:rdf="http://www.w3.org/1999/02/22-rdf-syntax-ns#">
   <cc:Work>
    <dc:type rdf:resource="http://purl.org/dc/dcmitype/StillImage"/>
    <dc:date>2023-05-13T05:30:25.975467</dc:date>
    <dc:format>image/svg+xml</dc:format>
    <dc:creator>
     <cc:Agent>
      <dc:title>Matplotlib v3.7.1, https://matplotlib.org/</dc:title>
     </cc:Agent>
    </dc:creator>
   </cc:Work>
  </rdf:RDF>
 </metadata>
 <defs>
  <style type="text/css">*{stroke-linejoin: round; stroke-linecap: butt}</style>
 </defs>
 <g id="figure_1">
  <g id="patch_1">
   <path d="M 0 576 
L 576 576 
L 576 0 
L 0 0 
z
" style="fill: #ffffff"/>
  </g>
  <g id="axes_1">
   <g id="patch_2">
    <path d="M 72 512.64 
L 518.4 512.64 
L 518.4 69.12 
L 72 69.12 
z
" style="fill: #ffffff"/>
   </g>
   <g id="matplotlib.axis_1">
    <g id="xtick_1">
     <g id="line2d_1">
      <defs>
       <path id="m4d2e5171db" d="M 0 0 
L 0 3.5 
" style="stroke: #000000; stroke-width: 0.8"/>
      </defs>
      <g>
       <use xlink:href="#m4d2e5171db" x="92.290909" y="512.64" style="stroke: #000000; stroke-width: 0.8"/>
      </g>
     </g>
     <g id="text_1">
      <!-- 0.0 -->
      <g transform="translate(84.790909 526.515) scale(0.1 -0.1)">
       <defs>
        <path id="SimHei-30" d="M 225 2537 
Q 250 3200 412 3587 
Q 575 3975 875 4225 
Q 1175 4475 1612 4475 
Q 2050 4475 2375 4112 
Q 2700 3750 2800 3200 
Q 2900 2650 2862 1937 
Q 2825 1225 2612 775 
Q 2400 325 1975 150 
Q 1550 -25 1125 187 
Q 700 400 525 750 
Q 350 1100 275 1487 
Q 200 1875 225 2537 
z
M 750 2687 
Q 675 2000 800 1462 
Q 925 925 1212 700 
Q 1500 475 1800 612 
Q 2100 750 2237 1162 
Q 2375 1575 2375 2062 
Q 2375 2550 2337 2950 
Q 2300 3350 2112 3675 
Q 1925 4000 1612 4012 
Q 1300 4025 1062 3700 
Q 825 3375 750 2687 
z
" transform="scale(0.015625)"/>
        <path id="SimHei-2e" d="M 1075 125 
L 500 125 
L 500 675 
L 1075 675 
L 1075 125 
z
" transform="scale(0.015625)"/>
       </defs>
       <use xlink:href="#SimHei-30"/>
       <use xlink:href="#SimHei-2e" x="50"/>
       <use xlink:href="#SimHei-30" x="100"/>
      </g>
     </g>
    </g>
    <g id="xtick_2">
     <g id="line2d_2">
      <g>
       <use xlink:href="#m4d2e5171db" x="173.454545" y="512.64" style="stroke: #000000; stroke-width: 0.8"/>
      </g>
     </g>
     <g id="text_2">
      <!-- 0.2 -->
      <g transform="translate(165.954545 526.515) scale(0.1 -0.1)">
       <defs>
        <path id="SimHei-32" d="M 300 250 
Q 325 625 650 925 
Q 975 1225 1475 1862 
Q 1975 2500 2125 2850 
Q 2275 3200 2237 3450 
Q 2200 3700 2000 3862 
Q 1800 4025 1537 4000 
Q 1275 3975 1037 3800 
Q 800 3625 675 3275 
L 200 3350 
Q 400 3925 712 4187 
Q 1025 4450 1450 4475 
Q 1700 4500 1900 4462 
Q 2100 4425 2312 4287 
Q 2525 4150 2662 3875 
Q 2800 3600 2762 3212 
Q 2725 2825 2375 2287 
Q 2025 1750 1025 600 
L 2825 600 
L 2825 150 
L 300 150 
L 300 250 
z
" transform="scale(0.015625)"/>
       </defs>
       <use xlink:href="#SimHei-30"/>
       <use xlink:href="#SimHei-2e" x="50"/>
       <use xlink:href="#SimHei-32" x="100"/>
      </g>
     </g>
    </g>
    <g id="xtick_3">
     <g id="line2d_3">
      <g>
       <use xlink:href="#m4d2e5171db" x="254.618182" y="512.64" style="stroke: #000000; stroke-width: 0.8"/>
      </g>
     </g>
     <g id="text_3">
      <!-- 0.4 -->
      <g transform="translate(247.118182 526.515) scale(0.1 -0.1)">
       <defs>
        <path id="SimHei-34" d="M 2000 1100 
L 75 1100 
L 75 1525 
L 2100 4450 
L 2475 4450 
L 2475 1525 
L 3075 1525 
L 3075 1100 
L 2475 1100 
L 2475 150 
L 2000 150 
L 2000 1100 
z
M 2000 1525 
L 2000 3500 
L 600 1525 
L 2000 1525 
z
" transform="scale(0.015625)"/>
       </defs>
       <use xlink:href="#SimHei-30"/>
       <use xlink:href="#SimHei-2e" x="50"/>
       <use xlink:href="#SimHei-34" x="100"/>
      </g>
     </g>
    </g>
    <g id="xtick_4">
     <g id="line2d_4">
      <g>
       <use xlink:href="#m4d2e5171db" x="335.781818" y="512.64" style="stroke: #000000; stroke-width: 0.8"/>
      </g>
     </g>
     <g id="text_4">
      <!-- 0.6 -->
      <g transform="translate(328.281818 526.515) scale(0.1 -0.1)">
       <defs>
        <path id="SimHei-36" d="M 250 1612 
Q 275 1975 387 2225 
Q 500 2475 725 2850 
L 1750 4450 
L 2325 4450 
L 1275 2800 
Q 1950 2975 2350 2750 
Q 2750 2525 2887 2237 
Q 3025 1950 3037 1612 
Q 3050 1275 2937 950 
Q 2825 625 2537 362 
Q 2250 100 1737 75 
Q 1225 50 862 262 
Q 500 475 362 862 
Q 225 1250 250 1612 
z
M 1025 787 
Q 1250 550 1625 525 
Q 2000 500 2250 775 
Q 2500 1050 2500 1575 
Q 2500 2100 2187 2300 
Q 1875 2500 1487 2450 
Q 1100 2400 925 2075 
Q 750 1750 775 1387 
Q 800 1025 1025 787 
z
" transform="scale(0.015625)"/>
       </defs>
       <use xlink:href="#SimHei-30"/>
       <use xlink:href="#SimHei-2e" x="50"/>
       <use xlink:href="#SimHei-36" x="100"/>
      </g>
     </g>
    </g>
    <g id="xtick_5">
     <g id="line2d_5">
      <g>
       <use xlink:href="#m4d2e5171db" x="416.945455" y="512.64" style="stroke: #000000; stroke-width: 0.8"/>
      </g>
     </g>
     <g id="text_5">
      <!-- 0.8 -->
      <g transform="translate(409.445455 526.515) scale(0.1 -0.1)">
       <defs>
        <path id="SimHei-38" d="M 175 1375 
Q 175 1675 325 1962 
Q 475 2250 825 2425 
Q 525 2600 425 2812 
Q 325 3025 312 3300 
Q 300 3575 387 3775 
Q 475 3975 650 4150 
Q 825 4325 1037 4387 
Q 1250 4450 1500 4450 
Q 1750 4450 1950 4400 
Q 2150 4350 2375 4187 
Q 2600 4025 2700 3725 
Q 2800 3425 2687 3025 
Q 2575 2625 2100 2400 
Q 2525 2275 2700 2012 
Q 2875 1750 2875 1375 
Q 2875 1000 2762 775 
Q 2650 550 2512 400 
Q 2375 250 2137 162 
Q 1900 75 1537 75 
Q 1175 75 912 162 
Q 650 250 475 425 
Q 300 600 237 837 
Q 175 1075 175 1375 
z
M 687 1400 
Q 675 1100 787 875 
Q 900 650 1200 587 
Q 1500 525 1825 600 
Q 2150 675 2275 950 
Q 2400 1225 2362 1500 
Q 2325 1775 2050 1962 
Q 1775 2150 1450 2125 
Q 1125 2100 912 1900 
Q 700 1700 687 1400 
z
M 775 3350 
Q 775 3100 950 2875 
Q 1125 2650 1500 2650 
Q 1875 2650 2062 2875 
Q 2250 3100 2237 3412 
Q 2225 3725 2012 3875 
Q 1800 4025 1437 4000 
Q 1075 3975 925 3787 
Q 775 3600 775 3350 
z
" transform="scale(0.015625)"/>
       </defs>
       <use xlink:href="#SimHei-30"/>
       <use xlink:href="#SimHei-2e" x="50"/>
       <use xlink:href="#SimHei-38" x="100"/>
      </g>
     </g>
    </g>
    <g id="xtick_6">
     <g id="line2d_6">
      <g>
       <use xlink:href="#m4d2e5171db" x="498.109091" y="512.64" style="stroke: #000000; stroke-width: 0.8"/>
      </g>
     </g>
     <g id="text_6">
      <!-- 1.0 -->
      <g transform="translate(490.609091 526.515) scale(0.1 -0.1)">
       <defs>
        <path id="SimHei-31" d="M 1400 3600 
Q 1075 3275 575 2975 
L 575 3450 
Q 1200 3875 1600 4450 
L 1900 4450 
L 1900 150 
L 1400 150 
L 1400 3600 
z
" transform="scale(0.015625)"/>
       </defs>
       <use xlink:href="#SimHei-31"/>
       <use xlink:href="#SimHei-2e" x="50"/>
       <use xlink:href="#SimHei-30" x="100"/>
      </g>
     </g>
    </g>
    <g id="text_7">
     <!-- False Positive Rate -->
     <g transform="translate(247.7 538.64) scale(0.1 -0.1)">
      <defs>
       <path id="SimHei-46" d="M 2925 3925 
L 875 3925 
L 875 2525 
L 2425 2525 
L 2425 2050 
L 875 2050 
L 875 125 
L 300 125 
L 300 4400 
L 2925 4400 
L 2925 3925 
z
" transform="scale(0.015625)"/>
       <path id="SimHei-61" d="M 2875 125 
L 2275 125 
Q 2225 175 2200 262 
Q 2175 350 2175 475 
Q 2000 275 1750 175 
Q 1500 75 1225 75 
Q 825 75 550 275 
Q 275 475 275 850 
Q 275 1225 525 1450 
Q 775 1675 1300 1750 
Q 1650 1800 1912 1875 
Q 2175 1950 2175 2075 
Q 2175 2225 2062 2375 
Q 1950 2525 1575 2525 
Q 1275 2525 1137 2412 
Q 1000 2300 950 2100 
L 400 2100 
Q 450 2500 762 2737 
Q 1075 2975 1575 2975 
Q 2125 2975 2400 2725 
Q 2675 2475 2675 2025 
L 2675 650 
Q 2675 500 2725 375 
Q 2775 250 2875 125 
z
M 2175 1050 
L 2175 1550 
Q 2025 1500 1887 1462 
Q 1750 1425 1425 1375 
Q 1050 1325 937 1200 
Q 825 1075 825 900 
Q 825 750 937 637 
Q 1050 525 1275 525 
Q 1500 525 1762 650 
Q 2025 775 2175 1050 
z
" transform="scale(0.015625)"/>
       <path id="SimHei-6c" d="M 1825 125 
L 1325 125 
L 1325 4400 
L 1825 4400 
L 1825 125 
z
" transform="scale(0.015625)"/>
       <path id="SimHei-73" d="M 2750 900 
Q 2750 500 2437 287 
Q 2125 75 1650 75 
Q 1050 75 725 312 
Q 400 550 400 1000 
L 900 1000 
Q 900 700 1112 600 
Q 1325 500 1625 500 
Q 1925 500 2075 612 
Q 2225 725 2225 900 
Q 2225 1025 2100 1150 
Q 1975 1275 1475 1350 
Q 900 1425 687 1637 
Q 475 1850 475 2200 
Q 475 2500 762 2737 
Q 1050 2975 1600 2975 
Q 2100 2975 2387 2750 
Q 2675 2525 2675 2150 
L 2175 2150 
Q 2175 2375 2012 2462 
Q 1850 2550 1600 2550 
Q 1275 2550 1137 2437 
Q 1000 2325 1000 2175 
Q 1000 2000 1125 1900 
Q 1250 1800 1650 1750 
Q 2300 1650 2525 1437 
Q 2750 1225 2750 900 
z
" transform="scale(0.015625)"/>
       <path id="SimHei-65" d="M 2850 1075 
Q 2800 625 2450 350 
Q 2100 75 1625 75 
Q 1025 75 637 462 
Q 250 850 250 1525 
Q 250 2200 637 2587 
Q 1025 2975 1625 2975 
Q 2150 2975 2487 2637 
Q 2825 2300 2825 1525 
L 800 1525 
Q 800 975 1037 750 
Q 1275 525 1625 525 
Q 1900 525 2075 662 
Q 2250 800 2300 1075 
L 2850 1075 
z
M 2250 1925 
Q 2200 2275 2025 2412 
Q 1850 2550 1575 2550 
Q 1325 2550 1125 2412 
Q 925 2275 825 1925 
L 2250 1925 
z
" transform="scale(0.015625)"/>
       <path id="SimHei-20" transform="scale(0.015625)"/>
       <path id="SimHei-50" d="M 2950 3100 
Q 2950 2500 2600 2150 
Q 2250 1800 1625 1800 
L 900 1800 
L 900 125 
L 325 125 
L 325 4400 
L 1625 4400 
Q 2250 4400 2600 4050 
Q 2950 3700 2950 3100 
z
M 2375 3100 
Q 2375 3575 2150 3750 
Q 1925 3925 1475 3925 
L 900 3925 
L 900 2275 
L 1475 2275 
Q 1925 2275 2150 2450 
Q 2375 2625 2375 3100 
z
" transform="scale(0.015625)"/>
       <path id="SimHei-6f" d="M 2925 1525 
Q 2925 875 2525 475 
Q 2125 75 1575 75 
Q 1025 75 625 475 
Q 225 875 225 1525 
Q 225 2175 625 2575 
Q 1025 2975 1575 2975 
Q 2125 2975 2525 2575 
Q 2925 2175 2925 1525 
z
M 2375 1525 
Q 2375 2025 2125 2275 
Q 1875 2525 1575 2525 
Q 1275 2525 1025 2275 
Q 775 2025 775 1525 
Q 775 1025 1025 775 
Q 1275 525 1575 525 
Q 1875 525 2125 775 
Q 2375 1025 2375 1525 
z
" transform="scale(0.015625)"/>
       <path id="SimHei-69" d="M 1800 3725 
L 1300 3725 
L 1300 4375 
L 1800 4375 
L 1800 3725 
z
M 1800 125 
L 1300 125 
L 1300 2925 
L 1800 2925 
L 1800 125 
z
" transform="scale(0.015625)"/>
       <path id="SimHei-74" d="M 2750 200 
Q 2625 150 2462 112 
Q 2300 75 2025 75 
Q 1575 75 1300 325 
Q 1025 575 1025 1025 
L 1025 2525 
L 175 2525 
L 175 2925 
L 1025 2925 
L 1025 3900 
L 1525 3900 
L 1525 2925 
L 2550 2925 
L 2550 2525 
L 1525 2525 
L 1525 1000 
Q 1525 800 1625 662 
Q 1725 525 2000 525 
Q 2275 525 2450 575 
Q 2625 625 2750 700 
L 2750 200 
z
" transform="scale(0.015625)"/>
       <path id="SimHei-76" d="M 2875 2925 
L 1825 75 
L 1275 75 
L 225 2925 
L 750 2925 
L 1525 750 
L 1575 750 
L 2350 2925 
L 2875 2925 
z
" transform="scale(0.015625)"/>
       <path id="SimHei-52" d="M 3000 125 
L 2400 125 
L 1500 1975 
L 850 1975 
L 850 125 
L 275 125 
L 275 4400 
L 1525 4400 
Q 2125 4400 2500 4112 
Q 2875 3825 2875 3175 
Q 2875 2675 2625 2400 
Q 2375 2125 2050 2050 
L 3000 125 
z
M 2300 3175 
Q 2300 3525 2087 3725 
Q 1875 3925 1400 3925 
L 850 3925 
L 850 2450 
L 1550 2450 
Q 1850 2450 2075 2612 
Q 2300 2775 2300 3175 
z
" transform="scale(0.015625)"/>
      </defs>
      <use xlink:href="#SimHei-46"/>
      <use xlink:href="#SimHei-61" x="50"/>
      <use xlink:href="#SimHei-6c" x="100"/>
      <use xlink:href="#SimHei-73" x="150"/>
      <use xlink:href="#SimHei-65" x="200"/>
      <use xlink:href="#SimHei-20" x="250"/>
      <use xlink:href="#SimHei-50" x="300"/>
      <use xlink:href="#SimHei-6f" x="350"/>
      <use xlink:href="#SimHei-73" x="400"/>
      <use xlink:href="#SimHei-69" x="450"/>
      <use xlink:href="#SimHei-74" x="500"/>
      <use xlink:href="#SimHei-69" x="550"/>
      <use xlink:href="#SimHei-76" x="600"/>
      <use xlink:href="#SimHei-65" x="650"/>
      <use xlink:href="#SimHei-20" x="700"/>
      <use xlink:href="#SimHei-52" x="750"/>
      <use xlink:href="#SimHei-61" x="800"/>
      <use xlink:href="#SimHei-74" x="850"/>
      <use xlink:href="#SimHei-65" x="900"/>
     </g>
    </g>
   </g>
   <g id="matplotlib.axis_2">
    <g id="ytick_1">
     <g id="line2d_7">
      <defs>
       <path id="m0c71780fa8" d="M 0 0 
L -3.5 0 
" style="stroke: #000000; stroke-width: 0.8"/>
      </defs>
      <g>
       <use xlink:href="#m0c71780fa8" x="72" y="492.48" style="stroke: #000000; stroke-width: 0.8"/>
      </g>
     </g>
     <g id="text_8">
      <!-- 0.0 -->
      <g transform="translate(50 495.9175) scale(0.1 -0.1)">
       <use xlink:href="#SimHei-30"/>
       <use xlink:href="#SimHei-2e" x="50"/>
       <use xlink:href="#SimHei-30" x="100"/>
      </g>
     </g>
    </g>
    <g id="ytick_2">
     <g id="line2d_8">
      <g>
       <use xlink:href="#m0c71780fa8" x="72" y="411.84" style="stroke: #000000; stroke-width: 0.8"/>
      </g>
     </g>
     <g id="text_9">
      <!-- 0.2 -->
      <g transform="translate(50 415.2775) scale(0.1 -0.1)">
       <use xlink:href="#SimHei-30"/>
       <use xlink:href="#SimHei-2e" x="50"/>
       <use xlink:href="#SimHei-32" x="100"/>
      </g>
     </g>
    </g>
    <g id="ytick_3">
     <g id="line2d_9">
      <g>
       <use xlink:href="#m0c71780fa8" x="72" y="331.2" style="stroke: #000000; stroke-width: 0.8"/>
      </g>
     </g>
     <g id="text_10">
      <!-- 0.4 -->
      <g transform="translate(50 334.6375) scale(0.1 -0.1)">
       <use xlink:href="#SimHei-30"/>
       <use xlink:href="#SimHei-2e" x="50"/>
       <use xlink:href="#SimHei-34" x="100"/>
      </g>
     </g>
    </g>
    <g id="ytick_4">
     <g id="line2d_10">
      <g>
       <use xlink:href="#m0c71780fa8" x="72" y="250.56" style="stroke: #000000; stroke-width: 0.8"/>
      </g>
     </g>
     <g id="text_11">
      <!-- 0.6 -->
      <g transform="translate(50 253.9975) scale(0.1 -0.1)">
       <use xlink:href="#SimHei-30"/>
       <use xlink:href="#SimHei-2e" x="50"/>
       <use xlink:href="#SimHei-36" x="100"/>
      </g>
     </g>
    </g>
    <g id="ytick_5">
     <g id="line2d_11">
      <g>
       <use xlink:href="#m0c71780fa8" x="72" y="169.92" style="stroke: #000000; stroke-width: 0.8"/>
      </g>
     </g>
     <g id="text_12">
      <!-- 0.8 -->
      <g transform="translate(50 173.3575) scale(0.1 -0.1)">
       <use xlink:href="#SimHei-30"/>
       <use xlink:href="#SimHei-2e" x="50"/>
       <use xlink:href="#SimHei-38" x="100"/>
      </g>
     </g>
    </g>
    <g id="ytick_6">
     <g id="line2d_12">
      <g>
       <use xlink:href="#m0c71780fa8" x="72" y="89.28" style="stroke: #000000; stroke-width: 0.8"/>
      </g>
     </g>
     <g id="text_13">
      <!-- 1.0 -->
      <g transform="translate(50 92.7175) scale(0.1 -0.1)">
       <use xlink:href="#SimHei-31"/>
       <use xlink:href="#SimHei-2e" x="50"/>
       <use xlink:href="#SimHei-30" x="100"/>
      </g>
     </g>
    </g>
    <g id="text_14">
     <!-- True Positive Rate -->
     <g transform="translate(44.75 335.88) rotate(-90) scale(0.1 -0.1)">
      <defs>
       <path id="SimHei-54" d="M 2850 3925 
L 1850 3925 
L 1850 125 
L 1275 125 
L 1275 3925 
L 275 3925 
L 275 4400 
L 2850 4400 
L 2850 3925 
z
" transform="scale(0.015625)"/>
       <path id="SimHei-72" d="M 2500 2425 
Q 2025 2500 1700 2287 
Q 1375 2075 1150 1550 
L 1150 125 
L 650 125 
L 650 2925 
L 1150 2925 
L 1150 2200 
Q 1375 2600 1712 2787 
Q 2050 2975 2500 2975 
L 2500 2425 
z
" transform="scale(0.015625)"/>
       <path id="SimHei-75" d="M 2800 125 
L 2300 125 
L 2300 650 
Q 2100 375 1862 225 
Q 1625 75 1250 75 
Q 800 75 575 325 
Q 350 575 350 950 
L 350 2925 
L 850 2925 
L 850 1125 
Q 850 825 1000 650 
Q 1150 475 1400 475 
Q 1725 475 2012 812 
Q 2300 1150 2300 1650 
L 2300 2925 
L 2800 2925 
L 2800 125 
z
" transform="scale(0.015625)"/>
      </defs>
      <use xlink:href="#SimHei-54"/>
      <use xlink:href="#SimHei-72" x="50"/>
      <use xlink:href="#SimHei-75" x="100"/>
      <use xlink:href="#SimHei-65" x="150"/>
      <use xlink:href="#SimHei-20" x="200"/>
      <use xlink:href="#SimHei-50" x="250"/>
      <use xlink:href="#SimHei-6f" x="300"/>
      <use xlink:href="#SimHei-73" x="350"/>
      <use xlink:href="#SimHei-69" x="400"/>
      <use xlink:href="#SimHei-74" x="450"/>
      <use xlink:href="#SimHei-69" x="500"/>
      <use xlink:href="#SimHei-76" x="550"/>
      <use xlink:href="#SimHei-65" x="600"/>
      <use xlink:href="#SimHei-20" x="650"/>
      <use xlink:href="#SimHei-52" x="700"/>
      <use xlink:href="#SimHei-61" x="750"/>
      <use xlink:href="#SimHei-74" x="800"/>
      <use xlink:href="#SimHei-65" x="850"/>
     </g>
    </g>
   </g>
   <g id="line2d_13">
    <path d="M 92.290909 492.48 
L 92.398531 212.465352 
L 92.410489 212.465352 
L 92.518111 183.672885 
L 92.530069 183.672885 
L 92.637691 170.805922 
L 92.661607 170.805922 
L 92.769229 166.165378 
L 92.781187 166.165378 
L 92.888808 161.3139 
L 92.93664 161.208433 
L 93.032304 157.728025 
L 93.05622 157.728025 
L 93.163842 154.458551 
L 93.1758 154.458551 
L 93.283422 151.610944 
L 93.307338 151.610944 
L 93.41496 149.290672 
L 93.426918 149.290672 
L 93.53454 146.9704 
L 93.546498 146.9704 
L 93.65412 145.493863 
L 93.701951 145.388397 
L 93.809573 143.700926 
L 93.821531 143.700926 
L 93.881321 142.962658 
L 93.941111 142.962658 
L 94.048733 142.54079 
L 94.060691 142.54079 
L 94.132439 141.486121 
L 94.192229 141.486121 
L 94.275935 140.431452 
L 94.311809 140.431452 
L 94.419431 138.954915 
L 94.491179 138.849448 
L 94.5988 137.161978 
L 94.610758 137.161978 
L 94.71838 136.212775 
L 94.742296 136.107308 
L 94.766212 135.685441 
L 94.89775 135.579974 
L 95.005372 134.525305 
L 95.041246 134.419838 
L 95.148868 134.103437 
L 95.31628 133.99797 
L 95.423902 133.154235 
L 95.483691 133.154235 
L 95.591313 132.3105 
L 95.639145 132.205033 
L 95.746767 131.361297 
L 95.794599 131.25583 
L 95.878305 130.623029 
L 96.033759 130.517562 
L 96.093549 130.095694 
L 96.225087 129.990228 
L 96.296835 129.462893 
L 96.368582 129.462893 
L 96.368582 129.251959 
L 96.631658 129.146492 
L 96.67949 128.724625 
L 96.882776 128.619158 
L 96.990398 127.880889 
L 97.09802 127.775422 
L 97.193683 127.037154 
L 97.265431 127.037154 
L 97.265431 126.82622 
L 97.480675 126.720753 
L 97.540465 126.404353 
L 97.600255 126.404353 
L 97.612213 125.982485 
L 97.815499 125.877018 
L 97.899205 125.45515 
L 98.138364 125.349683 
L 98.245986 124.189547 
L 98.437314 124.084081 
L 98.532978 123.76768 
L 98.556894 123.76768 
L 98.6406 122.607544 
L 98.784096 122.502077 
L 98.867802 121.869275 
L 98.987381 121.763809 
L 99.059129 121.341941 
L 99.130877 121.236474 
L 99.238499 120.603673 
L 99.298289 120.603673 
L 99.381995 120.076338 
L 99.417869 120.076338 
L 99.477659 119.65447 
L 99.573323 119.549003 
L 99.657029 119.232603 
L 99.88423 119.232603 
L 99.94402 118.916202 
L 100.039684 118.810735 
L 100.147306 118.177934 
L 100.159264 118.177934 
L 100.231012 117.756066 
L 100.338634 117.756066 
L 100.410382 117.439665 
L 100.625626 117.334198 
L 100.685415 117.123264 
L 100.912617 117.123264 
L 100.996323 116.701397 
L 101.068071 116.59593 
L 101.080029 116.384996 
L 101.594222 116.279529 
L 101.594222 116.174062 
L 101.737718 116.068595 
L 101.84534 115.752195 
L 102.02471 115.646728 
L 102.02471 115.541261 
L 102.14429 115.541261 
L 102.14429 115.330327 
L 102.514987 115.22486 
L 102.562819 114.908459 
L 102.861769 114.802992 
L 102.957433 114.592059 
L 102.993307 114.592059 
L 103.029181 114.170191 
L 103.196593 114.064724 
L 103.268341 113.642856 
L 103.483584 113.537389 
L 103.579248 113.115522 
L 103.615122 113.010055 
L 103.615122 112.904588 
L 104.117358 112.799121 
L 104.117358 112.693654 
L 104.332601 112.588187 
L 104.404349 112.271787 
L 104.476097 112.16632 
L 104.559803 111.955386 
L 104.691341 111.849919 
L 104.787005 111.322584 
L 105.062038 111.217117 
L 105.145744 111.006184 
L 105.193576 111.006184 
L 105.28924 110.689783 
L 105.360988 110.584316 
L 105.40882 110.373382 
L 105.743644 110.267915 
L 105.779518 110.056981 
L 105.982803 109.951515 
L 106.042593 109.529647 
L 106.186089 109.42418 
L 106.269795 109.213246 
L 106.520913 109.107779 
L 106.616577 108.896845 
L 106.9514 108.791378 
L 107.035106 108.369511 
L 107.31014 108.369511 
L 107.381888 108.05311 
L 107.979787 107.947643 
L 107.979787 107.842176 
L 108.350485 107.736709 
L 108.410275 107.525776 
L 108.721182 107.420309 
L 108.79293 107.209375 
L 109.056006 107.103908 
L 109.056006 106.892974 
L 109.713695 106.787507 
L 109.713695 106.68204 
L 110.311594 106.576573 
L 110.311594 106.471106 
L 111.328023 106.36564 
L 111.328023 106.260173 
L 121.312942 106.154706 
L 121.312942 106.049239 
L 137.779089 105.943772 
L 137.779089 105.838305 
L 137.814963 105.838305 
L 158.753397 105.732838 
L 158.753397 105.627371 
L 193.359809 105.521904 
L 193.443515 105.205504 
L 193.682675 105.100037 
L 193.742465 104.783636 
L 193.981625 104.678169 
L 193.981625 104.467235 
L 194.029457 104.467235 
L 194.149037 104.361768 
L 194.149037 104.256301 
L 194.184911 104.256301 
L 194.352322 104.150834 
L 194.352322 104.045368 
L 194.459944 104.045368 
L 194.699104 103.939901 
L 194.794768 103.6235 
L 195.057844 103.518033 
L 195.057844 103.412566 
L 195.117633 103.412566 
L 195.332877 103.412566 
L 195.332877 103.307099 
L 195.440499 103.201632 
L 195.536163 103.096165 
L 195.655743 102.990698 
L 195.703575 102.990698 
L 195.823155 102.779765 
L 196.157978 102.779765 
L 196.241684 102.568831 
L 196.755878 102.463364 
L 196.755878 102.357897 
L 264.940316 102.25243 
L 264.940316 102.146963 
L 264.988148 102.146963 
L 292.180608 102.041496 
L 292.180608 101.936029 
L 308.802209 101.830562 
L 308.861999 101.619629 
L 319.038246 101.514162 
L 319.062162 101.092294 
L 319.217616 100.986827 
L 319.217616 100.88136 
L 322.960465 100.775893 
L 322.960465 100.670426 
L 330.218963 100.564959 
L 330.278753 100.248559 
L 330.482039 100.143092 
L 330.482039 100.037625 
L 330.780988 99.932158 
L 330.876652 99.615757 
L 331.044064 99.51029 
L 331.044064 99.404823 
L 331.331056 99.299357 
L 331.414762 99.088423 
L 331.618047 98.982956 
L 331.618047 98.877489 
L 332.072451 98.772022 
L 332.072451 98.666555 
L 334.069435 98.561088 
L 334.081393 98.350154 
L 336.185998 98.244687 
L 336.185998 98.139221 
L 350.081178 98.033754 
L 350.081178 97.928287 
L 360.986862 97.82282 
L 360.986862 97.717353 
L 361.823921 97.611886 
L 361.823921 97.506419 
L 375.444067 97.400952 
L 375.444067 97.295485 
L 376.962731 97.190018 
L 376.962731 97.084551 
L 377.034479 97.084551 
L 379.282581 96.979084 
L 379.282581 96.873618 
L 382.092708 96.768151 
L 382.092708 96.662684 
L 389.195751 96.557217 
L 389.219667 96.346283 
L 389.351205 96.240816 
L 389.351205 96.135349 
L 392.962517 96.029882 
L 392.962517 95.924415 
L 393.584332 95.818948 
L 393.584332 95.713482 
L 393.691954 95.713482 
L 395.413904 95.608015 
L 395.413904 95.502548 
L 402.4452 95.397081 
L 402.4452 95.186147 
L 402.911562 95.08068 
L 402.959394 94.869746 
L 403.509461 94.764279 
L 403.509461 94.658812 
L 403.605125 94.658812 
L 404.059528 94.553346 
L 404.059528 94.447879 
L 404.753092 94.342412 
L 404.753092 94.236945 
L 404.836798 94.236945 
L 404.956377 94.131478 
L 405.028125 93.70961 
L 405.063999 93.70961 
L 405.315117 93.70961 
L 405.315117 93.604143 
L 405.446655 93.182276 
L 405.542319 93.182276 
L 405.542319 93.076809 
L 405.578193 92.760408 
L 405.637983 92.760408 
L 405.793437 92.654941 
L 405.913016 92.444007 
L 405.972806 92.33854 
L 406.18805 91.283871 
L 406.259798 91.178404 
L 409.608034 91.072937 
L 409.608034 90.967471 
L 410.839707 90.862004 
L 410.839707 90.756537 
L 414.259691 90.65107 
L 414.355355 90.440136 
L 422.307416 90.334669 
L 422.307416 90.229202 
L 425.655652 90.123735 
L 425.655652 90.018268 
L 437.254899 89.912801 
L 437.254899 89.807335 
L 438.378949 89.701868 
L 438.378949 89.596401 
L 464.375611 89.490934 
L 464.375611 89.385467 
L 498.109091 89.28 
L 498.109091 89.28 
" clip-path="url(#pb4d2f521cb)" style="fill: none; stroke: #0000ff; stroke-width: 2; stroke-linecap: square"/>
   </g>
   <g id="line2d_14">
    <path d="M 92.290909 492.48 
L 92.398316 369.963036 
L 92.41025 369.855659 
L 92.517656 347.736032 
L 92.541525 347.091771 
L 92.648931 330.985246 
L 92.660865 330.985246 
L 92.768272 312.301678 
L 92.780206 312.301678 
L 92.887613 295.550892 
L 92.899547 295.550892 
L 92.995019 284.168948 
L 93.018888 284.168948 
L 93.126294 280.088628 
L 93.138228 280.088628 
L 93.245635 268.277177 
L 93.257569 268.277177 
L 93.364976 232.198562 
L 93.388844 232.198562 
L 93.484316 202.133049 
L 93.520119 202.133049 
L 93.627525 198.911744 
L 93.675262 198.804368 
L 93.7588 194.831425 
L 93.806536 194.831425 
L 93.902009 186.992916 
L 93.925877 186.992916 
L 94.033284 173.356059 
L 94.045218 173.356059 
L 94.152625 169.705246 
L 94.176493 169.705246 
L 94.283899 167.128202 
L 94.319702 167.020826 
L 94.427108 164.873289 
L 94.450976 164.873289 
L 94.558383 161.866738 
L 94.570317 161.866738 
L 94.677724 158.75281 
L 94.701592 158.645433 
L 94.808999 157.03478 
L 94.832867 157.03478 
L 94.916405 155.853635 
L 94.98801 155.853635 
L 95.071548 154.242983 
L 95.119285 154.135606 
L 95.226691 152.417577 
L 95.274428 152.3102 
L 95.381834 151.773316 
L 95.393768 151.773316 
L 95.501175 148.659387 
L 95.536977 148.659387 
L 95.620516 147.156112 
L 95.668252 147.048735 
L 95.775659 145.438083 
L 95.787593 145.438083 
L 95.894999 144.256937 
L 95.918868 144.149561 
L 96.026274 143.075792 
L 96.050142 143.075792 
L 96.133681 142.002024 
L 96.181417 142.002024 
L 96.288824 140.713502 
L 96.348494 140.606125 
L 96.443967 139.317603 
L 96.503637 139.317603 
L 96.563308 138.458589 
L 96.694582 138.351212 
L 96.801989 137.492197 
L 96.849725 137.492197 
L 96.933264 136.203675 
L 96.992934 136.203675 
L 97.100341 135.02253 
L 97.171945 134.915153 
L 97.279352 134.056138 
L 97.339022 134.056138 
L 97.446429 132.874993 
L 97.458363 132.874993 
L 97.518033 132.445486 
L 97.601572 132.338109 
L 97.708979 131.049587 
L 97.756715 131.049587 
L 97.864122 130.62008 
L 97.94766 130.512703 
L 98.019265 129.761065 
L 98.067001 129.761065 
L 98.138605 129.438935 
L 98.246012 129.331558 
L 98.353419 128.472543 
L 98.389221 128.365166 
L 98.484693 127.720905 
L 98.568232 127.613529 
L 98.615968 126.754514 
L 98.794979 126.754514 
L 98.85465 126.110253 
L 98.926254 126.110253 
L 98.985925 125.251238 
L 99.105265 125.251238 
L 99.212672 124.392224 
L 99.343947 124.284847 
L 99.391683 123.962716 
L 99.55876 123.85534 
L 99.654233 123.425832 
L 99.701969 123.318455 
L 99.785507 122.996325 
L 99.869046 122.888948 
L 99.952585 122.352064 
L 100.071925 122.244687 
L 100.167398 121.600426 
L 100.26287 121.493049 
L 100.310607 121.063542 
L 100.429947 120.956165 
L 100.537354 120.419281 
L 100.764102 120.311904 
L 100.871508 119.667643 
L 101.122124 119.560266 
L 101.217596 118.916005 
L 101.277267 118.808628 
L 101.384673 118.593875 
L 101.444344 118.486498 
L 101.55175 117.949614 
L 101.611421 117.842237 
L 101.718827 117.520107 
L 101.850102 117.41273 
L 101.921707 117.090599 
L 102.041047 116.983222 
L 102.13652 116.446338 
L 102.220059 116.338961 
L 102.267795 115.6947 
L 102.411004 115.587324 
L 102.51841 115.050439 
L 102.637751 114.943063 
L 102.72129 114.620932 
L 102.983839 114.513555 
L 103.091246 114.191425 
L 103.186719 114.084048 
L 103.258323 113.654541 
L 103.544741 113.547164 
L 103.616345 113.117656 
L 103.843093 113.01028 
L 103.914697 112.366019 
L 104.022104 112.258642 
L 104.12951 111.829134 
L 104.344324 111.721758 
L 104.403994 111.399627 
L 104.606873 111.29225 
L 104.666544 111.077497 
L 104.941027 110.97012 
L 105.0365 110.540613 
L 105.084236 110.540613 
L 105.143907 110.111105 
L 105.501929 110.003728 
L 105.573533 109.574221 
L 105.788347 109.466844 
L 105.848017 109.252091 
L 105.955424 109.144714 
L 106.06283 108.715206 
L 106.241841 108.60783 
L 106.32538 108.393076 
L 106.492457 108.393076 
L 106.492457 108.178322 
L 110.19202 108.070945 
L 110.275558 107.748815 
L 110.550042 107.641438 
L 110.550042 107.534061 
L 110.919998 107.426684 
L 110.931932 107.211931 
L 111.146746 107.104554 
L 111.182548 106.8898 
L 111.373493 106.782423 
L 111.373493 106.675047 
L 111.743449 106.56767 
L 111.791186 106.352916 
L 112.053735 106.245539 
L 112.077604 106.030786 
L 126.434294 105.923409 
L 126.434294 105.816032 
L 126.517833 105.816032 
L 135.802542 105.708655 
L 135.802542 105.601278 
L 136.053158 105.493901 
L 136.053158 105.386525 
L 136.339576 105.279148 
L 136.399246 105.064394 
L 142.055997 104.957017 
L 142.079865 104.742264 
L 142.246942 104.634887 
L 142.246942 104.420133 
L 144.132526 104.098003 
L 144.323471 103.990626 
L 144.836636 103.883249 
L 144.932109 103.668495 
L 145.230461 103.561119 
L 145.230461 103.453742 
L 148.691342 103.346365 
L 148.786815 103.024234 
L 149.109035 102.916858 
L 149.109035 102.809481 
L 149.323848 102.702104 
L 149.323848 102.594727 
L 149.992156 102.48735 
L 149.992156 102.379973 
L 150.027958 102.379973 
L 150.421783 102.272597 
L 150.421783 102.16522 
L 150.457585 102.16522 
L 151.257168 102.057843 
L 151.257168 101.950466 
L 151.364575 101.950466 
L 151.901608 101.843089 
L 151.901608 101.735712 
L 152.378971 101.628336 
L 152.46251 101.413582 
L 152.641521 101.306205 
L 152.641521 101.091451 
L 153.274027 100.984075 
L 153.274027 100.876698 
L 154.598709 100.769321 
L 154.598709 100.661944 
L 159.276866 100.554567 
L 159.276866 100.44719 
L 166.795332 100.339814 
L 166.890805 100.12506 
L 167.177223 100.017683 
L 167.177223 99.910306 
L 167.929069 99.802929 
L 167.929069 99.695553 
L 168.10808 99.588176 
L 168.10808 99.480799 
L 168.489971 99.373422 
L 168.489971 99.266045 
L 169.373092 99.158668 
L 169.373092 99.051292 
L 170.315884 98.943915 
L 170.315884 98.836538 
L 170.697774 98.729161 
L 170.697774 98.621784 
L 170.984192 98.514407 
L 170.984192 98.407031 
L 171.175137 98.299654 
L 171.175137 98.192277 
L 171.950852 98.0849 
L 171.950852 97.977523 
L 172.643028 97.870146 
L 172.726567 97.333262 
L 172.810105 97.225885 
L 172.810105 97.118509 
L 173.191996 97.011132 
L 173.191996 96.903755 
L 173.729029 96.796378 
L 173.776765 96.581625 
L 173.943842 96.474248 
L 173.943842 96.366871 
L 174.743425 96.259494 
L 174.743425 96.152117 
L 177.691142 96.04474 
L 177.71501 95.829987 
L 177.834351 95.72261 
L 177.834351 95.615233 
L 178.514593 95.507856 
L 178.514593 95.400479 
L 179.624462 95.293103 
L 179.624462 95.185726 
L 180.495649 95.078349 
L 180.495649 94.970972 
L 184.302619 94.863595 
L 184.302619 94.756218 
L 187.011653 94.648842 
L 187.011653 94.541465 
L 189.446204 94.434088 
L 189.446204 94.326711 
L 190.747018 94.219334 
L 190.747018 94.111957 
L 193.778273 94.004581 
L 193.778273 93.897204 
L 195.055219 93.789827 
L 195.055219 93.68245 
L 199.160541 93.575073 
L 199.160541 93.467696 
L 201.308674 93.36032 
L 201.308674 93.252943 
L 203.218126 93.145566 
L 203.218126 93.038189 
L 204.709885 92.930812 
L 204.709885 92.823435 
L 208.76747 92.716059 
L 208.76747 92.608682 
L 211.070746 92.501305 
L 211.070746 92.393928 
L 213.374023 92.286551 
L 213.374023 92.179174 
L 214.746441 92.071798 
L 214.746441 91.964421 
L 215.91598 91.857044 
L 215.91598 91.749667 
L 220.522533 91.64229 
L 220.522533 91.534913 
L 225.749657 91.427537 
L 225.749657 91.32016 
L 281.636925 91.212783 
L 281.636925 91.105406 
L 323.477788 90.998029 
L 323.477788 90.890652 
L 371.094743 90.783276 
L 371.094743 90.675899 
L 388.220139 90.568522 
L 388.220139 90.461145 
L 407.589141 90.353768 
L 407.589141 90.246391 
L 411.813803 90.139015 
L 411.813803 90.031638 
L 425.95568 89.924261 
L 425.95568 89.816884 
L 469.7776 89.709507 
L 469.7776 89.60213 
L 477.188659 89.494754 
L 477.188659 89.387377 
L 498.109091 89.28 
L 498.109091 89.28 
" clip-path="url(#pb4d2f521cb)" style="fill: none; stroke: #ff0000; stroke-width: 2; stroke-linecap: square"/>
   </g>
   <g id="line2d_15">
    <path d="M 92.290909 492.48 
L 498.109091 89.28 
" clip-path="url(#pb4d2f521cb)" style="fill: none; stroke-dasharray: 7.4,3.2; stroke-dashoffset: 0; stroke: #000000; stroke-width: 2"/>
   </g>
   <g id="patch_3">
    <path d="M 72 512.64 
L 72 69.12 
" style="fill: none; stroke: #000000; stroke-width: 0.8; stroke-linejoin: miter; stroke-linecap: square"/>
   </g>
   <g id="patch_4">
    <path d="M 518.4 512.64 
L 518.4 69.12 
" style="fill: none; stroke: #000000; stroke-width: 0.8; stroke-linejoin: miter; stroke-linecap: square"/>
   </g>
   <g id="patch_5">
    <path d="M 72 512.64 
L 518.4 512.64 
" style="fill: none; stroke: #000000; stroke-width: 0.8; stroke-linejoin: miter; stroke-linecap: square"/>
   </g>
   <g id="patch_6">
    <path d="M 72 69.12 
L 518.4 69.12 
" style="fill: none; stroke: #000000; stroke-width: 0.8; stroke-linejoin: miter; stroke-linecap: square"/>
   </g>
   <g id="text_15">
    <!-- Nine Genomes ROC -->
    <g transform="translate(247.2 63.12) scale(0.12 -0.12)">
     <defs>
      <path id="SimHei-4e" d="M 2850 125 
L 2225 125 
L 850 3225 
L 825 3225 
L 825 125 
L 250 125 
L 250 4400 
L 875 4400 
L 2250 1300 
L 2275 1300 
L 2275 4400 
L 2850 4400 
L 2850 125 
z
" transform="scale(0.015625)"/>
      <path id="SimHei-6e" d="M 2800 125 
L 2300 125 
L 2300 1925 
Q 2300 2225 2150 2400 
Q 2000 2575 1750 2575 
Q 1425 2575 1137 2237 
Q 850 1900 850 1400 
L 850 125 
L 350 125 
L 350 2925 
L 850 2925 
L 850 2400 
Q 1050 2675 1287 2825 
Q 1525 2975 1900 2975 
Q 2350 2975 2575 2725 
Q 2800 2475 2800 2100 
L 2800 125 
z
" transform="scale(0.015625)"/>
      <path id="SimHei-47" d="M 2850 75 
L 2425 75 
L 2350 425 
Q 2250 275 2037 175 
Q 1825 75 1575 75 
Q 1050 75 637 562 
Q 225 1050 225 2125 
Q 225 3300 600 3875 
Q 975 4450 1625 4450 
Q 2200 4450 2525 4025 
Q 2850 3600 2850 2925 
L 2300 2925 
Q 2300 3450 2125 3712 
Q 1950 3975 1625 3975 
Q 1225 3975 1025 3562 
Q 825 3150 825 2175 
Q 825 1250 1075 900 
Q 1325 550 1650 550 
Q 1975 550 2162 787 
Q 2350 1025 2350 1525 
L 2350 1800 
L 1575 1800 
L 1575 2275 
L 2850 2275 
L 2850 75 
z
" transform="scale(0.015625)"/>
      <path id="SimHei-6d" d="M 3050 125 
L 2550 125 
L 2550 2150 
Q 2550 2300 2500 2400 
Q 2450 2500 2300 2500 
Q 2125 2500 1975 2312 
Q 1825 2125 1825 1825 
L 1825 125 
L 1325 125 
L 1325 2150 
Q 1325 2300 1275 2400 
Q 1225 2500 1075 2500 
Q 900 2500 750 2312 
Q 600 2125 600 1825 
L 600 125 
L 100 125 
L 100 2925 
L 600 2925 
L 600 2550 
Q 725 2750 900 2862 
Q 1075 2975 1275 2975 
Q 1475 2975 1612 2862 
Q 1750 2750 1800 2550 
Q 1925 2750 2087 2862 
Q 2250 2975 2450 2975 
Q 2750 2975 2900 2812 
Q 3050 2650 3050 2350 
L 3050 125 
z
" transform="scale(0.015625)"/>
      <path id="SimHei-4f" d="M 2950 2275 
Q 2950 1100 2587 587 
Q 2225 75 1575 75 
Q 925 75 550 587 
Q 175 1100 175 2275 
Q 175 3450 550 3950 
Q 925 4450 1575 4450 
Q 2225 4450 2587 3950 
Q 2950 3450 2950 2275 
z
M 2350 2275 
Q 2350 3325 2125 3650 
Q 1900 3975 1575 3975 
Q 1250 3975 1012 3650 
Q 775 3325 775 2275 
Q 775 1225 1012 887 
Q 1250 550 1575 550 
Q 1900 550 2125 887 
Q 2350 1225 2350 2275 
z
" transform="scale(0.015625)"/>
      <path id="SimHei-43" d="M 2975 1825 
Q 2950 875 2575 475 
Q 2200 75 1675 75 
Q 1075 75 650 562 
Q 225 1050 225 2125 
Q 225 3300 637 3875 
Q 1050 4450 1700 4450 
Q 2250 4450 2612 4037 
Q 2975 3625 2950 2875 
L 2400 2875 
Q 2400 3425 2225 3700 
Q 2050 3975 1700 3975 
Q 1300 3975 1062 3562 
Q 825 3150 825 2175 
Q 825 1275 1062 912 
Q 1300 550 1675 550 
Q 1950 550 2175 812 
Q 2400 1075 2400 1825 
L 2975 1825 
z
" transform="scale(0.015625)"/>
     </defs>
     <use xlink:href="#SimHei-4e"/>
     <use xlink:href="#SimHei-69" x="50"/>
     <use xlink:href="#SimHei-6e" x="100"/>
     <use xlink:href="#SimHei-65" x="150"/>
     <use xlink:href="#SimHei-20" x="200"/>
     <use xlink:href="#SimHei-47" x="250"/>
     <use xlink:href="#SimHei-65" x="300"/>
     <use xlink:href="#SimHei-6e" x="350"/>
     <use xlink:href="#SimHei-6f" x="400"/>
     <use xlink:href="#SimHei-6d" x="450"/>
     <use xlink:href="#SimHei-65" x="500"/>
     <use xlink:href="#SimHei-73" x="550"/>
     <use xlink:href="#SimHei-20" x="600"/>
     <use xlink:href="#SimHei-52" x="650"/>
     <use xlink:href="#SimHei-4f" x="700"/>
     <use xlink:href="#SimHei-43" x="750"/>
    </g>
   </g>
   <g id="legend_1">
    <g id="patch_7">
     <path d="M 304.4 507.64 
L 511.4 507.64 
Q 513.4 507.64 513.4 505.64 
L 513.4 479.530625 
Q 513.4 477.530625 511.4 477.530625 
L 304.4 477.530625 
Q 302.4 477.530625 302.4 479.530625 
L 302.4 505.64 
Q 302.4 507.64 304.4 507.64 
z
" style="fill: #ffffff; opacity: 0.8; stroke: #cccccc; stroke-linejoin: miter"/>
    </g>
    <g id="line2d_16">
     <path d="M 306.4 485.335312 
L 316.4 485.335312 
L 326.4 485.335312 
" style="fill: none; stroke: #0000ff; stroke-width: 2; stroke-linecap: square"/>
    </g>
    <g id="text_16">
     <!-- LSTM ROC curve (area = 0.97) -->
     <g transform="translate(334.4 488.835312) scale(0.1 -0.1)">
      <defs>
       <path id="SimHei-4c" d="M 2900 125 
L 300 125 
L 300 4400 
L 875 4400 
L 875 600 
L 2900 600 
L 2900 125 
z
" transform="scale(0.015625)"/>
       <path id="SimHei-53" d="M 2900 1325 
Q 2900 750 2537 412 
Q 2175 75 1550 75 
Q 925 75 575 425 
Q 225 775 225 1300 
L 225 1475 
L 800 1475 
L 800 1325 
Q 800 950 1025 750 
Q 1250 550 1550 550 
Q 1950 550 2137 762 
Q 2325 975 2325 1275 
Q 2325 1525 2100 1737 
Q 1875 1950 1450 2125 
Q 850 2350 587 2625 
Q 325 2900 325 3275 
Q 325 3800 687 4125 
Q 1050 4450 1550 4450 
Q 2200 4450 2487 4062 
Q 2775 3675 2775 3225 
L 2200 3225 
Q 2225 3500 2050 3725 
Q 1875 3950 1550 3950 
Q 1250 3950 1075 3787 
Q 900 3625 900 3350 
Q 900 3125 1037 2962 
Q 1175 2800 1750 2575 
Q 2300 2350 2600 2037 
Q 2900 1725 2900 1325 
z
" transform="scale(0.015625)"/>
       <path id="SimHei-4d" d="M 2925 125 
L 2425 125 
L 2425 3175 
L 2375 3175 
L 1775 125 
L 1375 125 
L 775 3175 
L 725 3175 
L 725 125 
L 225 125 
L 225 4400 
L 1000 4400 
L 1550 1575 
L 1600 1575 
L 2150 4400 
L 2925 4400 
L 2925 125 
z
" transform="scale(0.015625)"/>
       <path id="SimHei-63" d="M 2850 1250 
Q 2850 725 2487 400 
Q 2125 75 1575 75 
Q 1025 75 625 462 
Q 225 850 225 1525 
Q 225 2200 625 2587 
Q 1025 2975 1575 2975 
Q 2125 2975 2450 2687 
Q 2775 2400 2775 2000 
L 2225 2000 
Q 2200 2300 2012 2412 
Q 1825 2525 1575 2525 
Q 1275 2525 1025 2287 
Q 775 2050 775 1525 
Q 775 1000 1025 762 
Q 1275 525 1575 525 
Q 1900 525 2100 700 
Q 2300 875 2300 1250 
L 2850 1250 
z
" transform="scale(0.015625)"/>
       <path id="SimHei-28" d="M 2975 -200 
L 2700 -475 
Q 2075 125 1762 775 
Q 1450 1425 1450 2250 
Q 1450 3075 1762 3725 
Q 2075 4375 2700 5000 
L 2975 4725 
Q 2400 4175 2112 3587 
Q 1825 3000 1825 2250 
Q 1825 1500 2112 912 
Q 2400 325 2975 -200 
z
" transform="scale(0.015625)"/>
       <path id="SimHei-3d" d="M 2975 2900 
L 125 2900 
L 125 3300 
L 2975 3300 
L 2975 2900 
z
M 2975 1375 
L 125 1375 
L 125 1775 
L 2975 1775 
L 2975 1375 
z
" transform="scale(0.015625)"/>
       <path id="SimHei-39" d="M 800 75 
Q 1350 1000 1700 1750 
Q 1075 1650 662 1912 
Q 250 2175 162 2625 
Q 75 3075 175 3437 
Q 275 3800 487 4037 
Q 700 4275 1000 4375 
Q 1300 4475 1537 4475 
Q 1775 4475 2025 4375 
Q 2275 4275 2475 4075 
Q 2675 3875 2750 3662 
Q 2825 3450 2825 3112 
Q 2825 2775 2575 2250 
Q 2325 1725 1350 75 
L 800 75 
z
M 662 2875 
Q 700 2550 937 2337 
Q 1175 2125 1450 2150 
Q 1725 2175 1887 2300 
Q 2050 2425 2200 2725 
Q 2300 3100 2250 3362 
Q 2200 3625 1987 3800 
Q 1775 3975 1525 3975 
Q 1375 4000 1137 3900 
Q 900 3800 762 3500 
Q 625 3200 662 2875 
z
" transform="scale(0.015625)"/>
       <path id="SimHei-37" d="M 850 150 
Q 1300 2050 2425 3925 
L 275 3925 
L 275 4375 
L 2950 4375 
L 2950 3950 
Q 1775 2050 1400 150 
L 850 150 
z
" transform="scale(0.015625)"/>
       <path id="SimHei-29" d="M 1675 2250 
Q 1675 1425 1362 775 
Q 1050 125 425 -475 
L 150 -200 
Q 725 325 1012 912 
Q 1300 1500 1300 2250 
Q 1300 3000 1012 3587 
Q 725 4175 150 4725 
L 425 5000 
Q 1050 4375 1362 3725 
Q 1675 3075 1675 2250 
z
" transform="scale(0.015625)"/>
      </defs>
      <use xlink:href="#SimHei-4c"/>
      <use xlink:href="#SimHei-53" x="50"/>
      <use xlink:href="#SimHei-54" x="100"/>
      <use xlink:href="#SimHei-4d" x="150"/>
      <use xlink:href="#SimHei-20" x="200"/>
      <use xlink:href="#SimHei-52" x="250"/>
      <use xlink:href="#SimHei-4f" x="300"/>
      <use xlink:href="#SimHei-43" x="350"/>
      <use xlink:href="#SimHei-20" x="400"/>
      <use xlink:href="#SimHei-63" x="450"/>
      <use xlink:href="#SimHei-75" x="500"/>
      <use xlink:href="#SimHei-72" x="550"/>
      <use xlink:href="#SimHei-76" x="600"/>
      <use xlink:href="#SimHei-65" x="650"/>
      <use xlink:href="#SimHei-20" x="700"/>
      <use xlink:href="#SimHei-28" x="750"/>
      <use xlink:href="#SimHei-61" x="800"/>
      <use xlink:href="#SimHei-72" x="850"/>
      <use xlink:href="#SimHei-65" x="900"/>
      <use xlink:href="#SimHei-61" x="950"/>
      <use xlink:href="#SimHei-20" x="1000"/>
      <use xlink:href="#SimHei-3d" x="1050"/>
      <use xlink:href="#SimHei-20" x="1100"/>
      <use xlink:href="#SimHei-30" x="1150"/>
      <use xlink:href="#SimHei-2e" x="1200"/>
      <use xlink:href="#SimHei-39" x="1250"/>
      <use xlink:href="#SimHei-37" x="1300"/>
      <use xlink:href="#SimHei-29" x="1350"/>
     </g>
    </g>
    <g id="line2d_17">
     <path d="M 306.4 498.89 
L 316.4 498.89 
L 326.4 498.89 
" style="fill: none; stroke: #ff0000; stroke-width: 2; stroke-linecap: square"/>
    </g>
    <g id="text_17">
     <!-- Transformer ROC curve (area = 0.99) -->
     <g transform="translate(334.4 502.39) scale(0.1 -0.1)">
      <defs>
       <path id="SimHei-66" d="M 2850 3825 
Q 2725 3900 2550 3950 
Q 2375 4000 2100 4000 
Q 1825 4000 1725 3862 
Q 1625 3725 1625 3525 
L 1625 2925 
L 2650 2925 
L 2650 2525 
L 1625 2525 
L 1625 125 
L 1125 125 
L 1125 2525 
L 275 2525 
L 275 2925 
L 1125 2925 
L 1125 3500 
Q 1125 3950 1400 4200 
Q 1675 4450 2125 4450 
Q 2400 4450 2562 4412 
Q 2725 4375 2850 4325 
L 2850 3825 
z
" transform="scale(0.015625)"/>
      </defs>
      <use xlink:href="#SimHei-54"/>
      <use xlink:href="#SimHei-72" x="50"/>
      <use xlink:href="#SimHei-61" x="100"/>
      <use xlink:href="#SimHei-6e" x="150"/>
      <use xlink:href="#SimHei-73" x="200"/>
      <use xlink:href="#SimHei-66" x="250"/>
      <use xlink:href="#SimHei-6f" x="300"/>
      <use xlink:href="#SimHei-72" x="350"/>
      <use xlink:href="#SimHei-6d" x="400"/>
      <use xlink:href="#SimHei-65" x="450"/>
      <use xlink:href="#SimHei-72" x="500"/>
      <use xlink:href="#SimHei-20" x="550"/>
      <use xlink:href="#SimHei-52" x="600"/>
      <use xlink:href="#SimHei-4f" x="650"/>
      <use xlink:href="#SimHei-43" x="700"/>
      <use xlink:href="#SimHei-20" x="750"/>
      <use xlink:href="#SimHei-63" x="800"/>
      <use xlink:href="#SimHei-75" x="850"/>
      <use xlink:href="#SimHei-72" x="900"/>
      <use xlink:href="#SimHei-76" x="950"/>
      <use xlink:href="#SimHei-65" x="1000"/>
      <use xlink:href="#SimHei-20" x="1050"/>
      <use xlink:href="#SimHei-28" x="1100"/>
      <use xlink:href="#SimHei-61" x="1150"/>
      <use xlink:href="#SimHei-72" x="1200"/>
      <use xlink:href="#SimHei-65" x="1250"/>
      <use xlink:href="#SimHei-61" x="1300"/>
      <use xlink:href="#SimHei-20" x="1350"/>
      <use xlink:href="#SimHei-3d" x="1400"/>
      <use xlink:href="#SimHei-20" x="1450"/>
      <use xlink:href="#SimHei-30" x="1500"/>
      <use xlink:href="#SimHei-2e" x="1550"/>
      <use xlink:href="#SimHei-39" x="1600"/>
      <use xlink:href="#SimHei-39" x="1650"/>
      <use xlink:href="#SimHei-29" x="1700"/>
     </g>
    </g>
   </g>
  </g>
 </g>
 <defs>
  <clipPath id="pb4d2f521cb">
   <rect x="72" y="69.12" width="446.4" height="443.52"/>
  </clipPath>
 </defs>
</svg>
